<svg width="16" height="16" viewBox="0 0 16 16" fill="none" xmlns="http://www.w3.org/2000/svg">
<g id="vuesax/bulk/buildings">
<g id="buildings">
<path id="Vector" opacity="0.6" d="M6.73997 2.6665C6.68664 2.8665 6.66665 3.0865 6.66665 3.33317V5.33317H3.33331V3.99984C3.33331 3.2665 3.93331 2.6665 4.66665 2.6665H6.73997Z" fill="#272728"/>
<path id="Vector_2" d="M6.66665 12.6668V5.3335H3.33331C1.99998 5.3335 1.33331 6.00016 1.33331 7.3335V12.6668C1.33331 14.0002 1.99998 14.6668 3.33331 14.6668H8.66665C7.33331 14.6668 6.66665 14.0002 6.66665 12.6668ZM4.49998 11.3335C4.49998 11.6068 4.27331 11.8335 3.99998 11.8335C3.72665 11.8335 3.49998 11.6068 3.49998 11.3335V8.66683C3.49998 8.3935 3.72665 8.16683 3.99998 8.16683C4.27331 8.16683 4.49998 8.3935 4.49998 8.66683V11.3335Z" fill="#272728"/>
<path id="Vector_3" opacity="0.4" d="M9.33335 14.6668H8.66669C7.33335 14.6668 6.66669 14.0002 6.66669 12.6668V3.3335C6.66669 2.00016 7.33335 1.3335 8.66669 1.3335H12.6667C14 1.3335 14.6667 2.00016 14.6667 3.3335V12.6668C14.6667 14.0002 14 14.6668 12.6667 14.6668H12" fill="#272728"/>
<path id="Vector_4" d="M12 12.0002V14.6668H9.33331V12.0002C9.33331 11.6335 9.63331 11.3335 9.99998 11.3335H11.3333C11.7 11.3335 12 11.6335 12 12.0002Z" fill="#272728"/>
<g id="Group">
<path id="Vector_5" d="M9.33331 9.16683C9.05998 9.16683 8.83331 8.94016 8.83331 8.66683V5.3335C8.83331 5.06016 9.05998 4.8335 9.33331 4.8335C9.60665 4.8335 9.83331 5.06016 9.83331 5.3335V8.66683C9.83331 8.94016 9.60665 9.16683 9.33331 9.16683Z" fill="#272728"/>
</g>
<g id="Group_2">
<path id="Vector_6" d="M12 9.16683C11.7267 9.16683 11.5 8.94016 11.5 8.66683V5.3335C11.5 5.06016 11.7267 4.8335 12 4.8335C12.2733 4.8335 12.5 5.06016 12.5 5.3335V8.66683C12.5 8.94016 12.2733 9.16683 12 9.16683Z" fill="#272728"/>
</g>
</g>
</g>
</svg>
