<svg width="72" height="40" viewBox="0 0 72 40" fill="none" xmlns="http://www.w3.org/2000/svg">
<g id="bus" clip-path="url(#clip0_268_6371)">
<path id="Vector" d="M4.66355 9.15014H3.55396V8.42238C3.55396 7.2838 4.48033 6.35742 5.61906 6.35742H12.5481V7.46702H5.61892C5.09213 7.46702 4.66341 7.8956 4.66341 8.42238V9.15014H4.66355Z" fill="url(#paint0_linear_268_6371)"/>
<path id="Vector_2" d="M4.10877 12.9445C3.62748 12.9445 3.23718 12.5543 3.23718 12.0729V8.66407C3.23718 8.18278 3.62734 7.79248 4.10877 7.79248C4.5902 7.79248 4.98036 8.18264 4.98036 8.66407V12.0729C4.98036 12.5543 4.59006 12.9445 4.10877 12.9445Z" fill="url(#paint1_linear_268_6371)"/>
<path id="Vector_3" d="M45.4526 5.54281H24.2385V4.04693C24.2385 3.39213 24.7693 2.86133 25.4241 2.86133H44.267C44.9218 2.86133 45.4526 3.39213 45.4526 4.04693V5.54281Z" fill="url(#paint2_linear_268_6371)"/>
<path id="Vector_4" d="M66.5241 4.03027H14.6653C9.73623 4.03027 5.69314 7.95395 5.56623 12.8814C5.52642 14.4239 5.41532 15.5838 4.67564 15.8988C3.79919 16.3005 3.23718 17.1761 3.23718 18.1402V32.0659H69.7778V7.28403C69.7778 5.48704 68.321 4.03027 66.5241 4.03027Z" fill="url(#paint3_linear_268_6371)"/>
<path id="Vector_5" d="M3.23718 18.375H69.7778V32.0659H3.23718V18.375Z" fill="url(#paint4_linear_268_6371)"/>
<path id="Vector_6" d="M24.2385 20.8384H69.7778V23.3015H24.2385V20.8384Z" fill="url(#paint5_linear_268_6371)"/>
<path id="Vector_7" d="M24.2385 6.25049H16.8108C11.8816 6.25049 7.83863 10.1742 7.71172 15.1016C7.67192 16.6441 7.71172 32.0657 7.71172 32.0657H24.2385V6.25049Z" fill="url(#paint6_linear_268_6371)"/>
<path id="Vector_8" d="M24.2385 32.0656H6.71008C6.71008 27.2251 10.6339 23.3013 15.4744 23.3013C16.3034 23.3013 17.1065 23.4161 17.8679 23.6329C21.5454 24.674 24.2385 28.0553 24.2385 32.0656Z" fill="url(#paint7_linear_268_6371)"/>
<path id="Vector_9" d="M69.0961 32.0656H51.5676C51.5676 27.2251 55.4914 23.3013 60.3319 23.3013C61.1609 23.3013 61.964 23.4161 62.7255 23.6329C66.4029 24.674 69.0961 28.0553 69.0961 32.0656Z" fill="url(#paint8_linear_268_6371)"/>
<path id="Vector_10" d="M5.25854 29.4463H68.151V32.4106H5.25854V29.4463Z" fill="url(#paint9_linear_268_6371)"/>
<path id="Vector_11" d="M15.4742 38.4018C18.9733 38.4018 21.8099 35.5652 21.8099 32.0661C21.8099 28.567 18.9733 25.7305 15.4742 25.7305C11.9751 25.7305 9.13855 28.567 9.13855 32.0661C9.13855 35.5652 11.9751 38.4018 15.4742 38.4018Z" fill="url(#paint10_radial_268_6371)"/>
<path id="Vector_12" d="M15.4742 36.1637C17.7373 36.1637 19.572 34.3291 19.572 32.066C19.572 29.8029 17.7373 27.9683 15.4742 27.9683C13.2111 27.9683 11.3765 29.8029 11.3765 32.066C11.3765 34.3291 13.2111 36.1637 15.4742 36.1637Z" fill="url(#paint11_linear_268_6371)"/>
<path id="Vector_13" d="M15.4742 35.7896C17.5306 35.7896 19.1976 34.1225 19.1976 32.0662C19.1976 30.0098 17.5306 28.3428 15.4742 28.3428C13.4179 28.3428 11.7509 30.0098 11.7509 32.0662C11.7509 34.1225 13.4179 35.7896 15.4742 35.7896Z" fill="url(#paint12_linear_268_6371)"/>
<path id="Vector_14" d="M15.4742 34.2295C16.6692 34.2295 17.6378 33.2608 17.6378 32.0659C17.6378 30.871 16.6692 29.9023 15.4742 29.9023C14.2793 29.9023 13.3107 30.871 13.3107 32.0659C13.3107 33.2608 14.2793 34.2295 15.4742 34.2295Z" fill="url(#paint13_linear_268_6371)"/>
<path id="Vector_15" d="M18.8205 33.6997L16.3874 31.2666C16.1648 31.0124 15.8387 30.8511 15.4742 30.8511C14.8033 30.8511 14.2596 31.3949 14.2596 32.0657C14.2596 32.4302 14.421 32.7562 14.6752 32.9789L17.1083 35.4119C17.8521 35.0481 18.4566 34.4435 18.8205 33.6997Z" fill="url(#paint14_linear_268_6371)"/>
<path id="Vector_16" d="M15.4742 33.2803C16.145 33.2803 16.6888 32.7365 16.6888 32.0657C16.6888 31.3949 16.145 30.8511 15.4742 30.8511C14.8034 30.8511 14.2596 31.3949 14.2596 32.0657C14.2596 32.7365 14.8034 33.2803 15.4742 33.2803Z" fill="url(#paint15_linear_268_6371)"/>
<path id="Vector_17" d="M15.4743 29.5706C15.7122 29.5706 15.9051 29.3777 15.9051 29.1398C15.9051 28.9019 15.7122 28.709 15.4743 28.709C15.2363 28.709 15.0435 28.9019 15.0435 29.1398C15.0435 29.3777 15.2363 29.5706 15.4743 29.5706Z" fill="url(#paint16_linear_268_6371)"/>
<path id="Vector_18" d="M15.4743 35.4226C15.7122 35.4226 15.9051 35.2298 15.9051 34.9918C15.9051 34.7539 15.7122 34.561 15.4743 34.561C15.2363 34.561 15.0435 34.7539 15.0435 34.9918C15.0435 35.2298 15.2363 35.4226 15.4743 35.4226Z" fill="url(#paint17_linear_268_6371)"/>
<path id="Vector_19" d="M18.4004 32.4969C18.6383 32.4969 18.8312 32.304 18.8312 32.0661C18.8312 31.8281 18.6383 31.6353 18.4004 31.6353C18.1625 31.6353 17.9696 31.8281 17.9696 32.0661C17.9696 32.304 18.1625 32.4969 18.4004 32.4969Z" fill="url(#paint18_linear_268_6371)"/>
<path id="Vector_20" d="M12.5481 32.4969C12.786 32.4969 12.9789 32.304 12.9789 32.0661C12.9789 31.8281 12.786 31.6353 12.5481 31.6353C12.3102 31.6353 12.1173 31.8281 12.1173 32.0661C12.1173 32.304 12.3102 32.4969 12.5481 32.4969Z" fill="url(#paint19_linear_268_6371)"/>
<path id="Vector_21" d="M17.5433 30.4275C17.7813 30.4275 17.9742 30.2346 17.9742 29.9967C17.9742 29.7588 17.7813 29.5659 17.5433 29.5659C17.3054 29.5659 17.1125 29.7588 17.1125 29.9967C17.1125 30.2346 17.3054 30.4275 17.5433 30.4275Z" fill="url(#paint20_linear_268_6371)"/>
<path id="Vector_22" d="M13.4051 34.5657C13.643 34.5657 13.8359 34.3728 13.8359 34.1349C13.8359 33.897 13.643 33.7041 13.4051 33.7041C13.1672 33.7041 12.9743 33.897 12.9743 34.1349C12.9743 34.3728 13.1672 34.5657 13.4051 34.5657Z" fill="url(#paint21_linear_268_6371)"/>
<path id="Vector_23" d="M13.4051 30.4275C13.643 30.4275 13.8359 30.2346 13.8359 29.9967C13.8359 29.7588 13.643 29.5659 13.4051 29.5659C13.1672 29.5659 12.9743 29.7588 12.9743 29.9967C12.9743 30.2346 13.1672 30.4275 13.4051 30.4275Z" fill="url(#paint22_linear_268_6371)"/>
<path id="Vector_24" d="M17.5433 34.5657C17.7813 34.5657 17.9742 34.3728 17.9742 34.1349C17.9742 33.897 17.7813 33.7041 17.5433 33.7041C17.3054 33.7041 17.1125 33.897 17.1125 34.1349C17.1125 34.3728 17.3054 34.5657 17.5433 34.5657Z" fill="url(#paint23_linear_268_6371)"/>
<path id="Vector_25" d="M60.3319 38.4018C63.831 38.4018 66.6676 35.5652 66.6676 32.0661C66.6676 28.567 63.831 25.7305 60.3319 25.7305C56.8328 25.7305 53.9963 28.567 53.9963 32.0661C53.9963 35.5652 56.8328 38.4018 60.3319 38.4018Z" fill="url(#paint24_radial_268_6371)"/>
<path id="Vector_26" d="M60.3319 36.1637C62.595 36.1637 64.4296 34.3291 64.4296 32.066C64.4296 29.8029 62.595 27.9683 60.3319 27.9683C58.0688 27.9683 56.2341 29.8029 56.2341 32.066C56.2341 34.3291 58.0688 36.1637 60.3319 36.1637Z" fill="url(#paint25_linear_268_6371)"/>
<path id="Vector_27" d="M60.3319 35.7896C62.3883 35.7896 64.0553 34.1225 64.0553 32.0662C64.0553 30.0098 62.3883 28.3428 60.3319 28.3428C58.2755 28.3428 56.6085 30.0098 56.6085 32.0662C56.6085 34.1225 58.2755 35.7896 60.3319 35.7896Z" fill="url(#paint26_linear_268_6371)"/>
<path id="Vector_28" d="M60.3319 34.2295C61.5268 34.2295 62.4955 33.2608 62.4955 32.0659C62.4955 30.871 61.5268 29.9023 60.3319 29.9023C59.137 29.9023 58.1683 30.871 58.1683 32.0659C58.1683 33.2608 59.137 34.2295 60.3319 34.2295Z" fill="url(#paint27_linear_268_6371)"/>
<path id="Vector_29" d="M63.6782 33.6997L61.2451 31.2666C61.0225 31.0124 60.6964 30.8511 60.3319 30.8511C59.661 30.8511 59.1172 31.3949 59.1172 32.0657C59.1172 32.4302 59.2785 32.7562 59.5327 32.9789L61.9658 35.4119C62.7098 35.0481 63.3142 34.4435 63.6782 33.6997Z" fill="url(#paint28_linear_268_6371)"/>
<path id="Vector_30" d="M60.3319 33.2803C61.0027 33.2803 61.5465 32.7365 61.5465 32.0657C61.5465 31.3949 61.0027 30.8511 60.3319 30.8511C59.6611 30.8511 59.1173 31.3949 59.1173 32.0657C59.1173 32.7365 59.6611 33.2803 60.3319 33.2803Z" fill="url(#paint29_linear_268_6371)"/>
<path id="Vector_31" d="M60.3319 29.5706C60.5698 29.5706 60.7627 29.3777 60.7627 29.1398C60.7627 28.9019 60.5698 28.709 60.3319 28.709C60.094 28.709 59.9011 28.9019 59.9011 29.1398C59.9011 29.3777 60.094 29.5706 60.3319 29.5706Z" fill="url(#paint30_linear_268_6371)"/>
<path id="Vector_32" d="M60.3319 35.4226C60.5698 35.4226 60.7627 35.2298 60.7627 34.9918C60.7627 34.7539 60.5698 34.561 60.3319 34.561C60.094 34.561 59.9011 34.7539 59.9011 34.9918C59.9011 35.2298 60.094 35.4226 60.3319 35.4226Z" fill="url(#paint31_linear_268_6371)"/>
<path id="Vector_33" d="M63.2582 32.4969C63.4961 32.4969 63.689 32.304 63.689 32.0661C63.689 31.8281 63.4961 31.6353 63.2582 31.6353C63.0203 31.6353 62.8274 31.8281 62.8274 32.0661C62.8274 32.304 63.0203 32.4969 63.2582 32.4969Z" fill="url(#paint32_linear_268_6371)"/>
<path id="Vector_34" d="M57.4058 32.4969C57.6437 32.4969 57.8366 32.304 57.8366 32.0661C57.8366 31.8281 57.6437 31.6353 57.4058 31.6353C57.1679 31.6353 56.975 31.8281 56.975 32.0661C56.975 32.304 57.1679 32.4969 57.4058 32.4969Z" fill="url(#paint33_linear_268_6371)"/>
<path id="Vector_35" d="M62.401 30.4275C62.6389 30.4275 62.8318 30.2346 62.8318 29.9967C62.8318 29.7588 62.6389 29.5659 62.401 29.5659C62.1631 29.5659 61.9702 29.7588 61.9702 29.9967C61.9702 30.2346 62.1631 30.4275 62.401 30.4275Z" fill="url(#paint34_linear_268_6371)"/>
<path id="Vector_36" d="M58.263 34.5657C58.5009 34.5657 58.6938 34.3728 58.6938 34.1349C58.6938 33.897 58.5009 33.7041 58.263 33.7041C58.025 33.7041 57.8322 33.897 57.8322 34.1349C57.8322 34.3728 58.025 34.5657 58.263 34.5657Z" fill="url(#paint35_linear_268_6371)"/>
<path id="Vector_37" d="M58.263 30.4275C58.5009 30.4275 58.6938 30.2346 58.6938 29.9967C58.6938 29.7588 58.5009 29.5659 58.263 29.5659C58.025 29.5659 57.8322 29.7588 57.8322 29.9967C57.8322 30.2346 58.025 30.4275 58.263 30.4275Z" fill="url(#paint36_linear_268_6371)"/>
<path id="Vector_38" d="M62.401 34.5657C62.6389 34.5657 62.8318 34.3728 62.8318 34.1349C62.8318 33.897 62.6389 33.7041 62.401 33.7041C62.1631 33.7041 61.9702 33.897 61.9702 34.1349C61.9702 34.3728 62.1631 34.5657 62.401 34.5657Z" fill="url(#paint37_linear_268_6371)"/>
<path id="Vector_39" d="M69.8287 25.0977H68.8077C68.1342 25.0977 67.5883 25.6436 67.5883 26.3172V28.7087H69.8287V25.0977Z" fill="url(#paint38_linear_268_6371)"/>
<path id="Vector_40" d="M4.16314 25.0977H3.23718V28.7087H5.38273V26.3172C5.38259 25.6437 4.83667 25.0977 4.16314 25.0977Z" fill="url(#paint39_linear_268_6371)"/>
<path id="Vector_41" d="M6.84658 33.1213H3.11403C2.22275 33.1213 1.50012 32.3987 1.50012 31.5074V29.5919C1.50012 28.7005 2.22275 27.978 3.11403 27.978H6.84658C7.73786 27.978 8.46049 28.7007 8.46049 29.5919V31.5074C8.46049 32.3987 7.73786 33.1213 6.84658 33.1213Z" fill="url(#paint40_linear_268_6371)"/>
<path id="Vector_42" d="M70.623 33.1213H68.7866C67.8954 33.1213 67.1727 32.3987 67.1727 31.5074V29.5919C67.1727 28.7005 67.8954 27.978 68.7866 27.978H70.623C71.5143 27.978 72.2369 28.7007 72.2369 29.5919V31.5074C72.2369 32.3987 71.5143 33.1213 70.623 33.1213Z" fill="url(#paint41_linear_268_6371)"/>
<path id="Vector_43" d="M66.6676 7.69241C66.6676 6.896 66.0219 6.25049 65.2255 6.25049H24.2385H18.8205H16.8109C11.8816 6.25049 7.83866 10.1742 7.71175 15.1016C7.68706 16.0614 7.69303 18.0565 7.70121 19.4267C7.70592 20.2198 8.35005 20.86 9.14313 20.86H16.4189C18.4478 20.86 20.4039 20.104 21.9053 18.7393C23.4067 17.3746 25.3628 16.6186 27.3917 16.6186H65.2257C66.0221 16.6186 66.6677 15.9729 66.6677 15.1766L66.6676 7.69241Z" fill="url(#paint42_linear_268_6371)"/>
<path id="Vector_44" d="M7.71174 15.1022C7.70245 15.4654 7.69745 16.596 7.69537 18.1126C7.69662 18.5762 7.69884 19.0281 7.7012 19.4267C7.70591 20.2198 8.35004 20.8601 9.14312 20.8601H16.4189C18.4478 20.8601 20.4039 20.1041 21.9053 18.7394C22.5984 18.1095 23.3892 17.6111 24.2386 17.2549V6.25049H16.811C13.2682 6.25049 10.1831 8.27745 8.68083 11.2473C8.41952 11.7638 8.2062 12.3088 8.04656 12.8766C7.96681 13.1605 7.90037 13.4501 7.84822 13.7447C7.82215 13.892 7.79968 14.0406 7.78067 14.1902C7.74281 14.4897 7.71965 14.7937 7.71174 15.1016V15.1022Z" fill="url(#paint43_linear_268_6371)"/>
<path id="Vector_45" d="M34.8463 6.25V16.6192H27.3912C26.3773 16.6192 25.3814 16.8078 24.4507 17.1684C24.38 17.1962 24.3079 17.2239 24.2385 17.2544V6.25H34.8463Z" fill="url(#paint44_linear_268_6371)"/>
<path id="Vector_46" d="M34.8463 6.25H45.4526V16.6192H34.8463V6.25Z" fill="url(#paint45_linear_268_6371)"/>
<path id="Vector_47" d="M45.4526 6.25H56.0604V16.6192H45.4526V6.25Z" fill="url(#paint46_linear_268_6371)"/>
<path id="Vector_48" d="M66.6682 7.69248V15.1767C66.6682 15.9728 66.0218 16.6192 65.2257 16.6192H56.0604V6.25H65.2257C66.0218 6.25 66.6682 6.89634 66.6682 7.69248Z" fill="url(#paint47_linear_268_6371)"/>
</g>
<defs>
<linearGradient id="paint0_linear_268_6371" x1="6.41297" y1="5.37127" x2="9.36048" y2="9.65834" gradientUnits="userSpaceOnUse">
<stop stop-color="#FF4974"/>
<stop offset="0.2231" stop-color="#FB3F6C"/>
<stop offset="0.6075" stop-color="#F12357"/>
<stop offset="1" stop-color="#E4003D"/>
</linearGradient>
<linearGradient id="paint1_linear_268_6371" x1="3.7193" y1="10.3686" x2="5.1081" y2="10.3686" gradientUnits="userSpaceOnUse">
<stop stop-color="#4F4A72"/>
<stop offset="1" stop-color="#3B395F"/>
</linearGradient>
<linearGradient id="paint2_linear_268_6371" x1="33.9515" y1="2.4075" x2="35.9439" y2="7.47642" gradientUnits="userSpaceOnUse">
<stop stop-color="#FF4974"/>
<stop offset="0.2231" stop-color="#FB3F6C"/>
<stop offset="0.6075" stop-color="#F12357"/>
<stop offset="1" stop-color="#E4003D"/>
</linearGradient>
<linearGradient id="paint3_linear_268_6371" x1="32.9451" y1="10.3024" x2="42.3767" y2="34.2975" gradientUnits="userSpaceOnUse">
<stop stop-color="#FF4974"/>
<stop offset="0.2231" stop-color="#FB3F6C"/>
<stop offset="0.6075" stop-color="#F12357"/>
<stop offset="1" stop-color="#E4003D"/>
</linearGradient>
<linearGradient id="paint4_linear_268_6371" x1="34.9518" y1="18.6868" x2="39.1128" y2="36.163" gradientUnits="userSpaceOnUse">
<stop stop-color="#FF4974"/>
<stop offset="0.2231" stop-color="#FB3F6C"/>
<stop offset="0.6075" stop-color="#F12357"/>
<stop offset="1" stop-color="#E4003D"/>
</linearGradient>
<linearGradient id="paint5_linear_268_6371" x1="46.3073" y1="19.1263" x2="48.182" y2="26.9998" gradientUnits="userSpaceOnUse">
<stop stop-color="#D4F7FF"/>
<stop offset="1" stop-color="#A2E3E9"/>
</linearGradient>
<linearGradient id="paint6_linear_268_6371" x1="12.7476" y1="7.55773" x2="21.62" y2="39.447" gradientUnits="userSpaceOnUse">
<stop stop-color="#FF4974"/>
<stop offset="0.2231" stop-color="#FB3F6C"/>
<stop offset="0.6075" stop-color="#F12357"/>
<stop offset="1" stop-color="#E4003D"/>
</linearGradient>
<linearGradient id="paint7_linear_268_6371" x1="15.4744" y1="21.5545" x2="15.4744" y2="40.3407" gradientUnits="userSpaceOnUse">
<stop stop-color="#A34A9E" stop-opacity="0"/>
<stop offset="1" stop-color="#343168"/>
</linearGradient>
<linearGradient id="paint8_linear_268_6371" x1="60.3319" y1="21.5545" x2="60.3319" y2="40.3407" gradientUnits="userSpaceOnUse">
<stop stop-color="#A34A9E" stop-opacity="0"/>
<stop offset="1" stop-color="#343168"/>
</linearGradient>
<linearGradient id="paint9_linear_268_6371" x1="36.7047" y1="29.647" x2="36.7047" y2="33.4009" gradientUnits="userSpaceOnUse">
<stop stop-color="#FF4974"/>
<stop offset="0.2231" stop-color="#FB3F6C"/>
<stop offset="0.6075" stop-color="#F12357"/>
<stop offset="1" stop-color="#E4003D"/>
</linearGradient>
<radialGradient id="paint10_radial_268_6371" cx="0" cy="0" r="1" gradientUnits="userSpaceOnUse" gradientTransform="translate(14.5917 30.2379) scale(7.87315)">
<stop stop-color="#A34A9E"/>
<stop offset="0.1551" stop-color="#9B489A"/>
<stop offset="0.4019" stop-color="#84438F"/>
<stop offset="0.7073" stop-color="#5E3B7D"/>
<stop offset="1" stop-color="#343168"/>
</radialGradient>
<linearGradient id="paint11_linear_268_6371" x1="20.1659" y1="36.7577" x2="11.4738" y2="28.0656" gradientUnits="userSpaceOnUse">
<stop stop-color="#A34A9E"/>
<stop offset="1" stop-color="#343168"/>
</linearGradient>
<linearGradient id="paint12_linear_268_6371" x1="11.211" y1="27.803" x2="19.1093" y2="35.7012" gradientUnits="userSpaceOnUse">
<stop stop-color="#D4F7FF"/>
<stop offset="1" stop-color="#A2E3E9"/>
</linearGradient>
<linearGradient id="paint13_linear_268_6371" x1="17.9514" y1="34.5431" x2="13.3621" y2="29.9537" gradientUnits="userSpaceOnUse">
<stop stop-color="#D4F7FF"/>
<stop offset="1" stop-color="#A2E3E9"/>
</linearGradient>
<linearGradient id="paint14_linear_268_6371" x1="18.6369" y1="35.2283" x2="15.077" y2="31.6684" gradientUnits="userSpaceOnUse">
<stop stop-color="#A2E3E9" stop-opacity="0"/>
<stop offset="1" stop-color="#518CD2"/>
</linearGradient>
<linearGradient id="paint15_linear_268_6371" x1="15.2221" y1="31.8135" x2="16.5034" y2="33.0948" gradientUnits="userSpaceOnUse">
<stop stop-color="#4F4A72"/>
<stop offset="1" stop-color="#3B395F"/>
</linearGradient>
<linearGradient id="paint16_linear_268_6371" x1="15.2483" y1="28.9138" x2="15.7793" y2="29.4446" gradientUnits="userSpaceOnUse">
<stop stop-color="#4F4A72"/>
<stop offset="1" stop-color="#3B395F"/>
</linearGradient>
<linearGradient id="paint17_linear_268_6371" x1="15.2483" y1="34.7659" x2="15.7793" y2="35.2968" gradientUnits="userSpaceOnUse">
<stop stop-color="#4F4A72"/>
<stop offset="1" stop-color="#3B395F"/>
</linearGradient>
<linearGradient id="paint18_linear_268_6371" x1="18.6263" y1="31.8401" x2="18.0955" y2="32.3709" gradientUnits="userSpaceOnUse">
<stop stop-color="#4F4A72"/>
<stop offset="1" stop-color="#3B395F"/>
</linearGradient>
<linearGradient id="paint19_linear_268_6371" x1="12.7741" y1="31.8401" x2="12.2431" y2="32.3709" gradientUnits="userSpaceOnUse">
<stop stop-color="#4F4A72"/>
<stop offset="1" stop-color="#3B395F"/>
</linearGradient>
<linearGradient id="paint20_linear_268_6371" x1="17.5325" y1="29.6806" x2="17.5326" y2="30.4312" gradientUnits="userSpaceOnUse">
<stop stop-color="#4F4A72"/>
<stop offset="1" stop-color="#3B395F"/>
</linearGradient>
<linearGradient id="paint21_linear_268_6371" x1="13.3949" y1="33.8181" x2="13.3949" y2="34.5688" gradientUnits="userSpaceOnUse">
<stop stop-color="#4F4A72"/>
<stop offset="1" stop-color="#3B395F"/>
</linearGradient>
<linearGradient id="paint22_linear_268_6371" x1="13.3802" y1="29.6806" x2="13.3803" y2="30.4312" gradientUnits="userSpaceOnUse">
<stop stop-color="#4F4A72"/>
<stop offset="1" stop-color="#3B395F"/>
</linearGradient>
<linearGradient id="paint23_linear_268_6371" x1="17.5178" y1="33.8182" x2="17.5178" y2="34.5687" gradientUnits="userSpaceOnUse">
<stop stop-color="#4F4A72"/>
<stop offset="1" stop-color="#3B395F"/>
</linearGradient>
<radialGradient id="paint24_radial_268_6371" cx="0" cy="0" r="1" gradientUnits="userSpaceOnUse" gradientTransform="translate(59.4494 30.2379) scale(7.87315)">
<stop stop-color="#A34A9E"/>
<stop offset="0.1551" stop-color="#9B489A"/>
<stop offset="0.4019" stop-color="#84438F"/>
<stop offset="0.7073" stop-color="#5E3B7D"/>
<stop offset="1" stop-color="#343168"/>
</radialGradient>
<linearGradient id="paint25_linear_268_6371" x1="65.0235" y1="36.7577" x2="56.3316" y2="28.0656" gradientUnits="userSpaceOnUse">
<stop stop-color="#A34A9E"/>
<stop offset="1" stop-color="#343168"/>
</linearGradient>
<linearGradient id="paint26_linear_268_6371" x1="56.0688" y1="27.803" x2="63.967" y2="35.7012" gradientUnits="userSpaceOnUse">
<stop stop-color="#D4F7FF"/>
<stop offset="1" stop-color="#A2E3E9"/>
</linearGradient>
<linearGradient id="paint27_linear_268_6371" x1="62.8092" y1="34.5431" x2="58.2198" y2="29.9537" gradientUnits="userSpaceOnUse">
<stop stop-color="#D4F7FF"/>
<stop offset="1" stop-color="#A2E3E9"/>
</linearGradient>
<linearGradient id="paint28_linear_268_6371" x1="63.4946" y1="35.2283" x2="59.9347" y2="31.6684" gradientUnits="userSpaceOnUse">
<stop stop-color="#A2E3E9" stop-opacity="0"/>
<stop offset="1" stop-color="#518CD2"/>
</linearGradient>
<linearGradient id="paint29_linear_268_6371" x1="60.0797" y1="31.8135" x2="61.3612" y2="33.0948" gradientUnits="userSpaceOnUse">
<stop stop-color="#4F4A72"/>
<stop offset="1" stop-color="#3B395F"/>
</linearGradient>
<linearGradient id="paint30_linear_268_6371" x1="60.1061" y1="28.9138" x2="60.6369" y2="29.4446" gradientUnits="userSpaceOnUse">
<stop stop-color="#4F4A72"/>
<stop offset="1" stop-color="#3B395F"/>
</linearGradient>
<linearGradient id="paint31_linear_268_6371" x1="60.1061" y1="34.7659" x2="60.6369" y2="35.2968" gradientUnits="userSpaceOnUse">
<stop stop-color="#4F4A72"/>
<stop offset="1" stop-color="#3B395F"/>
</linearGradient>
<linearGradient id="paint32_linear_268_6371" x1="63.484" y1="31.8401" x2="62.9532" y2="32.3709" gradientUnits="userSpaceOnUse">
<stop stop-color="#4F4A72"/>
<stop offset="1" stop-color="#3B395F"/>
</linearGradient>
<linearGradient id="paint33_linear_268_6371" x1="57.6317" y1="31.8401" x2="57.1009" y2="32.3709" gradientUnits="userSpaceOnUse">
<stop stop-color="#4F4A72"/>
<stop offset="1" stop-color="#3B395F"/>
</linearGradient>
<linearGradient id="paint34_linear_268_6371" x1="62.384" y1="29.6806" x2="62.3839" y2="30.4312" gradientUnits="userSpaceOnUse">
<stop stop-color="#4F4A72"/>
<stop offset="1" stop-color="#3B395F"/>
</linearGradient>
<linearGradient id="paint35_linear_268_6371" x1="58.2463" y1="33.8181" x2="58.2464" y2="34.5687" gradientUnits="userSpaceOnUse">
<stop stop-color="#4F4A72"/>
<stop offset="1" stop-color="#3B395F"/>
</linearGradient>
<linearGradient id="paint36_linear_268_6371" x1="58.2316" y1="29.6806" x2="58.2317" y2="30.4312" gradientUnits="userSpaceOnUse">
<stop stop-color="#4F4A72"/>
<stop offset="1" stop-color="#3B395F"/>
</linearGradient>
<linearGradient id="paint37_linear_268_6371" x1="62.3692" y1="33.8182" x2="62.3692" y2="34.5687" gradientUnits="userSpaceOnUse">
<stop stop-color="#4F4A72"/>
<stop offset="1" stop-color="#3B395F"/>
</linearGradient>
<linearGradient id="paint38_linear_268_6371" x1="67.3982" y1="25.326" x2="69.5301" y2="27.8922" gradientUnits="userSpaceOnUse">
<stop stop-color="#FFE548"/>
<stop offset="0.1758" stop-color="#FFDE50"/>
<stop offset="0.4446" stop-color="#FFCA65"/>
<stop offset="0.7709" stop-color="#FFAA87"/>
<stop offset="1" stop-color="#FF90A4"/>
</linearGradient>
<linearGradient id="paint39_linear_268_6371" x1="3.99407" y1="24.8018" x2="4.55025" y2="29.5119" gradientUnits="userSpaceOnUse">
<stop stop-color="#FFE548"/>
<stop offset="0.1758" stop-color="#FFDE50"/>
<stop offset="0.4446" stop-color="#FFCA65"/>
<stop offset="0.7709" stop-color="#FFAA87"/>
<stop offset="1" stop-color="#FF90A4"/>
</linearGradient>
<linearGradient id="paint40_linear_268_6371" x1="4.98038" y1="27.97" x2="4.98038" y2="31.6798" gradientUnits="userSpaceOnUse">
<stop stop-color="#D4F7FF"/>
<stop offset="1" stop-color="#A2E3E9"/>
</linearGradient>
<linearGradient id="paint41_linear_268_6371" x1="69.7048" y1="27.97" x2="69.7048" y2="31.6798" gradientUnits="userSpaceOnUse">
<stop stop-color="#D4F7FF"/>
<stop offset="1" stop-color="#A2E3E9"/>
</linearGradient>
<linearGradient id="paint42_linear_268_6371" x1="33.8607" y1="1.60946" x2="41.4796" y2="28.9935" gradientUnits="userSpaceOnUse">
<stop stop-color="#4F4A72"/>
<stop offset="1" stop-color="#3B395F"/>
</linearGradient>
<linearGradient id="paint43_linear_268_6371" x1="13.5528" y1="9.54294" x2="20.6728" y2="19.8991" gradientUnits="userSpaceOnUse">
<stop stop-color="#4F4A72"/>
<stop offset="1" stop-color="#3B395F"/>
</linearGradient>
<linearGradient id="paint44_linear_268_6371" x1="28.3572" y1="9.61056" x2="32.1642" y2="16.4898" gradientUnits="userSpaceOnUse">
<stop stop-color="#4F4A72"/>
<stop offset="1" stop-color="#3B395F"/>
</linearGradient>
<linearGradient id="paint45_linear_268_6371" x1="39.0988" y1="9.53607" x2="42.9057" y2="16.4152" gradientUnits="userSpaceOnUse">
<stop stop-color="#4F4A72"/>
<stop offset="1" stop-color="#3B395F"/>
</linearGradient>
<linearGradient id="paint46_linear_268_6371" x1="49.7059" y1="9.53607" x2="53.5129" y2="16.4153" gradientUnits="userSpaceOnUse">
<stop stop-color="#4F4A72"/>
<stop offset="1" stop-color="#3B395F"/>
</linearGradient>
<linearGradient id="paint47_linear_268_6371" x1="59.9999" y1="9.50403" x2="63.6681" y2="16.1325" gradientUnits="userSpaceOnUse">
<stop stop-color="#4F4A72"/>
<stop offset="1" stop-color="#3B395F"/>
</linearGradient>
<clipPath id="clip0_268_6371">
<rect width="71" height="40" fill="white" transform="translate(0.5)"/>
</clipPath>
</defs>
</svg>
