<svg width="125" height="25" viewBox="0 0 125 25" fill="none" xmlns="http://www.w3.org/2000/svg">
<circle cx="2.76701" cy="12.5" r="1.94781" stroke="#C7C7C7" stroke-width="1.29854"/>
<path d="M6.6626 12.5001L45.6189 12.5001" stroke="#C7C7C7" stroke-width="0.649272" stroke-linecap="round" stroke-dasharray="3.9 3.9"/>
<path opacity="0.4" d="M55.0738 4.3793C56.3286 3.25158 58.8114 1.625 62.6473 1.625C66.4832 1.625 68.9661 3.25158 70.2209 4.3793L70.246 4.40191C70.5861 4.70737 70.8898 4.98012 71.1437 5.5501C71.3985 6.12236 71.3979 6.62699 71.3973 7.17827L71.3972 14.3688C71.3972 15.6891 71.3973 16.7778 71.2818 17.6394C71.1605 18.5441 70.8961 19.343 70.2582 19.9827C69.6203 20.6224 68.8237 20.8876 67.9216 21.0092C67.0624 21.1251 65.9768 21.125 64.6603 21.125H60.6343C59.3178 21.125 58.2323 21.1251 57.3731 21.0092C56.471 20.8876 55.6744 20.6224 55.0365 19.9827C54.3986 19.343 54.1342 18.5441 54.0129 17.6394C53.8974 16.7778 53.8974 15.6891 53.8975 14.3688L53.8974 7.17827C53.8968 6.62699 53.8962 6.12235 54.151 5.5501C54.4049 4.98012 54.7085 4.70737 55.0487 4.40191L55.0738 4.3793Z" fill="#161616"/>
<path d="M68.8533 7.125H56.4429C56.16 7.125 56.0186 7.125 55.9307 7.21286C55.8429 7.30073 55.8429 7.44214 55.8429 7.72498L55.8427 13.3951C55.8426 13.6289 55.8426 13.7458 55.911 13.8289C55.9794 13.912 56.0927 13.9342 56.3193 13.9786C56.5774 14.0291 56.8643 14.0822 57.176 14.1353C58.616 14.3808 60.5717 14.6247 62.65 14.6247C64.7282 14.6247 66.684 14.3808 68.1239 14.1353C68.4341 14.0825 68.7197 14.0296 68.9768 13.9793C69.2034 13.935 69.3168 13.9128 69.3851 13.8297C69.4535 13.7466 69.4535 13.6297 69.4535 13.3958L69.4533 7.72498C69.4533 7.44214 69.4533 7.30073 69.3654 7.21286C69.2776 7.125 69.1362 7.125 68.8533 7.125Z" fill="#161616"/>
<path d="M56.6493 20.8748L56.6493 20.8702C56.8817 20.9307 57.1233 20.9754 57.3731 21.0091C57.7539 21.0604 58.1791 21.089 58.6493 21.1049V22.3748C58.6493 22.9271 58.2016 23.3748 57.6493 23.3748C57.097 23.3748 56.6493 22.9271 56.6493 22.3748V20.8748Z" fill="#161616"/>
<path d="M66.6493 22.3748V21.1048C67.1179 21.0888 67.5419 21.0603 67.9216 21.0091C68.1727 20.9752 68.4157 20.9302 68.6493 20.8691L68.6493 20.8748V22.3748C68.6493 22.9271 68.2016 23.3748 67.6493 23.3748C67.097 23.3748 66.6493 22.9271 66.6493 22.3748Z" fill="#161616"/>
<path d="M63.6493 18.625H61.6493C61.2351 18.625 60.8993 18.2892 60.8993 17.875C60.8993 17.4608 61.2351 17.125 61.6493 17.125H63.6493C64.0635 17.125 64.3993 17.4608 64.3993 17.875C64.3993 18.2892 64.0635 18.625 63.6493 18.625Z" fill="#161616"/>
<path d="M55.8993 17.875C55.8993 17.4608 56.2351 17.125 56.6493 17.125H57.1493C57.5635 17.125 57.8993 17.4608 57.8993 17.875C57.8993 18.2892 57.5635 18.625 57.1493 18.625H56.6493C56.2351 18.625 55.8993 18.2892 55.8993 17.875Z" fill="#161616"/>
<path d="M67.3993 17.875C67.3993 17.4608 67.7351 17.125 68.1493 17.125H68.6493C69.0635 17.125 69.3993 17.4608 69.3993 17.875C69.3993 18.2892 69.0635 18.625 68.6493 18.625H68.1493C67.7351 18.625 67.3993 18.2892 67.3993 17.875Z" fill="#161616"/>
<path d="M53.1493 9.375C53.1493 8.82272 52.7016 8.375 52.1493 8.375C51.597 8.375 51.1493 8.82272 51.1493 9.375V10.375C51.1493 10.9273 51.597 11.375 52.1493 11.375C52.7016 11.375 53.1493 10.9273 53.1493 10.375V9.375Z" fill="#161616"/>
<path d="M74.1493 9.375C74.1493 8.82272 73.7016 8.375 73.1493 8.375C72.597 8.375 72.1493 8.82272 72.1493 9.375V10.375C72.1493 10.9273 72.597 11.375 73.1493 11.375C73.7016 11.375 74.1493 10.9273 74.1493 10.375V9.375Z" fill="#161616"/>
<circle cx="122.233" cy="12.5" r="1.94781" transform="rotate(-180 122.233 12.5)" stroke="#C7C7C7" stroke-width="1.29854"/>
<path d="M118.636 12.5H79.6796" stroke="#C7C7C7" stroke-width="0.649272" stroke-linecap="round" stroke-dasharray="3.9 3.9"/>
</svg>
