<svg width="80" height="31" viewBox="0 0 80 31" fill="none" xmlns="http://www.w3.org/2000/svg">
<g id="Frame 1000002912">
<path id="Vector" d="M60.8972 9.86025V9.50597C61.4056 8.93697 61.9656 8.4164 62.5703 7.95101C63.5174 7.89681 64.4648 8.05137 65.3455 8.40373C65.4237 8.81338 65.4237 9.23412 65.3455 9.64376C64.5666 9.90308 63.7612 10.0747 62.9442 10.1555C62.2571 10.0937 61.5738 9.99508 60.8972 9.86025Z" fill="#EBEBEB"/>
<path id="Vector_2" d="M60.7537 9.50586V9.86014L59.868 10.549V10.7656H59.002V9.50586C59.1263 9.57916 59.2583 9.63856 59.3956 9.683C59.6515 9.70268 60.7537 9.50586 60.7537 9.50586Z" fill="#EBEBEB"/>
<g id="Group" opacity="0.1">
<path id="Vector_3" d="M60.8879 9.86025V9.50597C61.3963 8.93697 61.9564 8.4164 62.561 7.95101C63.5081 7.89681 64.4555 8.05137 65.3363 8.40373C65.4144 8.81338 65.4144 9.23412 65.3363 9.64376C64.5573 9.90308 63.7519 10.0747 62.9349 10.1555C62.2478 10.0937 61.5645 9.99508 60.8879 9.86025Z" fill="black"/>
<path id="Vector_4" d="M60.7513 9.50586V9.86014L59.8656 10.549V10.7656H58.9995V9.50586C59.1238 9.57916 59.2559 9.63856 59.3932 9.683C59.6491 9.70268 60.7513 9.50586 60.7513 9.50586Z" fill="black"/>
</g>
<path id="Vector_5" d="M44.7522 23.2031C44.7522 26.5689 43.3351 30.7023 40.3433 30.7023C40.048 30.7023 36.0524 30.7023 35.7769 30.7023C33.3755 29.8953 31.9584 25.506 32.2142 21.6285C32.4307 18.617 33.3952 15.2512 35.9146 14.8379H40.4614C43.4728 14.8379 44.8703 19.5618 44.7522 23.2031Z" fill="#263238"/>
<path id="Vector_6" d="M39.9728 23.2031C39.8744 26.5689 38.536 30.7023 35.5442 30.7023C32.5524 30.7023 31.1943 25.939 31.4895 21.6285C31.7257 18.4202 32.7492 14.8379 35.682 14.8379C38.6147 14.8379 40.0712 19.5618 39.9728 23.2031Z" fill="#37474F"/>
<path id="Vector_7" d="M38.7297 23.0515C38.7297 25.6496 37.6472 28.8383 35.4427 28.8383C33.2382 28.8383 32.2343 25.1576 32.4705 21.8509C32.628 19.3708 33.4153 16.6152 35.5608 16.6152C37.7062 16.6152 38.8084 20.3156 38.7297 23.0515Z" fill="#C7C7C7"/>
<path id="Vector_8" d="M34.8545 17.1394C34.865 18.6257 35.0099 20.1079 35.2875 21.568C35.7363 20.156 36.059 18.7069 36.252 17.2378C36.015 17.1131 35.7521 17.0457 35.4843 17.041C35.2706 17.0417 35.0582 17.0748 34.8545 17.1394Z" fill="#263238"/>
<path id="Vector_9" d="M35.7 21.8458C36.4637 21.0814 37.1253 20.2213 37.6682 19.287C37.4969 18.8155 37.2583 18.3713 36.9597 17.9683C36.4104 19.2151 35.9884 20.5142 35.7 21.8458Z" fill="#263238"/>
<path id="Vector_10" d="M35.9191 22.2403C36.7188 22.0668 37.4839 21.7608 38.1827 21.3349C38.1827 20.9019 38.0449 20.4885 37.9465 20.0752C36.982 20.9609 35.8404 22.0632 35.9191 22.2403Z" fill="#263238"/>
<path id="Vector_11" d="M36.0083 22.7125C36.7193 23.023 37.4782 23.2094 38.2521 23.2636V23.0471C38.2816 22.7 38.2816 22.351 38.2521 22.0039C37.4657 22.0942 36.704 22.3347 36.0083 22.7125Z" fill="#263238"/>
<path id="Vector_12" d="M37.9181 25.4684C38.0384 24.9954 38.1304 24.5155 38.1937 24.0316C37.1702 23.5592 35.9695 23.0474 35.8711 23.2048C36.4535 24.044 37.1415 24.8048 37.9181 25.4684Z" fill="#263238"/>
<path id="Vector_13" d="M36.6483 27.8892C37.069 27.4772 37.3977 26.9808 37.6128 26.4327C36.9436 25.3108 35.8217 23.4409 35.6445 23.559C35.8559 25.0283 36.1917 26.4769 36.6483 27.8892Z" fill="#263238"/>
<path id="Vector_14" d="M34.3389 28.0895C34.6224 28.304 34.9675 28.4213 35.323 28.4242H35.7364C35.7346 26.8984 35.5896 25.3761 35.3033 23.8774C34.8618 25.2513 34.5391 26.6605 34.3389 28.0895Z" fill="#263238"/>
<path id="Vector_15" d="M33.082 25.9639C33.2161 26.4476 33.4147 26.911 33.6725 27.3417C34.2017 26.1898 34.5979 24.9814 34.8535 23.7397C34.169 24.4011 33.5735 25.1488 33.082 25.9639Z" fill="#263238"/>
<path id="Vector_16" d="M32.7219 24.0316C32.7524 24.4148 32.805 24.796 32.8794 25.1732C33.7258 24.3859 34.5721 23.5198 34.5131 23.3624C34.454 23.2049 33.6077 23.6183 32.7219 24.0316Z" fill="#263238"/>
<path id="Vector_17" d="M32.6887 22.3193C32.6689 22.6799 32.6689 23.0413 32.6887 23.4019C33.5745 23.205 34.4011 22.9886 34.4011 22.8311C34.4011 22.6736 33.5745 22.4965 32.6887 22.3193Z" fill="#263238"/>
<path id="Vector_18" d="M32.7219 21.651C33.588 22.0643 34.4343 22.4186 34.5131 22.2808C34.5918 22.143 33.706 21.1589 32.9187 20.3125C32.822 20.7535 32.7563 21.2008 32.7219 21.651Z" fill="#263238"/>
<path id="Vector_19" d="M33.1667 19.365C33.7966 20.4673 34.702 21.9435 34.8595 21.8451C34.6952 20.4764 34.4053 19.1256 33.9934 17.8101C33.6143 18.2663 33.3329 18.7956 33.1667 19.365Z" fill="#263238"/>
<path id="Vector_20" d="M78.6056 23.2031C78.5072 26.5689 77.1688 30.7023 74.1967 30.7023C73.9014 30.7023 69.8861 30.7023 69.6303 30.7023C67.229 29.8953 65.6937 25.506 66.0677 21.6285C66.2842 18.617 67.229 15.2512 69.7484 14.8379H74.3148C77.3066 14.8379 78.6056 19.5618 78.6056 23.2031Z" fill="#263238"/>
<path id="Vector_21" d="M73.7803 23.2031C73.7803 26.5689 72.3631 30.7023 69.3713 30.7023C66.3795 30.7023 65.0214 25.939 65.3167 21.6285C65.5332 18.4202 66.5763 14.8379 69.4894 14.8379C72.4025 14.8379 73.8984 19.5618 73.7803 23.2031Z" fill="#37474F"/>
<path id="Vector_22" d="M72.5452 23.0515C72.5452 25.6496 71.4823 28.8383 69.2582 28.8383C67.034 28.8383 66.0695 25.1576 66.2861 21.8509C66.4632 19.3708 67.2308 16.6152 69.396 16.6152C71.5611 16.6152 72.7027 20.3156 72.5452 23.0515Z" fill="#C7C7C7"/>
<path id="Vector_23" d="M68.7712 17.1394C68.7615 18.6266 68.9066 20.1109 69.2042 21.568C69.653 20.156 69.9758 18.7069 70.1687 17.2378C69.9256 17.1108 69.6557 17.0434 69.3814 17.041C69.1742 17.0433 68.9686 17.0765 68.7712 17.1394Z" fill="#263238"/>
<path id="Vector_24" d="M69.5347 21.8458C70.2903 21.0743 70.9511 20.2152 71.503 19.287C71.3474 18.8086 71.1074 18.362 70.7944 17.9683C70.2414 19.2137 69.8192 20.5132 69.5347 21.8458Z" fill="#263238"/>
<path id="Vector_25" d="M69.7429 22.2403C70.5404 22.0597 71.3044 21.7542 72.0064 21.3349C72.0064 20.9019 71.8686 20.4885 71.7702 20.0752C70.727 20.9609 69.6642 22.0632 69.7429 22.2403Z" fill="#263238"/>
<path id="Vector_26" d="M69.8503 22.7125C70.5603 23.026 71.3198 23.2126 72.0942 23.2636V23.0471C72.1138 22.6996 72.1138 22.3514 72.0942 22.0039C71.3078 22.0942 70.546 22.3347 69.8503 22.7125Z" fill="#263238"/>
<path id="Vector_27" d="M71.7565 25.4684C71.8798 24.997 71.9654 24.5165 72.0124 24.0316C70.9889 23.5592 69.8079 23.0474 69.7095 23.2048C70.2855 24.0491 70.9743 24.8107 71.7565 25.4684Z" fill="#263238"/>
<path id="Vector_28" d="M70.4771 27.8878C70.8965 27.4787 71.2193 26.9811 71.4219 26.4313C70.899 25.3886 70.2369 24.4219 69.4536 23.5576C69.6617 25.0293 70.0043 26.4787 70.4771 27.8878Z" fill="#263238"/>
<path id="Vector_29" d="M68.1741 28.0895C68.4562 28.3066 68.8022 28.4242 69.1582 28.4242H69.5519C69.56 26.8979 69.4149 25.3747 69.1188 23.8774C68.6956 25.255 68.3798 26.6632 68.1741 28.0895Z" fill="#263238"/>
<path id="Vector_30" d="M66.894 25.9639C67.0258 26.4517 67.2316 26.9163 67.5042 27.3417C68.0334 26.1898 68.4296 24.9814 68.6852 23.7397C67.9919 24.3982 67.3895 25.1462 66.894 25.9639Z" fill="#263238"/>
<path id="Vector_31" d="M66.5422 24.0316C66.5789 24.4153 66.6381 24.7964 66.7194 25.1732C67.5461 24.3859 68.4121 23.5198 68.3531 23.3624C68.294 23.2049 67.4476 23.6183 66.5422 24.0316Z" fill="#263238"/>
<path id="Vector_32" d="M66.5046 22.3193V23.4019C67.3904 23.205 68.217 22.9886 68.2367 22.8311C68.2564 22.6736 67.41 22.4965 66.5046 22.3193Z" fill="#263238"/>
<path id="Vector_33" d="M66.564 21.651C67.4103 22.0643 68.2764 22.4186 68.3551 22.2808C68.4338 22.143 67.5284 21.1589 66.7411 20.3125C66.6624 20.7652 66.6033 21.1983 66.564 21.651Z" fill="#263238"/>
<path id="Vector_34" d="M66.991 19.365C67.6208 20.4673 68.5065 21.9435 68.664 21.8451C68.5192 20.4749 68.2356 19.1229 67.8176 17.8101C67.4385 18.2663 67.1571 18.7956 66.991 19.365Z" fill="#263238"/>
<path id="Vector_35" d="M13.9919 23.2031C13.9919 26.5689 12.555 30.7023 9.56324 30.7023C9.28768 30.7023 5.27238 30.7023 5.0165 30.7023C2.61519 29.8953 1.07994 25.506 1.45391 21.6285C1.67042 18.617 2.61519 15.2512 5.13459 14.8379H9.7207C12.7125 14.8379 14.0903 19.5618 13.9919 23.2031Z" fill="#263238"/>
<path id="Vector_36" d="M9.17848 23.2031C9.17848 26.5689 7.76133 30.7023 4.76954 30.7023C1.77775 30.7023 0.419605 25.939 0.714848 21.6285C0.931359 18.4202 1.97457 14.8379 4.88763 14.8379C7.80069 14.8379 9.27689 19.5618 9.17848 23.2031Z" fill="#37474F"/>
<path id="Vector_37" d="M7.9404 23.0515C7.9404 25.6496 6.8775 28.8383 4.65334 28.8383C2.42918 28.8383 1.44505 25.1576 1.68124 21.8509C1.85839 19.3708 2.62602 16.6152 4.79114 16.6152C6.95625 16.6152 8.01913 20.3156 7.9404 23.0515Z" fill="#C7C7C7"/>
<path id="Vector_38" d="M4.08761 17.1394C4.07792 18.6266 4.22304 20.1109 4.52064 21.568C4.96943 20.156 5.29219 18.7069 5.48511 17.2378C5.24119 17.1128 4.97182 17.0455 4.69778 17.041C4.49063 17.0433 4.28499 17.0765 4.08761 17.1394Z" fill="#263238"/>
<path id="Vector_39" d="M4.93286 21.8458C5.68849 21.0743 6.34927 20.2152 6.90115 19.287C6.73781 18.812 6.4985 18.3666 6.19256 17.9683C5.63957 19.2137 5.21741 20.5132 4.93286 21.8458Z" fill="#263238"/>
<path id="Vector_40" d="M5.13306 22.2403C5.9384 22.065 6.70966 21.7592 7.41627 21.3349C7.3614 20.9094 7.27588 20.4884 7.16039 20.0752C6.38796 20.6999 5.70571 21.4285 5.13306 22.2403Z" fill="#263238"/>
<path id="Vector_41" d="M5.25171 22.7141C5.95416 23.0294 6.7075 23.2161 7.47588 23.2652C7.48543 23.2066 7.48543 23.1468 7.47588 23.0881C7.47588 22.7338 7.47588 22.3992 7.47588 22.0449C6.69886 22.1254 5.94414 22.3525 5.25171 22.7141Z" fill="#263238"/>
<path id="Vector_42" d="M7.1576 25.4684C7.27143 24.995 7.35689 24.5152 7.41349 24.0316C6.38998 23.5592 5.18933 23.0474 5.1106 23.2048C5.68665 24.0491 6.37535 24.8107 7.1576 25.4684Z" fill="#263238"/>
<path id="Vector_43" d="M5.87459 27.8878C6.29399 27.4787 6.61675 26.9811 6.81936 26.4313C6.29649 25.3886 5.63433 24.4219 4.85107 23.5576C5.04933 25.0311 5.39216 26.4815 5.87459 27.8878Z" fill="#263238"/>
<path id="Vector_44" d="M3.57544 28.0895C3.85761 28.3066 4.20361 28.4242 4.55958 28.4242H4.95323C4.96136 26.8979 4.81629 25.3747 4.52021 23.8774C4.09701 25.255 3.78115 26.6632 3.57544 28.0895Z" fill="#263238"/>
<path id="Vector_45" d="M2.29907 25.9639C2.43081 26.4517 2.63659 26.9163 2.90924 27.3417C3.4354 26.1904 3.82517 24.9816 4.07055 23.7397C3.39264 24.4071 2.79783 25.1539 2.29907 25.9639Z" fill="#263238"/>
<path id="Vector_46" d="M1.9397 24.0316C1.97634 24.4153 2.03548 24.7964 2.11684 25.1732C2.94352 24.3859 3.80956 23.5198 3.75052 23.3624C3.69147 23.2049 2.84511 23.6183 1.9397 24.0316Z" fill="#263238"/>
<path id="Vector_47" d="M1.84717 22.3193C1.82731 22.6799 1.82731 23.0413 1.84717 23.4019C2.7329 23.205 3.55959 22.9886 3.57927 22.8311C3.59896 22.6736 2.79195 22.4965 1.84717 22.3193Z" fill="#263238"/>
<path id="Vector_48" d="M1.96582 21.651C2.81218 22.0643 3.67824 22.4186 3.75697 22.2808C3.8357 22.143 2.93027 21.1589 2.14296 20.3125C2.06423 20.7652 2.00519 21.1983 1.96582 21.651Z" fill="#263238"/>
<path id="Vector_49" d="M2.38843 19.365C3.01828 20.4673 3.90402 21.9435 4.06148 21.8451C3.91667 20.4749 3.63308 19.1229 3.2151 17.8101C2.83594 18.2663 2.55457 18.7956 2.38843 19.365Z" fill="#263238"/>
<path id="Vector_50" d="M31.3694 28.2268H11.3125C10.5928 27.1095 9.93564 25.953 9.34425 24.7626C9.34425 24.2903 9.69854 14.7441 4.75814 14.7441C0.467278 14.7441 0.664104 24.3296 0.664104 24.3296L0.132688 23.5226L0.014596 22.1251L0.349201 21.2788C0.0690697 19.0663 -0.0427839 16.8357 0.014596 14.6063C0.93375 13.0682 1.96669 11.601 3.10479 10.217C3.28193 10.0399 6.19499 9.54778 6.39182 9.37064C6.58865 9.19349 14.698 2.52104 18.3 1.71404C23.7628 0.787938 29.2927 0.31394 34.8335 0.296875C40.7218 0.497478 46.592 1.06277 52.4103 1.98957C53.3551 2.3045 62.0352 10.4532 62.0352 10.4532C62.0352 10.4532 71.2862 11.6342 72.5262 11.9294C74.7441 12.9075 76.8171 14.1857 78.6869 15.7282C78.8838 16.1219 79.4939 20.5111 79.4939 20.5111C79.6905 20.9514 79.855 21.4053 79.986 21.8693C79.986 22.1251 79.4152 26.2979 79.3365 26.5144C79.0253 26.9981 78.64 27.4298 78.1949 27.7938C77.998 27.7938 45.1473 28.3056 44.734 28.2268C43.8384 28.0216 42.9625 27.7385 42.1162 27.3805C41.8013 27.1837 41.1911 14.8425 35.5421 14.8425C30.6608 14.8425 31.0544 24.2706 31.3694 28.2268Z" fill="#DBDBDB"/>
<path id="Vector_51" opacity="0.1" d="M58.9241 28.1062C67.9782 27.9881 78.0755 27.8306 78.1936 27.7913C78.6387 27.4272 79.024 26.9955 79.3352 26.5119C79.3352 26.2954 80.0044 22.1226 79.9847 21.8667C79.8537 21.4027 79.6893 20.9488 79.4926 20.5086C79.4926 20.5086 78.8825 16.1193 78.6856 15.7257C76.8158 14.1831 74.7429 12.9049 72.5249 11.9269C71.2849 11.6317 62.034 10.4507 62.034 10.4507C62.034 10.4507 70.4189 12.3205 70.8519 12.6945C71.2849 13.0685 74.5326 16.6311 74.9065 17.1231C75.2054 18.7219 75.3896 20.3401 75.4577 21.9652C75.5758 22.2801 76.3631 24.3467 76.4418 24.6813C76.4398 25.3568 76.306 26.0254 76.0481 26.6496C75.9497 26.7087 59.6917 28.0472 58.9241 28.1062Z" fill="black"/>
<path id="Vector_52" opacity="0.1" d="M31.3653 28.2243C31.011 24.6223 30.6567 16.5327 34.2587 15.0762C32.4282 15.4108 29.8497 18.4419 29.7316 26.3348L11.2297 28.303L31.3653 28.2243Z" fill="black"/>
<g id="Group_2" opacity="0.6">
<path id="Vector_53" d="M11.79 23.047C11.6301 21.1318 11.2198 19.2459 10.5696 17.4374C10.3925 16.9847 10.2153 16.5517 9.99884 16.1187C9.78665 15.6881 9.54325 15.2737 9.27058 14.8786C9.00402 14.4724 8.68649 14.1019 8.32578 13.7764C8.14928 13.6089 7.95828 13.4574 7.75499 13.3237C7.55828 13.1834 7.34712 13.0647 7.12513 12.9694C6.67385 12.7615 6.18498 12.6476 5.68829 12.6348C5.19924 12.6002 4.70859 12.6741 4.25145 12.8513C3.34699 13.2503 2.60453 13.9441 2.14537 14.8196C1.65531 15.6447 1.27799 16.5318 1.02346 17.4571C0.782982 18.3879 0.611938 19.3353 0.511719 20.2914C0.62606 19.3425 0.830365 18.4066 1.12188 17.4964C1.38149 16.5791 1.75857 15.6992 2.24379 14.8786C2.72002 14.0591 3.44349 13.4114 4.31049 13.0284C5.20593 12.7186 6.18663 12.768 7.04641 13.1662C7.25991 13.2582 7.46421 13.3703 7.65657 13.5008L8.20769 13.9338C8.5622 14.2452 8.87334 14.6027 9.13279 14.9967C9.67249 15.7872 10.1152 16.6397 10.4515 17.5358C10.7862 18.4222 11.0624 19.3295 11.2782 20.252C11.4967 21.1742 11.6676 22.1072 11.79 23.047Z" fill="white"/>
<path id="Vector_54" d="M42.3374 23.0461C42.1717 21.1739 41.775 19.3293 41.1564 17.5545C40.8501 16.6697 40.4405 15.824 39.9361 15.0351C39.6677 14.6469 39.3716 14.2786 39.0503 13.9329C38.7056 13.5998 38.3224 13.3091 37.9088 13.0668C37.483 12.8525 37.0236 12.7127 36.5506 12.6535C36.0757 12.5654 35.5887 12.5654 35.1138 12.6535C34.1902 12.9036 33.3743 13.4499 32.7912 14.2085C32.2102 14.9509 31.7517 15.7815 31.4331 16.6688C31.101 17.5411 30.8571 18.4445 30.7048 19.3654C30.8865 18.4491 31.1568 17.5525 31.5118 16.6885C31.8456 15.8223 32.3102 15.0124 32.8896 14.2872C33.4664 13.5652 34.2599 13.0477 35.1531 12.811C35.6091 12.7327 36.075 12.7327 36.5309 12.811C36.9808 12.8888 37.4179 13.0279 37.83 13.2243C38.2302 13.4532 38.6005 13.7309 38.9323 14.051C39.2525 14.3783 39.5424 14.7341 39.7983 15.1139C40.2972 15.9018 40.7128 16.7396 41.0383 17.6136C41.3666 18.4869 41.6362 19.3812 41.8453 20.2905C42.0422 21.2746 42.2193 22.1997 42.3374 23.0461Z" fill="white"/>
<path id="Vector_55" d="M31.1792 16.1606C29.8998 15.7866 28.6204 15.393 27.2426 15.0387L20.0387 14.3498L12.8545 13.72L10.4926 12.8933L8.13062 12.106L10.4729 12.9523L12.8348 13.779L20.0387 14.4679L27.2426 15.0977L31.1792 16.1606Z" fill="white"/>
<path id="Vector_56" d="M61.0364 10.4507L64.9729 12.1237L68.9095 13.7771L70.4644 16.7098C66.6853 16.7098 62.9062 16.7098 59.1468 16.8082L54.6591 14.1707L49.0889 12.419L43.4792 10.7656L49.0692 12.478L54.6591 14.1707L59.1271 16.8476L70.4448 16.7295L68.8701 13.8164L64.9336 12.1828L61.0364 10.4507Z" fill="white"/>
</g>
<g id="Group_3" opacity="0.3">
<path id="Vector_57" d="M61.3174 10.4492L69.1905 12.3191L70.1747 12.5553L70.6471 12.693H70.7652C70.8291 12.747 70.8883 12.8063 70.9423 12.8702C71.3753 13.3622 71.769 13.9134 72.1823 14.4448L74.623 17.6925C73.8619 16.5903 73.0746 15.488 72.261 14.3858C71.8674 13.8544 71.454 13.3032 71.021 12.7915L70.8242 12.5946H70.7061L70.214 12.4568L69.2299 12.201L65.2933 11.2956L61.3174 10.4492Z" fill="black"/>
<path id="Vector_58" d="M35.8672 10.7666L38.2685 11.5342L40.6698 12.2625L45.4724 13.7781L47.8737 14.5457C48.26 14.6879 48.6351 14.859 48.9957 15.0574L50.1176 15.6283L52.3614 16.7698L54.625 17.8918L52.4008 16.7305L50.157 15.5692L49.035 14.9787C48.6659 14.778 48.2846 14.6006 47.8934 14.4473L45.5118 13.66L40.6895 12.1838L38.2882 11.4752L35.8672 10.7666Z" fill="black"/>
<path id="Vector_59" d="M29.8122 25.7262H27.5093H25.1867H20.5612H15.9161H13.6132H12.6094C12.6094 25.7262 12.6094 25.7262 12.4913 25.7262C12.2396 25.4369 12.0031 25.1347 11.7827 24.8208C11.9948 25.1419 12.2248 25.4507 12.4716 25.7459C12.4716 25.7459 12.4716 25.7459 12.5897 25.8443H13.6526H15.9555H20.6006H29.8516L29.8122 25.7262Z" fill="black"/>
<path id="Vector_60" d="M13.6478 10.1934L12.9392 13.7362L13.4116 16.5312L13.884 19.3262C14.1989 21.196 14.5335 23.0463 14.8878 24.9162C14.5926 23.0463 14.2973 21.1764 13.9824 19.3065L13.51 16.5115L13.0376 13.7166C13.1754 12.575 13.3722 11.394 13.6478 10.1934Z" fill="black"/>
<path id="Vector_61" d="M26.3601 10.4307C26.6357 11.9856 26.9506 13.5406 27.2458 15.0758C27.2458 16.7489 27.2458 18.4416 27.2458 20.1147V22.6537V25.1731V20.1147C27.2458 18.4416 27.2458 16.7489 27.2458 15.0758C27.0293 13.5209 26.6947 11.9659 26.3601 10.4307Z" fill="black"/>
<path id="Vector_62" d="M9.04214 9.05273C8.865 9.54481 8.72721 10.0565 8.56974 10.5486C8.41228 11.0407 8.2745 11.5721 8.13672 12.0838C8.23513 12.4578 8.31387 12.8318 8.39261 13.2058C8.47134 13.5798 8.56975 13.934 8.66816 14.308C8.66816 13.934 8.55006 13.5601 8.47132 13.1861C8.39259 12.8121 8.33354 12.4382 8.25481 12.0642L8.66816 10.5486C8.78626 10.0762 8.92405 9.56449 9.04214 9.05273Z" fill="black"/>
<path id="Vector_63" d="M30.2376 19.5245L27.8363 19.3474L25.4547 19.19L20.6718 18.8553L15.8691 18.5798L13.4875 18.4223L11.0862 18.3042L13.4875 18.4813L15.8691 18.6388L20.652 18.9734L25.4547 19.2686L27.8363 19.4064L30.2376 19.5245Z" fill="black"/>
<path id="Vector_64" d="M16.5989 10.906C16.5989 11.1029 16.5005 11.2997 16.4611 11.4966L15.3392 11.3588L14.2173 11.2604L14.3354 10.7093C14.7487 10.7093 15.1621 10.7093 15.5951 10.7093L14.3551 10.5518L14.237 11.1029L15.3589 11.2013H16.5005C16.5399 11.2407 16.5792 11.1029 16.5989 10.906Z" fill="black"/>
<path id="Vector_65" d="M77.4448 18.9146C77.5826 19.7019 77.7794 20.4498 77.9566 21.2175V21.5127C77.9566 21.5127 77.9566 21.6111 77.9566 21.6701C77.9566 21.7292 77.9566 22.0638 77.9566 22.2607C77.9566 22.4575 77.9566 23.0676 77.9566 23.4613C77.9566 23.0676 78.055 22.6937 78.0944 22.3V21.7292V21.3946V21.0994C77.8779 20.4302 77.681 19.6625 77.4448 18.9146Z" fill="black"/>
<path id="Vector_66" d="M48.0151 18.9146L47.5624 20.0955C47.4443 20.5089 47.2868 20.9025 47.1687 21.2962C47.3065 20.9025 47.4246 20.4892 47.5427 20.0955C47.6608 19.7019 47.9167 19.3279 48.0151 18.9146Z" fill="black"/>
<path id="Vector_67" d="M80.0008 22.0425L77.7569 24.2469L69.7854 24.5028L65.8488 24.6406H61.9122H45.9691L42.7214 23.8533L45.9494 24.68H61.8925H65.8291L69.7656 24.5422L77.7372 24.2273L80.0008 22.0425Z" fill="black"/>
</g>
<path id="Vector_68" d="M24.3269 10.1356C24.071 10.4111 13.6784 9.80096 13.4422 9.7616C11.9624 9.52166 10.4971 9.1997 9.05298 8.79716C11.2246 6.94416 13.5196 5.24096 15.9223 3.69931C18.3624 3.31059 20.8399 3.21144 23.3033 3.40402C23.9529 3.65989 24.6418 9.82065 24.3269 10.1356Z" fill="#263238"/>
<path id="Vector_69" d="M23.6489 9.86027C23.4127 10.0965 13.9255 9.54536 13.709 9.50599C12.3804 9.28923 11.0659 8.9935 9.77246 8.6203C11.7508 6.92539 13.842 5.36681 16.0316 3.95541C18.2703 3.60006 20.5434 3.51421 22.8025 3.69959C23.3143 3.93578 23.9244 9.56503 23.6489 9.86027Z" fill="#37474F"/>
<g id="Group_4" opacity="0.1">
<path id="Vector_70" d="M17.0618 3.79345L23.6359 7.73002C23.542 6.56794 23.351 5.41576 23.065 4.28552L21.766 3.47852C20.1932 3.49537 18.6227 3.60052 17.0618 3.79345Z" fill="white"/>
<path id="Vector_71" d="M11.9299 6.80498L16.5948 9.67866L19.3307 9.81645L13.0715 5.87988L11.9299 6.80498Z" fill="white"/>
<path id="Vector_72" d="M9.99536 8.30231L11.137 9.01086L11.9833 9.188L10.2315 8.10547C10.145 8.16103 10.0656 8.22716 9.99536 8.30231Z" fill="white"/>
</g>
<path id="Vector_73" d="M16.4091 3.87722C15.5419 5.72225 14.7796 7.61483 14.1259 9.54589C14.1259 9.66399 13.6929 9.54589 13.7323 9.54589C13.7716 9.54589 16.0942 4.17242 16.0155 3.95591C15.9368 3.73939 16.4091 3.87722 16.4091 3.87722Z" fill="#263238"/>
<path id="Vector_74" d="M61.3243 10.4546L35.8743 10.7696C35.2445 10.7696 26.3872 10.3366 26.2691 10.2775C25.834 7.96622 25.597 5.62202 25.5605 3.27042C25.5605 3.13264 37.5277 2.52246 38.9842 2.52246C40.4408 2.52246 52.4079 3.03423 53.0378 3.15233C56.0035 5.34526 58.7758 7.78829 61.3243 10.4546Z" fill="#263238"/>
<path id="Vector_75" d="M60.5607 10.1358L36.646 10.431C36.0555 10.431 27.4738 10.0374 27.3754 9.97832C27.0495 7.9151 26.9046 5.82736 26.9424 3.73889C26.9424 3.62079 38.4372 3.03027 39.815 3.03027C41.1928 3.03027 52.4317 3.52238 53.0222 3.62079C55.7165 5.57315 58.2386 7.75279 60.5607 10.1358Z" fill="#37474F"/>
<path id="Vector_76" opacity="0.1" d="M48.5319 3.36541L59.5543 10.1363H54.6139L43.1782 3.14893C44.7725 3.20797 46.7605 3.36541 48.5319 3.36541ZM33.3368 3.36541L44.7725 10.3922H47.2329L35.679 3.28666L33.3368 3.36541ZM27.0776 7.77435C27.0776 8.42388 27.1957 9.01436 27.2548 9.4277L28.357 10.1166L31.1126 10.2544L27.0776 7.77435ZM29.3412 3.60159L40.5013 10.4512H41.0328L29.8529 3.56225L29.3412 3.60159ZM50.264 3.60159L59.8496 9.50645L58.7276 8.46326L50.8545 3.641H50.2443L50.264 3.60159Z" fill="white"/>
<path id="Vector_77" d="M51.6164 16.8657C51.951 17.2003 51.3606 19.3458 50.8291 19.5033C49.3097 19.4862 47.7948 19.3347 46.3021 19.0506C44.6638 18.619 43.0641 18.0528 41.5191 17.3578C41.0851 16.2085 40.9828 14.9605 41.2239 13.7559C43.6228 14.1238 45.9961 14.6432 48.3294 15.3108C49.474 15.7188 50.5751 16.2396 51.6164 16.8657Z" fill="white"/>
<path id="Vector_78" d="M79.0021 17.9708C78.6088 18.4843 78.1672 18.9588 77.6834 19.388C77.1999 19.572 76.6849 19.6589 76.1678 19.6438C75.7804 19.0358 75.4883 18.372 75.3018 17.6755C75.7459 16.5155 76.3703 15.4328 77.1519 14.4673C77.8492 14.7635 78.4788 15.1988 79.0021 15.7467C79.1182 16.4835 79.1182 17.234 79.0021 17.9708Z" fill="white"/>
<path id="Vector_79" d="M78.9167 17.8735C78.9167 18.0704 78.405 18.6805 78.3459 18.7593C78.5839 18.5153 78.8012 18.252 78.9955 17.972C79.1136 17.2287 79.1136 16.4714 78.9955 15.7281C78.4722 15.1803 77.8426 14.7449 77.1453 14.4487C77.7347 14.8048 78.2604 15.2572 78.7002 15.7871C78.7593 16.043 78.8971 17.657 78.9167 17.8735Z" fill="#DBDBDB"/>
<path id="Vector_80" d="M74.6659 17.7911C74.3116 17.673 67.1865 17.4565 65.789 17.4565C64.3915 17.4565 55.1799 17.6731 54.5501 17.8896C53.9202 18.1061 55.3374 21.8261 55.8885 22.1411C56.4396 22.456 65.3166 23.1252 65.9267 23.1252C68.5726 22.8524 71.201 22.4318 73.7999 21.8655C74.3707 21.5899 75.3155 17.9879 74.6659 17.7911Z" fill="#263238"/>
<path id="Vector_81" d="M54.9817 20.1961C54.9817 20.1961 54.9817 20.3536 54.9817 20.4323L74.6645 20.078V19.8418L54.9817 20.1961Z" fill="#EBEBEB"/>
<path id="Vector_82" d="M73.8013 26.3356H55.2404C54.8467 26.3356 56.8544 25.1349 57.2086 25.1152H72.3644C72.699 25.1152 74.1359 26.3356 73.8013 26.3356Z" fill="#263238"/>
<path id="Vector_83" d="M78.9607 25.5476C78.7442 25.5476 76.6972 25.5476 76.3429 25.5476C75.8017 24.9414 75.4344 24.2001 75.28 23.4022C75.28 23.1267 76.8547 22.2212 77.0515 22.1622C77.6247 22.0638 78.2104 22.0638 78.7836 22.1622C79.0068 23.2761 79.0665 24.4165 78.9607 25.5476Z" fill="#A6A6A6"/>
<path id="Vector_84" d="M51.7965 23.0493C52.0524 23.3642 50.3596 25.2932 49.7101 25.5294C48.1434 25.7226 46.5636 25.7884 44.9862 25.7261C44.8731 24.9561 44.8731 24.1736 44.9862 23.4036C45.2323 22.8556 45.5646 22.3506 45.9703 21.9077C47.3669 21.9164 48.7611 22.0215 50.1431 22.2226C50.7309 22.4177 51.2877 22.6961 51.7965 23.0493Z" fill="#A6A6A6"/>
<path id="Vector_85" d="M22.7526 9.52577V9.1715C22.2467 8.60704 21.6936 8.08681 21.0992 7.61653C20.1521 7.56234 19.2047 7.7169 18.3239 8.06926C18.2462 8.47895 18.2462 8.89954 18.3239 9.30923C19.0935 9.57779 19.8936 9.74971 20.7056 9.821C21.3929 9.76079 22.0763 9.66224 22.7526 9.52577Z" fill="#EBEBEB"/>
<path id="Vector_86" d="M22.8457 9.271V9.62527L23.7511 10.3142V10.5307H24.6368V9.271C24.5072 9.34736 24.3682 9.40689 24.2235 9.44813C23.9676 9.3694 22.8457 9.271 22.8457 9.271Z" fill="#EBEBEB"/>
</g>
</svg>
