<svg width="115" height="45" viewBox="0 0 115 45" fill="none" xmlns="http://www.w3.org/2000/svg">
<g id="Frame 1000002912">
<path id="Vector" d="M27.4602 14.393V13.8838C26.7295 13.0658 25.9243 12.3175 25.0552 11.6485C23.6937 11.5706 22.3318 11.7928 21.0657 12.2993C20.9533 12.8882 20.9533 13.493 21.0657 14.0818C22.1854 14.4546 23.3432 14.7014 24.5176 14.8175C25.5054 14.7286 26.4876 14.5869 27.4602 14.393Z" fill="#EBEBEB"/>
<path id="Vector_2" d="M27.6664 13.8833V14.3926L28.9396 15.3829V15.6942H30.1846V13.8833C30.0058 13.9887 29.816 14.0741 29.6187 14.1379C29.2508 14.1662 27.6664 13.8833 27.6664 13.8833Z" fill="#EBEBEB"/>
<g id="Group" opacity="0.1">
<path id="Vector_3" d="M27.4736 14.393V13.8838C26.7429 13.0658 25.9378 12.3175 25.0686 11.6485C23.7072 11.5706 22.3453 11.7928 21.0792 12.2993C20.9668 12.8882 20.9668 13.493 21.0792 14.0818C22.1989 14.4546 23.3567 14.7014 24.5311 14.8175C25.5188 14.7286 26.501 14.5869 27.4736 14.393Z" fill="black"/>
<path id="Vector_4" d="M27.6701 13.8833V14.3926L28.9433 15.3829V15.6942H30.1882V13.8833C30.0095 13.9887 29.8197 14.0741 29.6223 14.1379C29.2545 14.1662 27.6701 13.8833 27.6701 13.8833Z" fill="black"/>
</g>
<path id="Vector_5" d="M50.6686 33.5734C50.6686 38.4117 52.7058 44.3535 57.0065 44.3535C57.4309 44.3535 63.1746 44.3535 63.5707 44.3535C67.0226 43.1934 69.0598 36.8838 68.692 31.3099C68.3807 26.9809 66.9943 22.1425 63.3727 21.5483H56.8367C52.5077 21.5483 50.4988 28.3389 50.6686 33.5734Z" fill="#263238"/>
<path id="Vector_6" d="M57.5389 33.5734C57.6804 38.4117 59.6044 44.3535 63.9051 44.3535C68.2058 44.3535 70.1581 37.5063 69.7337 31.3099C69.3941 26.6979 67.9228 21.5483 63.707 21.5483C59.4912 21.5483 57.3974 28.3389 57.5389 33.5734Z" fill="#37474F"/>
<path id="Vector_7" d="M59.3262 33.3557C59.3262 37.0905 60.8824 41.6742 64.0513 41.6742C67.2203 41.6742 68.6633 36.3832 68.3238 31.6298C68.0974 28.0647 66.9656 24.1035 63.8816 24.1035C60.7975 24.1035 59.213 29.4228 59.3262 33.3557Z" fill="#C7C7C7"/>
<path id="Vector_8" d="M64.8967 24.8568C64.8816 26.9933 64.6733 29.124 64.2743 31.223C63.6291 29.1931 63.1652 27.11 62.8879 24.9982C63.2285 24.8189 63.6065 24.7221 63.9913 24.7153C64.2986 24.7163 64.6039 24.7639 64.8967 24.8568Z" fill="#263238"/>
<path id="Vector_9" d="M63.6812 31.6218C62.5832 30.523 61.6322 29.2866 60.8517 27.9435C61.098 27.2658 61.4411 26.6273 61.8703 26.0479C62.6599 27.8402 63.2666 29.7076 63.6812 31.6218Z" fill="#263238"/>
<path id="Vector_10" d="M63.3663 32.1895C62.2167 31.94 61.1169 31.5002 60.1124 30.888C60.1124 30.2655 60.3105 29.6713 60.452 29.0771C61.8384 30.3504 63.4795 31.9349 63.3663 32.1895Z" fill="#263238"/>
<path id="Vector_11" d="M63.238 32.8677C62.216 33.3141 61.125 33.582 60.0125 33.6599V33.3487C59.9701 32.8497 59.9701 32.3481 60.0125 31.8491C61.143 31.979 62.238 32.3247 63.238 32.8677Z" fill="#263238"/>
<path id="Vector_12" d="M60.4927 36.8299C60.3199 36.1498 60.1876 35.4601 60.0966 34.7644C61.5679 34.0853 63.2938 33.3496 63.4353 33.576C62.5981 34.7823 61.6091 35.8759 60.4927 36.8299Z" fill="#263238"/>
<path id="Vector_13" d="M62.318 40.3095C61.7133 39.7172 61.2408 39.0037 60.9316 38.2157C61.8936 36.603 63.5063 33.9151 63.761 34.0848C63.4572 36.1969 62.9745 38.2792 62.318 40.3095Z" fill="#263238"/>
<path id="Vector_14" d="M65.6377 40.5979C65.2301 40.9061 64.734 41.0748 64.223 41.0789H63.6288C63.6314 38.8856 63.8398 36.6973 64.2513 34.543C64.886 36.5179 65.3498 38.5436 65.6377 40.5979Z" fill="#263238"/>
<path id="Vector_15" d="M67.4446 37.542C67.2518 38.2373 66.9663 38.9034 66.5957 39.5225C65.8351 37.8666 65.2655 36.1295 64.8981 34.3447C65.8821 35.2954 66.7381 36.3702 67.4446 37.542Z" fill="#263238"/>
<path id="Vector_16" d="M67.9624 34.7642C67.9186 35.3151 67.843 35.863 67.736 36.4052C66.5194 35.2734 65.3027 34.0285 65.3876 33.8022C65.4725 33.5758 66.6892 34.17 67.9624 34.7642Z" fill="#263238"/>
<path id="Vector_17" d="M68.0101 32.3027C68.0386 32.8211 68.0386 33.3405 68.0101 33.8589C66.7368 33.5759 65.5485 33.2648 65.5485 33.0384C65.5485 32.8121 66.7368 32.5574 68.0101 32.3027Z" fill="#263238"/>
<path id="Vector_18" d="M67.9624 31.342C66.7175 31.9362 65.5008 32.4454 65.3876 32.2474C65.2744 32.0493 66.5477 30.6346 67.6795 29.418C67.8185 30.0519 67.9131 30.6949 67.9624 31.342Z" fill="#263238"/>
<path id="Vector_19" d="M67.3228 28.0561C66.4173 29.6405 65.1158 31.7626 64.8895 31.6212C65.1255 29.6536 65.5423 27.7119 66.1344 25.8208C66.6794 26.4766 67.0839 27.2375 67.3228 28.0561Z" fill="#263238"/>
<path id="Vector_20" d="M2.00411 33.5734C2.14558 38.4117 4.0696 44.3535 8.34201 44.3535C8.76643 44.3535 14.5384 44.3535 14.9062 44.3535C18.3581 43.1934 20.5651 36.8838 20.0275 31.3099C19.7162 26.9809 18.3581 22.1425 14.7365 21.5483H8.17221C3.8715 21.5483 2.00411 28.3389 2.00411 33.5734Z" fill="#263238"/>
<path id="Vector_21" d="M8.94071 33.5734C8.94071 38.4117 10.9779 44.3535 15.2786 44.3535C19.5793 44.3535 21.5316 37.5063 21.1072 31.3099C20.796 26.6979 19.2964 21.5483 15.1089 21.5483C10.9213 21.5483 8.77094 28.3389 8.94071 33.5734Z" fill="#37474F"/>
<path id="Vector_22" d="M10.7164 33.3557C10.7164 37.0905 12.2442 41.6742 15.4415 41.6742C18.6387 41.6742 20.0251 36.3832 19.7139 31.6298C19.4592 28.0647 18.3558 24.1035 15.2434 24.1035C12.131 24.1035 10.49 29.4228 10.7164 33.3557Z" fill="#C7C7C7"/>
<path id="Vector_23" d="M16.1414 24.8568C16.1554 26.9947 15.9468 29.1282 15.519 31.223C14.8738 29.1931 14.4099 27.11 14.1325 24.9982C14.4821 24.8156 14.87 24.7187 15.2643 24.7153C15.5621 24.7187 15.8577 24.7663 16.1414 24.8568Z" fill="#263238"/>
<path id="Vector_24" d="M15.0437 31.6218C13.9575 30.5128 13.0076 29.2779 12.2143 27.9435C12.4379 27.2559 12.7829 26.6139 13.2329 26.0479C14.0278 27.8381 14.6347 29.7061 15.0437 31.6218Z" fill="#263238"/>
<path id="Vector_25" d="M14.7446 32.1895C13.5981 31.9299 12.5 31.4907 11.4908 30.888C11.4908 30.2655 11.6888 29.6713 11.8303 29.0771C13.3299 30.3504 14.8577 31.9349 14.7446 32.1895Z" fill="#263238"/>
<path id="Vector_26" d="M14.5898 32.8677C13.5693 33.3184 12.4776 33.5866 11.3643 33.6599V33.3487C11.336 32.8492 11.336 32.3486 11.3643 31.8491C12.4948 31.979 13.5898 32.3247 14.5898 32.8677Z" fill="#263238"/>
<path id="Vector_27" d="M11.8499 36.8299C11.6726 36.1522 11.5496 35.4615 11.4821 34.7644C12.9534 34.0853 14.651 33.3496 14.7925 33.576C13.9644 34.7895 12.9744 35.8843 11.8499 36.8299Z" fill="#263238"/>
<path id="Vector_28" d="M13.6891 40.3077C13.0863 39.7195 12.6222 39.0042 12.331 38.2139C13.0826 36.7151 14.0345 35.3254 15.1604 34.083C14.8613 36.1985 14.3688 38.2821 13.6891 40.3077Z" fill="#263238"/>
<path id="Vector_29" d="M16.9998 40.5979C16.5941 40.9098 16.0968 41.079 15.585 41.0789H15.0192C15.0075 38.8849 15.216 36.6953 15.6416 34.543C16.25 36.5232 16.704 38.5475 16.9998 40.5979Z" fill="#263238"/>
<path id="Vector_30" d="M18.8396 37.542C18.6502 38.2431 18.3544 38.9111 17.9625 39.5225C17.2018 37.8666 16.6322 36.1295 16.2648 34.3447C17.2615 35.2912 18.1274 36.3664 18.8396 37.542Z" fill="#263238"/>
<path id="Vector_31" d="M19.3455 34.7642C19.2928 35.3157 19.2077 35.8636 19.0908 36.4052C17.9024 35.2734 16.6575 34.0285 16.7424 33.8022C16.8273 33.5758 18.0439 34.17 19.3455 34.7642Z" fill="#263238"/>
<path id="Vector_32" d="M19.3997 32.3027V33.8589C18.1264 33.5759 16.9381 33.2648 16.9098 33.0384C16.8815 32.8121 18.0981 32.5574 19.3997 32.3027Z" fill="#263238"/>
<path id="Vector_33" d="M19.3142 31.342C18.0976 31.9362 16.8527 32.4454 16.7395 32.2474C16.6263 32.0493 17.9278 30.6346 19.0596 29.418C19.1727 30.0687 19.2576 30.6913 19.3142 31.342Z" fill="#263238"/>
<path id="Vector_34" d="M18.7002 28.0561C17.7948 29.6405 16.5216 31.7626 16.2952 31.6212C16.5034 29.6515 16.911 27.7081 17.5118 25.8208C18.0569 26.4766 18.4614 27.2375 18.7002 28.0561Z" fill="#263238"/>
<path id="Vector_35" d="M94.8867 33.5734C94.8867 38.4117 96.9521 44.3535 101.253 44.3535C101.649 44.3535 107.421 44.3535 107.789 44.3535C111.241 43.1934 113.448 36.8838 112.91 31.3099C112.599 26.9809 111.241 22.1425 107.619 21.5483H101.027C96.7258 21.5483 94.7452 28.3389 94.8867 33.5734Z" fill="#263238"/>
<path id="Vector_36" d="M101.806 33.5734C101.806 38.4117 103.843 44.3535 108.144 44.3535C112.445 44.3535 114.397 37.5063 113.972 31.3099C113.661 26.6979 112.162 21.5483 107.974 21.5483C103.787 21.5483 101.664 28.3389 101.806 33.5734Z" fill="#37474F"/>
<path id="Vector_37" d="M103.586 33.3557C103.586 37.0905 105.114 41.6742 108.311 41.6742C111.508 41.6742 112.923 36.3832 112.583 31.6298C112.329 28.0647 111.225 24.1035 108.113 24.1035C105 24.1035 103.473 29.4228 103.586 33.3557Z" fill="#C7C7C7"/>
<path id="Vector_38" d="M109.124 24.8568C109.138 26.9947 108.929 29.1282 108.502 31.223C107.856 29.1931 107.393 27.11 107.115 24.9982C107.466 24.8185 107.853 24.7218 108.247 24.7153C108.545 24.7187 108.84 24.7663 109.124 24.8568Z" fill="#263238"/>
<path id="Vector_39" d="M107.909 31.6218C106.823 30.5128 105.873 29.2779 105.08 27.9435C105.315 27.2607 105.659 26.6205 106.098 26.0479C106.893 27.8381 107.5 29.7061 107.909 31.6218Z" fill="#263238"/>
<path id="Vector_40" d="M107.621 32.1895C106.463 31.9375 105.355 31.4979 104.339 30.888C104.418 30.2763 104.541 29.6711 104.707 29.0771C105.817 29.9752 106.798 31.0226 107.621 32.1895Z" fill="#263238"/>
<path id="Vector_41" d="M107.451 32.8707C106.441 33.3239 105.358 33.5922 104.253 33.6629C104.24 33.5786 104.24 33.4926 104.253 33.4083C104.253 32.899 104.253 32.418 104.253 31.9087C105.37 32.0244 106.455 32.3508 107.451 32.8707Z" fill="#263238"/>
<path id="Vector_42" d="M104.711 36.8299C104.547 36.1493 104.425 35.4596 104.343 34.7644C105.814 34.0853 107.54 33.3496 107.654 33.576C106.825 34.7895 105.835 35.8843 104.711 36.8299Z" fill="#263238"/>
<path id="Vector_43" d="M106.555 40.3077C105.952 39.7195 105.488 39.0042 105.197 38.2139C105.949 36.7151 106.901 35.3254 108.027 34.083C107.742 36.2012 107.249 38.2861 106.555 40.3077Z" fill="#263238"/>
<path id="Vector_44" d="M109.86 40.5979C109.455 40.9098 108.957 41.079 108.446 41.0789H107.88C107.868 38.8849 108.077 36.6953 108.502 34.543C109.111 36.5232 109.565 38.5475 109.86 40.5979Z" fill="#263238"/>
<path id="Vector_45" d="M111.695 37.542C111.506 38.2431 111.21 38.9111 110.818 39.5225C110.062 37.8675 109.502 36.1298 109.149 34.3447C110.123 35.304 110.978 36.3776 111.695 37.542Z" fill="#263238"/>
<path id="Vector_46" d="M112.212 34.7642C112.159 35.3157 112.074 35.8636 111.957 36.4052C110.769 35.2734 109.524 34.0285 109.609 33.8022C109.693 33.5758 110.91 34.17 112.212 34.7642Z" fill="#263238"/>
<path id="Vector_47" d="M112.345 32.3027C112.373 32.8211 112.373 33.3405 112.345 33.8589C111.072 33.5759 109.883 33.2648 109.855 33.0384C109.827 32.8121 110.987 32.5574 112.345 32.3027Z" fill="#263238"/>
<path id="Vector_48" d="M112.174 31.342C110.958 31.9362 109.713 32.4454 109.6 32.2474C109.486 32.0493 110.788 30.6346 111.92 29.418C112.033 30.0687 112.118 30.6913 112.174 31.342Z" fill="#263238"/>
<path id="Vector_49" d="M111.567 28.0561C110.661 29.6405 109.388 31.7626 109.162 31.6212C109.37 29.6515 109.777 27.7081 110.378 25.8208C110.923 26.4766 111.328 27.2375 111.567 28.0561Z" fill="#263238"/>
<path id="Vector_50" d="M69.9065 40.7949H98.7382C99.7729 39.1887 100.717 37.5262 101.568 35.8151C101.568 35.136 101.058 21.4134 108.16 21.4134C114.328 21.4134 114.045 35.1926 114.045 35.1926L114.809 34.0326L114.979 32.0237L114.498 30.8071C114.901 27.6266 115.062 24.4201 114.979 21.2153C113.658 19.0043 112.173 16.8952 110.537 14.9058C110.282 14.6511 106.095 13.9437 105.812 13.6891C105.529 13.4344 93.8716 3.84275 88.6938 2.68269C80.8409 1.35141 72.8916 0.670039 64.9267 0.645508C56.4623 0.933875 48.0239 1.74649 39.66 3.07876C38.3019 3.53147 25.8242 15.2453 25.8242 15.2453C25.8242 15.2453 12.5259 16.9429 10.7434 17.3674C7.55512 18.7733 4.57525 20.6107 1.88735 22.8281C1.60442 23.394 0.727287 29.7036 0.727287 29.7036C0.444649 30.3364 0.208244 30.9889 0.019928 31.6559C0.019928 32.0237 0.840469 38.0221 0.953644 38.3333C1.40099 39.0285 1.95477 39.6491 2.59471 40.1724C2.87765 40.1724 50.1006 40.9081 50.6948 40.7949C51.9822 40.4999 53.2414 40.0928 54.4578 39.5783C54.9105 39.2953 55.7877 21.5548 63.9081 21.5548C70.9251 21.5548 70.3592 35.1078 69.9065 40.7949Z" fill="#DBDBDB"/>
<path id="Vector_51" opacity="0.1" d="M30.2966 40.6211C17.2813 40.4513 2.76645 40.2249 2.59668 40.1683C1.95674 39.645 1.40296 39.0244 0.955616 38.3292C0.955616 38.018 -0.00639153 32.0196 0.021904 31.6518C0.210217 30.9848 0.446621 30.3323 0.729258 29.6995C0.729258 29.6995 1.60639 23.3899 1.88933 22.824C4.57722 20.6066 7.5571 18.7692 10.7454 17.3633C12.5279 16.9389 25.8262 15.2412 25.8262 15.2412C25.8262 15.2412 13.7729 17.9291 13.1504 18.4667C12.5279 19.0043 7.85939 24.1255 7.3218 24.8329C6.89221 27.1312 6.62746 29.4573 6.52957 31.7933C6.3598 32.246 5.22803 35.2168 5.11486 35.6978C5.1178 36.6688 5.31 37.6298 5.68073 38.5272C5.8222 38.6121 29.1932 40.5362 30.2966 40.6211Z" fill="black"/>
<path id="Vector_52" opacity="0.1" d="M69.9125 40.7911C70.4218 35.6133 70.9311 23.9844 65.7533 21.8906C68.3846 22.3716 72.0912 26.7289 72.2609 38.0749L98.8574 40.9043L69.9125 40.7911Z" fill="black"/>
<g id="Group_2" opacity="0.6">
<path id="Vector_53" d="M98.0521 33.3487C98.2819 30.5956 98.8717 27.8846 99.8064 25.2848C100.061 24.6341 100.316 24.0117 100.627 23.3892C100.932 22.7703 101.282 22.1745 101.674 21.6066C102.057 21.0226 102.513 20.4902 103.032 20.0222C103.286 19.7814 103.56 19.5636 103.852 19.3714C104.135 19.1698 104.439 18.9991 104.758 18.8621C105.407 18.5633 106.109 18.3996 106.823 18.3811C107.526 18.3313 108.232 18.4376 108.889 18.6923C110.189 19.2659 111.256 20.2633 111.916 21.5218C112.621 22.7079 113.163 23.983 113.529 25.3132C113.875 26.6512 114.121 28.0131 114.265 29.3875C114.1 28.0235 113.807 26.6781 113.388 25.3697C113.014 24.0511 112.472 22.7863 111.775 21.6066C111.09 20.4286 110.05 19.4975 108.804 18.947C107.517 18.5016 106.107 18.5726 104.871 19.1451C104.564 19.2773 104.27 19.4383 103.994 19.626L103.202 20.2485C102.692 20.696 102.245 21.2099 101.872 21.7764C101.096 22.9127 100.46 24.1382 99.9761 25.4264C99.495 26.7005 99.0981 28.0048 98.7878 29.3309C98.4736 30.6566 98.2281 31.9977 98.0521 33.3487Z" fill="white"/>
<path id="Vector_54" d="M54.14 33.3473C54.3782 30.656 54.9484 28.0045 55.8376 25.4532C56.2779 24.1812 56.8667 22.9656 57.5919 21.8316C57.9777 21.2736 58.4033 20.7441 58.8651 20.2471C59.3607 19.7683 59.9115 19.3504 60.5061 19.0022C61.1182 18.6941 61.7785 18.4931 62.4585 18.408C63.1411 18.2813 63.8413 18.2813 64.524 18.408C65.8516 18.7675 67.0245 19.5528 67.8626 20.6433C68.6979 21.7105 69.357 22.9045 69.8149 24.1801C70.2923 25.434 70.643 26.7326 70.8618 28.0563C70.6006 26.7391 70.2121 25.4504 69.7017 24.2083C69.222 22.9631 68.554 21.7989 67.7212 20.7564C66.8921 19.7186 65.7514 18.9746 64.4674 18.6343C63.8119 18.5219 63.1422 18.5219 62.4868 18.6343C61.8401 18.7462 61.2118 18.9462 60.6193 19.2286C60.044 19.5576 59.5118 19.9567 59.0349 20.4169C58.5745 20.8874 58.1578 21.3988 57.7899 21.9448C57.0727 23.0775 56.4753 24.2817 56.0074 25.5381C55.5355 26.7935 55.1479 28.0791 54.8473 29.3862C54.5644 30.8009 54.3097 32.1307 54.14 33.3473Z" fill="white"/>
<path id="Vector_55" d="M70.1798 23.4497C72.019 22.9121 73.8581 22.3462 75.8387 21.8369L86.1943 20.8466L96.5217 19.9412L99.917 18.7528L103.312 17.6211L99.9452 18.8377L96.55 20.0261L86.1943 21.0164L75.8387 21.9218L70.1798 23.4497Z" fill="white"/>
<path id="Vector_56" d="M27.2601 15.2412L21.6013 17.6462L15.9425 20.0229L13.7072 24.2387C19.1397 24.2387 24.5722 24.2387 29.9764 24.3802L36.4274 20.5888L44.4347 18.0706L52.4985 15.6939L44.463 18.1555L36.4274 20.5888L30.0047 24.4368L13.7355 24.267L15.9991 20.0795L21.6579 17.7311L27.2601 15.2412Z" fill="white"/>
</g>
<g id="Group_3" opacity="0.3">
<path id="Vector_57" d="M26.8562 15.2393L15.5385 17.9271L14.1238 18.2668L13.4448 18.4647H13.275C13.1831 18.5424 13.098 18.6275 13.0204 18.7194C12.3979 19.4267 11.832 20.219 11.2378 20.983L7.72937 25.6515C8.82341 24.067 9.95517 22.4826 11.1247 20.8981C11.6905 20.1341 12.2847 19.3419 12.9072 18.6063L13.1901 18.3233H13.3599L14.0672 18.1252L15.4819 17.7574L21.1408 16.4559L26.8562 15.2393Z" fill="black"/>
<path id="Vector_58" d="M63.4409 15.6958L59.989 16.7992L56.5371 17.8461L49.6334 20.0248L46.1815 21.1282C45.6262 21.3327 45.0871 21.5786 44.5687 21.8639L42.9559 22.6845L39.7304 24.3255L36.4766 25.9383L39.6738 24.2689L42.8993 22.5996L44.5121 21.7507C45.0428 21.4622 45.5908 21.2071 46.1532 20.9868L49.5768 19.855L56.5088 17.733L59.9607 16.7143L63.4409 15.6958Z" fill="black"/>
<path id="Vector_59" d="M72.1451 37.1999H75.4555H78.7942H85.4433H92.1208H95.4312H96.8742C96.8742 37.1999 96.8741 37.1999 97.0439 37.1999C97.4057 36.784 97.7457 36.3496 98.0625 35.8984C97.7577 36.36 97.4271 36.804 97.0722 37.2283C97.0722 37.2283 97.0722 37.2283 96.9024 37.3698H95.3746H92.0642H85.3867H72.0885L72.1451 37.1999Z" fill="black"/>
<path id="Vector_60" d="M95.3813 14.8716L96.3999 19.9645L95.7208 23.9823L95.0418 28C94.5891 30.688 94.1081 33.3477 93.5988 36.0356C94.0232 33.3477 94.4476 30.6597 94.9003 27.9718L95.5794 23.954L96.2584 19.9363C96.0604 18.2952 95.7774 16.5975 95.3813 14.8716Z" fill="black"/>
<path id="Vector_61" d="M77.1074 15.2129C76.7113 17.4481 76.2586 19.6834 75.8342 21.8904C75.8342 24.2954 75.8342 26.7286 75.8342 29.1336V32.7835V36.4052V29.1336C75.8342 26.7286 75.8342 24.2954 75.8342 21.8904C76.1454 19.6551 76.6264 17.4198 77.1074 15.2129Z" fill="black"/>
<path id="Vector_62" d="M102.002 13.2324C102.257 13.9398 102.455 14.6754 102.681 15.3827C102.907 16.0901 103.105 16.854 103.303 17.5897C103.162 18.1272 103.049 18.6649 102.936 19.2024C102.822 19.74 102.681 20.2493 102.54 20.7869C102.54 20.2493 102.709 19.7117 102.822 19.1741C102.936 18.6365 103.021 18.099 103.134 17.5614L102.54 15.3827C102.37 14.7037 102.172 13.9681 102.002 13.2324Z" fill="black"/>
<path id="Vector_63" d="M71.5333 28.2855L74.9851 28.0308L78.4087 27.8045L85.2842 27.3235L92.188 26.9274L95.6116 26.701L99.0635 26.5312L95.6116 26.7859L92.188 27.0123L85.3125 27.4932L78.4087 27.9176L74.9851 28.1157L71.5333 28.2855Z" fill="black"/>
<path id="Vector_64" d="M91.1391 15.896C91.1391 16.1789 91.2806 16.4619 91.3372 16.7449L92.95 16.5468L94.5627 16.4054L94.3929 15.6131C93.7988 15.6131 93.2046 15.6131 92.5821 15.6131L94.3647 15.3867L94.5344 16.179L92.9217 16.3205H91.2806C91.224 16.3771 91.1674 16.1789 91.1391 15.896Z" fill="black"/>
<path id="Vector_65" d="M3.67285 27.4082C3.47479 28.54 3.19187 29.6152 2.93722 30.7187V31.1431C2.93722 31.1431 2.93722 31.2845 2.93722 31.3694C2.93722 31.4542 2.93722 31.9353 2.93722 32.2182C2.93722 32.5012 2.93722 33.3783 2.93722 33.9441C2.93722 33.3783 2.79573 32.8407 2.73914 32.2748V31.4542V30.9733V30.5489C3.05038 29.5869 3.33332 28.4834 3.67285 27.4082Z" fill="black"/>
<path id="Vector_66" d="M45.9782 27.4082L46.6289 29.1059C46.7987 29.7 47.0251 30.2659 47.1948 30.8318C46.9968 30.2659 46.827 29.6718 46.6572 29.1059C46.4875 28.54 46.1196 28.0024 45.9782 27.4082Z" fill="black"/>
<path id="Vector_67" d="M-0.00122833 31.9048L3.2243 35.0737L14.6834 35.4416L20.3423 35.6396H26.0011H48.9194L53.5879 34.5079L48.9477 35.6962H26.0294H20.3706L14.7118 35.4982L3.25262 35.0455L-0.00122833 31.9048Z" fill="black"/>
</g>
<path id="Vector_68" d="M80.0301 14.7889C80.3979 15.185 95.3372 14.3079 95.6767 14.2513C97.804 13.9064 99.9104 13.4436 101.986 12.8649C98.8646 10.2012 95.5655 7.75288 92.1117 5.53675C88.604 4.97796 85.0425 4.83544 81.5014 5.11227C80.5677 5.48009 79.5774 14.3362 80.0301 14.7889Z" fill="#263238"/>
<path id="Vector_69" d="M81.0048 14.3926C81.3443 14.7321 94.9821 13.9399 95.2933 13.8833C97.2032 13.5717 99.0928 13.1466 100.952 12.6101C98.1083 10.1737 95.1022 7.93324 91.9546 5.90435C88.7365 5.39353 85.4689 5.27012 82.2214 5.5366C81.4858 5.87613 80.6086 13.9682 81.0048 14.3926Z" fill="#37474F"/>
<g id="Group_4" opacity="0.1">
<path id="Vector_70" d="M90.4736 5.67195L81.0234 11.3308C81.1583 9.6603 81.4328 8.00403 81.8439 6.37931L83.7113 5.21924C85.9721 5.24347 88.2298 5.39462 90.4736 5.67195Z" fill="white"/>
<path id="Vector_71" d="M97.8508 10.0007L91.1451 14.1316L87.2122 14.3297L96.2098 8.6709L97.8508 10.0007Z" fill="white"/>
<path id="Vector_72" d="M100.632 12.1531L98.9908 13.1716L97.7741 13.4263L100.292 11.8701C100.417 11.95 100.531 12.045 100.632 12.1531Z" fill="white"/>
</g>
<path id="Vector_73" d="M91.412 5.79213C92.6587 8.44437 93.7545 11.165 94.6941 13.9409C94.6941 14.1106 95.3166 13.9409 95.26 13.9409C95.2034 13.9409 91.8647 6.21648 91.9779 5.90524C92.0911 5.59401 91.412 5.79213 91.412 5.79213Z" fill="#263238"/>
<path id="Vector_74" d="M26.8464 15.2473L63.4307 15.7C64.3361 15.7 77.0685 15.0775 77.2382 14.9926C77.8637 11.6701 78.2045 8.30035 78.2568 4.91992C78.2568 4.72186 61.054 3.84473 58.9602 3.84473C56.8665 3.84473 39.6636 4.5804 38.7582 4.75016C34.495 7.90251 30.5098 11.4144 26.8464 15.2473Z" fill="#263238"/>
<path id="Vector_75" d="M27.9437 14.7889L62.3211 15.2133C63.1699 15.2133 75.5062 14.6474 75.6476 14.5625C76.1162 11.5967 76.3245 8.59552 76.2701 5.59334C76.2701 5.42358 59.7463 4.57471 57.7658 4.57471C55.7852 4.57471 39.6292 5.28211 38.7804 5.42358C34.9073 8.23009 31.2818 11.3633 27.9437 14.7889Z" fill="#37474F"/>
<path id="Vector_76" opacity="0.1" d="M45.2353 5.05631L29.3906 14.7895H36.4924L52.9313 4.74512C50.6395 4.83 47.7818 5.05631 45.2353 5.05631ZM67.0784 5.05631L50.6395 15.1573H47.1027L63.7114 4.94311L67.0784 5.05631ZM76.0759 11.3942C76.0759 12.3279 75.9062 13.1767 75.8213 13.7709L74.2368 14.7612L70.2757 14.9593L76.0759 11.3942ZM72.8221 5.39583L56.7793 15.2422H56.0154L72.0865 5.33927L72.8221 5.39583ZM42.7454 5.39583L28.9662 13.8841L30.579 12.3845L41.8966 5.45247H42.7737L42.7454 5.39583Z" fill="white"/>
<path id="Vector_77" d="M40.8016 24.4636C40.3206 24.9446 41.1694 28.0287 41.9333 28.2551C44.1175 28.2305 46.2952 28.0127 48.441 27.6043C50.7959 26.984 53.0956 26.1701 55.3164 25.171C55.9403 23.5189 56.0874 21.7248 55.7409 19.9932C52.2924 20.5221 48.8808 21.2687 45.5267 22.2284C43.8813 22.8148 42.2985 23.5635 40.8016 24.4636Z" fill="white"/>
<path id="Vector_78" d="M1.43439 26.052C1.99972 26.7901 2.63453 27.4723 3.33009 28.0892C4.02509 28.3537 4.76543 28.4786 5.50876 28.4569C6.06566 27.5828 6.48546 26.6286 6.75366 25.6275C6.11518 23.9599 5.21764 22.4035 4.09405 21.0156C3.09165 21.4414 2.18665 22.0672 1.43439 22.8547C1.26749 23.9139 1.26749 24.9928 1.43439 26.052Z" fill="white"/>
<path id="Vector_79" d="M1.55726 25.9119C1.55726 26.1949 2.29293 27.072 2.37781 27.1852C2.03571 26.8345 1.72339 26.456 1.4441 26.0534C1.27422 24.985 1.27422 23.8963 1.4441 22.8279C2.19636 22.0403 3.10136 21.4146 4.10376 20.9888C3.25638 21.5007 2.5008 22.151 1.8685 22.9128C1.78362 23.2806 1.58555 25.6007 1.55726 25.9119Z" fill="#DBDBDB"/>
<path id="Vector_80" d="M7.66771 25.7935C8.177 25.6237 18.4195 25.3125 20.4284 25.3125C22.4372 25.3125 35.6789 25.6237 36.5843 25.935C37.4897 26.2462 35.4525 31.5938 34.6603 32.0465C33.8681 32.4992 21.1074 33.4612 20.2303 33.4612C16.427 33.069 12.6485 32.4645 8.91266 31.6504C8.09213 31.2542 6.734 26.0764 7.66771 25.7935Z" fill="#263238"/>
<path id="Vector_81" d="M35.9639 29.2505C35.9639 29.2505 35.9639 29.4769 35.9639 29.5901L7.66972 29.0807V28.7412L35.9639 29.2505Z" fill="#EBEBEB"/>
<path id="Vector_82" d="M8.9105 38.0761H35.5919C36.1577 38.0761 33.2717 36.3501 32.7625 36.3218H10.976C10.495 36.3218 8.4295 38.0761 8.9105 38.0761Z" fill="#263238"/>
<path id="Vector_83" d="M1.49392 36.9434C1.80516 36.9434 4.74771 36.9434 5.257 36.9434C6.03502 36.0719 6.56296 35.0063 6.78491 33.8594C6.78491 33.4632 4.52135 32.1617 4.23841 32.0768C3.41448 31.9353 2.57249 31.9353 1.74856 32.0768C1.42769 33.678 1.34192 35.3175 1.49392 36.9434Z" fill="#A6A6A6"/>
<path id="Vector_84" d="M40.5424 33.3524C40.1745 33.8052 42.6078 36.578 43.5415 36.9175C45.7937 37.1953 48.0647 37.2899 50.3322 37.2004C50.4947 36.0934 50.4947 34.9687 50.3322 33.8617C49.9783 33.074 49.5007 32.3481 48.9175 31.7114C46.91 31.7239 44.9057 31.8751 42.9191 32.1641C42.0741 32.4445 41.2737 32.8447 40.5424 33.3524Z" fill="#A6A6A6"/>
<path id="Vector_85" d="M82.2932 13.9121V13.4028C83.0203 12.5914 83.8154 11.8436 84.6699 11.1675C86.0313 11.0896 87.3933 11.3118 88.6594 11.8183C88.7711 12.4073 88.7711 13.0119 88.6594 13.6008C87.553 13.9869 86.403 14.234 85.2358 14.3365C84.2478 14.2499 83.2654 14.1083 82.2932 13.9121Z" fill="#EBEBEB"/>
<path id="Vector_86" d="M82.1594 13.5459V14.0552L80.8579 15.0455V15.3568H79.5846V13.5459C79.7711 13.6557 79.9708 13.7412 80.1788 13.8005C80.5467 13.6874 82.1594 13.5459 82.1594 13.5459Z" fill="#EBEBEB"/>
</g>
</svg>
