<svg width="114" height="43" viewBox="0 0 114 43" fill="none" xmlns="http://www.w3.org/2000/svg">
<g id="Frame 1000002913" opacity="0.3">
<path id="Vector" d="M27.9048 13.4994V12.9985C27.1786 12.2015 26.3874 11.4662 25.5395 10.8001C24.2005 10.7235 22.8611 10.942 21.6159 11.4402C21.506 12.0194 21.506 12.6141 21.6159 13.1933C22.7135 13.573 23.8537 13.816 25.0108 13.9167C25.9822 13.8293 26.9482 13.69 27.9048 13.4994Z" fill="#808080"/>
<path id="Vector_2" d="M28.1079 13.0034V13.5043L29.3601 14.4783V14.7843H30.5845V13.0034C30.4087 13.1071 30.222 13.191 30.0279 13.2539C29.6661 13.2817 28.1079 13.0034 28.1079 13.0034Z" fill="#808080"/>
<g id="Group" opacity="0.1">
<path id="Vector_3" d="M27.918 13.4994V12.9985C27.1917 12.2015 26.4006 11.4662 25.5526 10.8001C24.2137 10.7235 22.8743 10.942 21.629 11.4402C21.5192 12.0194 21.5192 12.6141 21.629 13.1933C22.7267 13.573 23.8669 13.816 25.024 13.9167C25.9954 13.8293 26.9614 13.69 27.918 13.4994Z" fill="black"/>
<path id="Vector_4" d="M28.1127 12.998V13.4989L29.365 14.4729V14.7789H30.5894V12.998C30.4136 13.1017 30.2269 13.1857 30.0328 13.2485C29.671 13.2763 28.1127 12.998 28.1127 12.998Z" fill="black"/>
</g>
<path id="Vector_5" d="M50.7302 32.3676C50.7302 37.1539 52.7337 42.9976 56.9635 42.9976C57.3809 42.9976 63.0298 42.9976 63.4193 42.9976C66.8143 41.8846 68.8179 35.6512 68.4561 30.1971C68.15 25.9396 66.7865 21.1533 63.2246 20.5689H56.7965C52.5389 20.5411 50.5632 27.2474 50.7302 32.3676Z" fill="#263238"/>
<path id="Vector_6" d="M57.4874 32.3681C57.6266 37.1543 59.5188 42.9981 63.7485 42.9981C67.9783 42.9981 69.8984 36.2361 69.4809 30.1698C69.147 25.6061 67.7 20.5415 63.5537 20.5415C59.4075 20.5415 57.3483 27.2479 57.4874 32.3681Z" fill="#37474F"/>
<path id="Vector_7" d="M59.2448 32.2265C59.2448 35.8997 60.7753 40.4077 63.8919 40.4077C67.0086 40.4077 68.4278 35.204 68.0939 30.529C67.8712 27.0228 66.7581 23.127 63.725 23.127C60.6918 23.127 59.1335 28.275 59.2448 32.2265Z" fill="#C7C7C7"/>
<path id="Vector_8" d="M64.7236 23.9392C64.7076 26.0312 64.5027 28.1175 64.1114 30.1726C63.4795 28.185 63.0233 26.1458 62.7479 24.0784C63.0781 23.8898 63.453 23.7936 63.8332 23.8001C64.1353 23.801 64.4356 23.8479 64.7236 23.9392Z" fill="#263238"/>
<path id="Vector_9" d="M63.5283 30.4448C62.4485 29.3642 61.5132 28.1482 60.7456 26.8273C60.9878 26.1608 61.3252 25.5328 61.7474 24.9629C62.5239 26.7257 63.1206 28.5623 63.5283 30.4448Z" fill="#263238"/>
<path id="Vector_10" d="M63.2184 31.0024C62.0878 30.7571 61.0062 30.3244 60.0183 29.7224C60.0183 29.138 60.2131 28.5258 60.3522 27.9414C61.7158 29.2215 63.3297 30.7798 63.2184 31.0024Z" fill="#263238"/>
<path id="Vector_11" d="M63.092 31.6712C62.0917 32.1243 61.0162 32.3885 59.9197 32.4504V32.1999C59.8783 31.7092 59.8783 31.2158 59.9197 30.7251C61.0278 30.8355 62.1046 31.1566 63.092 31.6712Z" fill="#263238"/>
<path id="Vector_12" d="M60.3846 35.5654C60.2095 34.8978 60.0794 34.2192 59.9951 33.5341C61.4421 32.8662 63.1396 32.1427 63.2787 32.3653C63.4178 32.5879 61.6369 34.341 60.3846 35.5654Z" fill="#263238"/>
<path id="Vector_13" d="M62.1875 38.9929C61.5928 38.4104 61.1281 37.7086 60.824 36.9337C61.7701 35.3476 63.3562 32.7318 63.6067 32.8987C63.3073 34.9667 62.8325 37.0054 62.1875 38.9929Z" fill="#263238"/>
<path id="Vector_14" d="M65.4524 39.2988C65.0432 39.5822 64.5588 39.7371 64.061 39.744C63.8672 39.7714 63.6705 39.7714 63.4766 39.744C63.4792 37.5869 63.6841 35.4347 64.0888 33.3159C64.7156 35.267 65.1718 37.2689 65.4524 39.2988Z" fill="#263238"/>
<path id="Vector_15" d="M67.2295 36.2665C67.0348 36.9573 66.7543 37.6211 66.3947 38.2423C65.649 36.6031 65.089 34.8857 64.725 33.1221C65.6928 34.0571 66.5347 35.114 67.2295 36.2665Z" fill="#263238"/>
<path id="Vector_16" d="M67.7383 33.5354C67.6933 34.0862 67.619 34.6343 67.5157 35.1772C66.3191 34.0363 65.1225 32.8397 65.206 32.617C65.2895 32.3944 66.4861 32.951 67.7383 33.5354Z" fill="#263238"/>
<path id="Vector_17" d="M67.7855 31.1401C67.8134 31.6406 67.8134 32.1423 67.7855 32.6428C66.5333 32.3924 65.3646 32.0863 65.3646 31.8637C65.3646 31.6411 66.5333 31.3906 67.7855 31.1401Z" fill="#263238"/>
<path id="Vector_18" d="M67.7383 30.1687C66.5139 30.7531 65.3173 31.2539 65.206 31.0591C65.0947 30.8643 66.3469 29.4729 67.46 28.2764C67.5947 28.9002 67.6877 29.5324 67.7383 30.1687Z" fill="#263238"/>
<path id="Vector_19" d="M67.1094 26.9669C66.2189 28.4974 64.9389 30.6123 64.7162 30.4453C64.9531 28.5566 65.363 26.6936 65.9406 24.8799C66.4686 25.4885 66.8664 26.1987 67.1094 26.9669Z" fill="#263238"/>
<path id="Vector_20" d="M2.86905 32.3676C3.00819 37.1539 4.90045 42.9976 9.10236 42.9976C9.51976 42.9976 15.1965 42.9976 15.5582 42.9976C18.9532 41.8846 21.1237 35.6512 20.595 30.1971C20.2889 25.9396 18.9532 21.1533 15.3913 20.5689H8.93536C4.70563 20.5411 2.86905 27.2474 2.86905 32.3676Z" fill="#263238"/>
<path id="Vector_21" d="M9.69103 32.3681C9.69103 37.1543 11.6946 42.9981 15.9243 42.9981C20.1541 42.9981 22.0741 36.2361 21.6567 30.1698C21.3506 25.6061 19.8758 20.5415 15.7574 20.5415C11.6389 20.5415 9.52406 27.2479 9.69103 32.3681Z" fill="#37474F"/>
<path id="Vector_22" d="M11.4373 32.2265C11.4373 35.8997 12.94 40.4077 16.0845 40.4077C19.2289 40.4077 20.5925 35.204 20.2864 30.529C20.0359 27.0228 18.9507 23.127 15.8897 23.127C12.8287 23.127 11.2147 28.275 11.4373 32.2265Z" fill="#C7C7C7"/>
<path id="Vector_23" d="M16.7729 23.9396C16.7853 26.033 16.5801 28.122 16.1607 30.173C15.5288 28.1854 15.0725 26.1462 14.7972 24.0788C15.136 23.8866 15.5208 23.7904 15.9103 23.8005C16.2031 23.8038 16.4939 23.8507 16.7729 23.9396Z" fill="#263238"/>
<path id="Vector_24" d="M15.6934 30.4448C14.6251 29.3541 13.6909 28.1397 12.9106 26.8273C13.1306 26.151 13.4698 25.5196 13.9124 24.9629C14.6942 26.7236 15.2911 28.5608 15.6934 30.4448Z" fill="#263238"/>
<path id="Vector_25" d="M15.399 31.0024C14.2714 30.7471 13.1914 30.3151 12.1988 29.7224C12.1988 29.138 12.3936 28.5258 12.5328 27.9414C14.0076 29.2215 15.5103 30.7798 15.399 31.0024Z" fill="#263238"/>
<path id="Vector_26" d="M15.2471 31.6712C14.2485 32.1293 13.172 32.3937 12.0748 32.4504V32.1999C12.0472 31.7087 12.0472 31.2163 12.0748 30.7251C13.1828 30.8355 14.2596 31.1566 15.2471 31.6712Z" fill="#263238"/>
<path id="Vector_27" d="M12.5501 35.5654C12.3709 34.9 12.2499 34.2204 12.1883 33.5341C13.6353 32.8662 15.305 32.1427 15.4441 32.3653C15.5832 32.5879 13.8301 34.341 12.5501 35.5654Z" fill="#263238"/>
<path id="Vector_28" d="M14.3609 38.9853C13.7679 38.4068 13.3116 37.7033 13.0251 36.9261C13.762 35.4591 14.6985 34.1012 15.8079 32.8911C15.5131 34.9625 15.0288 37.0025 14.3609 38.9853Z" fill="#263238"/>
<path id="Vector_29" d="M17.6169 39.2988C17.2093 39.5853 16.7239 39.7406 16.2256 39.744C16.0412 39.7727 15.8535 39.7727 15.669 39.744C15.6576 37.5862 15.8627 35.4327 16.2813 33.3159C16.8819 35.2723 17.3285 37.2727 17.6169 39.2988Z" fill="#263238"/>
<path id="Vector_30" d="M19.4265 36.2665C19.2347 36.9628 18.9442 37.6282 18.5639 38.2423C17.8182 36.6031 17.2582 34.8857 16.8942 33.1221C17.8744 34.0529 18.7261 35.1103 19.4265 36.2665Z" fill="#263238"/>
<path id="Vector_31" d="M19.9241 33.5354C19.8699 34.0867 19.7863 34.6348 19.6736 35.1772C18.5049 34.0363 17.2805 32.8397 17.364 32.617C17.4475 32.3944 18.644 32.951 19.9241 33.5354Z" fill="#263238"/>
<path id="Vector_32" d="M19.9773 31.1401V32.6428C18.7251 32.3924 17.5564 32.0863 17.5285 31.8637C17.5007 31.6411 18.6972 31.3906 19.9773 31.1401Z" fill="#263238"/>
<path id="Vector_33" d="M19.8933 30.1687C18.6967 30.7531 17.4724 31.2539 17.3611 31.0591C17.2498 30.8643 18.5298 29.4729 19.6429 28.2764C19.7542 28.9164 19.8377 29.5565 19.8933 30.1687Z" fill="#263238"/>
<path id="Vector_34" d="M19.2896 26.9669C18.3991 28.4974 17.1469 30.6123 16.9243 30.4453C17.1347 28.5546 17.5355 26.69 18.1208 24.8799C18.6488 25.4885 19.0466 26.1987 19.2896 26.9669Z" fill="#263238"/>
<path id="Vector_35" d="M94.2187 32.3676C94.2187 37.1539 96.25 42.9976 100.48 42.9976C100.869 42.9976 106.546 42.9976 106.908 42.9976C110.303 41.8846 112.473 35.6512 111.945 30.1971C111.638 25.9396 110.303 21.1533 106.741 20.5689H100.257C96.0274 20.5411 94.0795 27.2474 94.2187 32.3676Z" fill="#263238"/>
<path id="Vector_36" d="M101.024 32.3681C101.024 37.1543 103.027 42.9981 107.257 42.9981C111.487 42.9981 113.407 36.2361 112.989 30.1698C112.683 25.6061 111.208 20.5415 107.09 20.5415C102.971 20.5415 100.884 27.2479 101.024 32.3681Z" fill="#37474F"/>
<path id="Vector_37" d="M102.774 32.2265C102.774 35.8997 104.277 40.4077 107.421 40.4077C110.566 40.4077 111.957 35.204 111.623 30.529C111.372 27.0228 110.287 23.127 107.226 23.127C104.165 23.127 102.663 28.275 102.774 32.2265Z" fill="#C7C7C7"/>
<path id="Vector_38" d="M108.221 23.9393C108.234 26.0327 108.028 28.1217 107.609 30.1727C106.977 28.1851 106.521 26.1459 106.245 24.0785C106.585 23.8888 106.969 23.7928 107.359 23.8002C107.651 23.8035 107.942 23.8504 108.221 23.9393Z" fill="#263238"/>
<path id="Vector_39" d="M107.026 30.4448C105.958 29.3541 105.024 28.1397 104.243 26.8273C104.474 26.1558 104.813 25.5261 105.245 24.9629C106.027 26.7236 106.624 28.5608 107.026 30.4448Z" fill="#263238"/>
<path id="Vector_40" d="M106.743 31.0024C105.604 30.7546 104.514 30.3222 103.515 29.7224C103.595 29.1213 103.716 28.5262 103.877 27.9414C104.955 28.8393 105.918 29.8675 106.743 31.0024Z" fill="#263238"/>
<path id="Vector_41" d="M106.575 31.6712C105.588 32.1338 104.52 32.3985 103.431 32.4504C103.417 32.3674 103.417 32.2829 103.431 32.1999C103.431 31.7269 103.431 31.226 103.431 30.7251C104.529 30.8389 105.596 31.1599 106.575 31.6712Z" fill="#263238"/>
<path id="Vector_42" d="M103.887 35.5654C103.721 34.8971 103.6 34.2185 103.525 33.5341C104.972 32.8662 106.669 32.1427 106.781 32.3653C106.892 32.5879 105.167 34.341 103.887 35.5654Z" fill="#263238"/>
<path id="Vector_43" d="M105.695 38.9853C105.102 38.4068 104.645 37.7033 104.359 36.9261C105.096 35.4591 106.032 34.1012 107.142 32.8911C106.861 34.9651 106.376 37.0063 105.695 38.9853Z" fill="#263238"/>
<path id="Vector_44" d="M108.945 39.2988C108.537 39.5853 108.052 39.7406 107.554 39.744C107.369 39.7727 107.182 39.7727 106.997 39.744C106.986 37.5862 107.191 35.4327 107.609 33.3159C108.21 35.2723 108.657 37.2727 108.945 39.2988Z" fill="#263238"/>
<path id="Vector_45" d="M110.75 36.2665C110.558 36.9628 110.267 37.6282 109.887 38.2423C109.146 36.604 108.595 34.886 108.245 33.1221C109.204 34.0655 110.045 35.1213 110.75 36.2665Z" fill="#263238"/>
<path id="Vector_46" d="M111.258 33.5354C111.204 34.0867 111.12 34.6348 111.007 35.1772C109.839 34.0363 108.614 32.8397 108.698 32.617C108.781 32.3944 109.978 32.951 111.258 33.5354Z" fill="#263238"/>
<path id="Vector_47" d="M111.389 31.1401C111.416 31.6406 111.416 32.1423 111.389 32.6428C110.136 32.3924 108.968 32.0863 108.94 31.8637C108.912 31.6411 110.053 31.3906 111.389 31.1401Z" fill="#263238"/>
<path id="Vector_48" d="M111.221 30.1687C110.024 30.7531 108.8 31.2539 108.689 31.0591C108.577 30.8643 109.857 29.4729 110.971 28.2764C111.082 28.9164 111.165 29.5565 111.221 30.1687Z" fill="#263238"/>
<path id="Vector_49" d="M110.623 26.9669C109.733 28.4974 108.481 30.6123 108.258 30.4453C108.468 28.5546 108.869 26.69 109.455 24.8799C109.983 25.4885 110.38 26.1987 110.623 26.9669Z" fill="#263238"/>
<path id="Vector_50" d="M69.6507 39.4868H98.0066C99.0237 37.8972 99.9526 36.2529 100.789 34.5614C100.789 33.8935 100.288 20.3974 107.273 20.3974C113.339 20.3974 113.061 33.9492 113.061 33.9492L113.812 32.8083L113.979 30.8326L113.506 29.6638C113.902 26.5265 114.06 23.3637 113.979 20.2026C112.681 18.0364 111.22 15.9714 109.611 14.0249C109.36 13.7745 105.242 13.0788 104.963 12.8284C104.685 12.5779 93.2203 3.11665 88.128 2.00356C80.4047 0.694254 72.5866 0.0241267 64.7531 0C56.4292 0.27758 48.1303 1.06753 39.9034 2.36533C38.5677 2.81056 26.296 14.3311 26.296 14.3311C26.296 14.3311 13.2172 16.0285 11.4641 16.4181C8.3284 17.8008 5.39771 19.6079 2.75417 21.7887C2.4759 22.3453 1.61324 28.5786 1.61324 28.5786C1.33459 29.1911 1.10206 29.8236 0.917564 30.4708C0.917564 30.8326 1.72456 36.7319 1.83587 37.038C2.27533 37.7302 2.81984 38.3498 3.44985 38.8746C3.72812 38.8746 50.1717 39.5981 50.7561 39.4868C52.0189 39.1845 53.2563 38.7844 54.4571 38.2902C54.9023 37.9841 55.765 20.5365 63.7514 20.5365C70.6525 20.5365 70.0959 33.8657 69.6507 39.4868Z" fill="#808080"/>
<path id="Vector_51" opacity="0.1" d="M30.6943 39.2955C17.8938 39.1285 3.6185 38.9337 3.45154 38.8502C2.81565 38.3424 2.26999 37.7308 1.83756 37.0414C1.83756 36.7353 0.891428 30.836 0.919254 30.4742C1.10374 29.827 1.33628 29.1945 1.61493 28.582C1.61493 28.582 2.47759 22.3487 2.75586 21.7921C5.39939 19.6113 8.33009 17.8042 11.4657 16.4215C13.2189 16.0319 26.2976 14.3345 26.2976 14.3345C26.2976 14.3345 14.4433 17.1172 13.8311 17.5346C13.2189 17.952 8.62739 23.1 8.09867 23.7957C7.67426 26.0464 7.41385 28.3249 7.31952 30.6133C7.15255 31.0864 6.03946 33.9804 5.92816 34.4813C5.93034 35.4363 6.11939 36.3817 6.48469 37.264C6.62383 37.431 29.6091 39.212 30.6943 39.2955Z" fill="black"/>
<path id="Vector_52" opacity="0.1" d="M69.6566 39.4904C70.1575 34.398 70.6584 22.9332 65.566 20.874C68.1539 21.3471 71.7993 25.6325 71.9662 36.7912L98.1238 39.5739L69.6566 39.4904Z" fill="black"/>
<g id="Group_2" opacity="0.6">
<path id="Vector_53" d="M97.3316 32.2465C97.5576 29.5389 98.1377 26.8725 99.057 24.3157C99.3074 23.7035 99.5578 23.0635 99.8639 22.4513C100.164 21.8426 100.508 21.2566 100.894 20.6981C101.285 20.1348 101.732 19.6127 102.229 19.1398L103.036 18.4999C103.342 18.3329 103.621 18.138 103.927 17.9989C104.568 17.7146 105.257 17.5542 105.958 17.5259C106.65 17.477 107.343 17.5815 107.989 17.8319C109.268 18.396 110.318 19.377 110.967 20.6147C111.66 21.791 112.193 23.0543 112.553 24.3714C112.89 25.6785 113.132 27.0084 113.277 28.3506C113.115 27.0091 112.826 25.686 112.414 24.3992C112.047 23.1112 111.514 21.8764 110.828 20.726C110.164 19.5599 109.138 18.6417 107.906 18.1102C107.288 17.8646 106.62 17.7692 105.958 17.8319C105.293 17.8405 104.639 17.9924 104.038 18.2772C103.742 18.4182 103.454 18.5762 103.175 18.7503C102.897 18.9396 102.636 19.1538 102.396 19.3903C101.895 19.8304 101.455 20.3358 101.088 20.893C100.326 22.0008 99.6997 23.1968 99.2239 24.4548C98.7506 25.7173 98.3601 27.0095 98.0552 28.3228C97.7463 29.6173 97.5048 30.927 97.3316 32.2465Z" fill="white"/>
<path id="Vector_54" d="M54.1445 32.2455C54.3816 29.6081 54.9424 27.0099 55.8141 24.5095C56.2471 23.2496 56.8261 22.0449 57.5394 20.9198C57.9189 20.371 58.3374 19.8502 58.7916 19.3615C59.2723 18.8906 59.8153 18.4879 60.4056 18.1649C61.0062 17.8532 61.6555 17.6462 62.3257 17.5527C62.9983 17.4421 63.6845 17.4421 64.3571 17.5527C65.6628 17.9062 66.8163 18.6785 67.6407 19.751C68.4567 20.8042 69.1044 21.9777 69.5607 23.2294C70.027 24.4733 70.3718 25.7593 70.5903 27.0696C70.3412 25.7722 69.9589 24.504 69.4494 23.2851C68.9776 22.0605 68.3206 20.9156 67.5015 19.8902C66.6798 18.8706 65.5615 18.1315 64.3014 17.7753C63.6569 17.6642 62.9981 17.6642 62.3535 17.7753C61.712 17.8618 61.0905 18.0596 60.5169 18.3597C59.9518 18.6734 59.4283 19.0567 58.9586 19.5006C58.5055 19.9731 58.0957 20.4853 57.7342 21.0311C57.0236 22.1323 56.4357 23.3081 55.9811 24.5373C55.517 25.772 55.1358 27.0364 54.8401 28.3219C54.5619 29.6297 54.3114 30.9376 54.1445 32.2455Z" fill="white"/>
<path id="Vector_55" d="M69.9195 22.4008L75.485 20.8147L85.6697 19.8407L95.8266 18.9502L99.1659 17.8094L102.505 16.6685L99.1937 17.865L95.8544 19.0616L85.6697 20.0077L75.485 20.926L69.9195 22.4008Z" fill="white"/>
<path id="Vector_56" d="M27.7081 14.355L22.1427 16.6925L16.5773 19.03L14.3789 23.1484C19.7218 23.1484 25.0646 23.1484 30.3796 23.2876L36.7242 19.5587L44.5993 17.1099L52.53 14.7724L44.6271 17.1934L36.7242 19.5865L30.4074 23.3432L14.4068 23.1762L16.6329 19.0578L22.1984 16.7482L27.7081 14.355Z" fill="white"/>
</g>
<g id="Group_3" opacity="0.3">
<path id="Vector_57" d="M27.3108 14.3379L16.1799 17.1206L14.7886 17.4545L14.1207 17.6215H13.9537L13.7033 17.8719C13.0911 18.5954 12.5345 19.3467 11.9502 20.1259C10.7814 21.6286 9.64054 23.1591 8.49963 24.6896C9.58489 23.1313 10.698 21.5729 11.8389 20.0424C12.3954 19.2633 12.9798 18.5119 13.592 17.7606L13.8703 17.5101H14.0372L14.7329 17.3153L16.1243 16.9814C17.9887 16.5362 19.8531 16.091 21.6897 15.7014L27.3108 14.3379Z" fill="black"/>
<path id="Vector_58" d="M63.2917 14.7856L59.8968 15.8709L56.5019 16.9284L49.7121 19.0433L46.3171 20.1285C45.7705 20.3391 45.2403 20.5902 44.731 20.8798L43.1449 21.6868L39.9726 23.3008L36.7724 24.8869L39.9169 23.2174L43.0892 21.5755L44.6197 20.7407C45.1299 20.4346 45.6709 20.1828 46.2337 19.9894L49.6007 18.8762L56.4184 16.7892L59.8133 15.7596L63.2917 14.7856Z" fill="black"/>
<path id="Vector_59" d="M71.8521 35.9368H75.1079H78.3915H84.9309H91.4981H94.7539H96.1731C96.1731 35.9368 96.1731 35.9368 96.34 35.9368C96.507 35.9368 97.0079 35.0741 97.3418 34.6289C97.0422 35.0919 96.7171 35.5378 96.3679 35.9646C96.3679 35.9646 96.3678 35.9646 96.2009 35.9646H94.6982H91.4424H84.8752H78.3358H71.7965L71.8521 35.9368Z" fill="black"/>
<path id="Vector_60" d="M94.705 14.0024L95.7068 18.9835L95.0389 22.935L94.3711 26.8864C93.9259 29.53 93.4528 32.1458 92.9519 34.7894C93.3693 32.1458 93.7867 29.5023 94.2319 26.8587L94.8998 22.9072L95.5676 18.9557C95.3729 17.3417 95.0946 15.6721 94.705 14.0024Z" fill="black"/>
<path id="Vector_61" d="M76.7327 14.3379C76.3431 16.5084 75.8979 18.7067 75.4805 20.8772C75.4805 23.2703 75.4805 25.6357 75.4805 28.0288V31.5907V35.1804V28.0288C75.4805 25.6357 75.4805 23.2703 75.4805 20.8772C75.7866 18.6789 76.2596 16.5084 76.7327 14.3379Z" fill="black"/>
<path id="Vector_62" d="M101.217 12.3901C101.467 13.0858 101.662 13.8093 101.884 14.5328C102.107 15.2563 102.302 15.952 102.497 16.6755C102.357 17.1764 102.246 17.7051 102.135 18.2339C102.024 18.7626 101.884 19.2913 101.745 19.7922C101.745 19.2635 101.912 18.7347 102.024 18.206C102.135 17.6773 102.218 17.1486 102.33 16.6198L101.745 14.4493C101.578 13.8093 101.383 13.0858 101.217 12.3901Z" fill="black"/>
<path id="Vector_63" d="M71.2506 27.196L74.6455 26.9177L78.0126 26.6951L84.7745 26.222L91.5644 25.8324L94.9315 25.6377L98.3264 25.4429L94.9315 25.7212L91.5644 25.9437L84.8024 26.389L78.0126 26.8064L74.6455 27.0012L71.2506 27.196Z" fill="black"/>
<path id="Vector_64" d="M90.5328 14.9721C90.5328 15.2504 90.672 15.5287 90.7276 15.8069L92.3137 15.64L93.8999 15.5008L93.7329 14.7495H91.952L93.7051 14.5547L93.872 15.306H92.2859H90.6719C90.6163 15.5564 90.5606 15.1669 90.5328 14.9721Z" fill="black"/>
<path id="Vector_65" d="M4.51025 26.3057C4.31546 27.4188 4.03721 28.504 3.78676 29.5893V29.9789V30.1458C3.78676 30.1458 3.78676 30.285 3.78676 30.3406C3.78676 30.3963 3.78676 30.8972 3.78676 31.2033C3.78676 31.5094 3.78676 32.3163 3.78676 32.8728C3.78676 32.3441 3.64761 31.7876 3.59195 31.231V30.4241V29.951V29.5336C3.89805 28.4762 4.17633 27.3909 4.51025 26.3057Z" fill="black"/>
<path id="Vector_66" d="M46.1174 26.3057C46.34 26.8622 46.5348 27.4187 46.7574 28.0031C46.98 28.5875 47.147 29.1162 47.314 29.7006C47.314 30.118 47.314 30.5354 47.314 30.9528C47.314 31.3702 47.314 31.8155 47.314 32.2329C47.314 31.8155 47.314 31.3981 47.314 30.9528C47.314 30.5076 47.314 30.118 47.314 29.7006C47.1192 29.144 46.9522 28.5875 46.7852 28.0031C46.6183 27.4187 46.2565 26.89 46.1174 26.3057Z" fill="black"/>
<path id="Vector_67" d="M0.896626 30.7275L4.06892 33.8442L15.3389 34.2338L20.9044 34.4007H26.4698H49.0099L53.6013 33.2877L49.0377 34.4564H26.4977H20.9322C19.0678 34.4564 17.1756 34.4564 15.3668 34.2616L4.09678 33.8164L0.896626 30.7275Z" fill="black"/>
</g>
<path id="Vector_68" d="M79.6073 13.8892C79.969 14.2787 94.6618 13.416 94.9957 13.3882C97.0884 13.0397 99.16 12.5752 101.201 11.9969C98.131 9.37713 94.8863 6.96918 91.4895 4.78962C88.0397 4.24006 84.537 4.09997 81.0543 4.37223C80.136 4.73399 79.1621 13.4718 79.6073 13.8892Z" fill="#263238"/>
<path id="Vector_69" d="M80.5657 13.4966C80.8996 13.8305 94.3123 13.0514 94.6184 13.0236C96.4943 12.7042 98.352 12.2862 100.184 11.7713C97.3938 9.36656 94.4366 7.1627 91.3348 5.17628C88.1694 4.67945 84.9575 4.54869 81.7623 4.78666C81.0387 5.12059 80.1761 13.107 80.5657 13.4966Z" fill="#37474F"/>
<g id="Group_4" opacity="0.1">
<path id="Vector_70" d="M89.8784 4.92732L80.5841 10.6597C80.717 9.00765 80.9869 7.36945 81.3911 5.7621L83.2277 4.62117C85.4486 4.59881 87.669 4.70105 89.8784 4.92732Z" fill="white"/>
<path id="Vector_71" d="M97.1335 9.18532L90.5385 13.2481L86.6705 13.4429L95.5196 7.87744L97.1335 9.18532Z" fill="white"/>
<path id="Vector_72" d="M99.8689 11.3021L98.2549 12.304L97.0584 12.5544L99.535 11.0239L99.8689 11.3021Z" fill="white"/>
</g>
<path id="Vector_73" d="M90.8013 5.04152C92.0275 7.65943 93.1051 10.3444 94.0292 13.0836C94.0292 13.2227 94.6414 13.0836 94.5858 13.0836C94.5301 13.0836 91.2465 5.4868 91.3578 5.1807C91.4691 4.8746 90.8013 5.04152 90.8013 5.04152Z" fill="#263238"/>
<path id="Vector_74" d="M27.301 14.3345L63.2816 14.7796C64.1721 14.7796 76.6943 14.1953 76.8613 14.1118C77.4764 10.8348 77.8115 7.51134 77.863 4.17748C77.863 3.98269 60.9441 3.12012 58.8849 3.12012C56.8257 3.12012 39.9068 3.84356 39.0163 4.01052C34.83 7.11894 30.9113 10.5723 27.301 14.3345Z" fill="#263238"/>
<path id="Vector_75" d="M28.3802 13.9211L62.1903 14.3385C63.0251 14.3385 75.1577 13.7541 75.2969 13.6706C75.7589 10.7632 75.9638 7.82065 75.9091 4.87723C75.9091 4.68244 59.658 3.87549 57.7101 3.87549C55.7622 3.87549 39.8729 4.54331 39.038 4.71027C35.2158 7.45388 31.6487 10.5366 28.3802 13.9211Z" fill="#37474F"/>
<path id="Vector_76" opacity="0.1" d="M45.3888 4.34952L29.8056 13.9221H36.7902L52.9578 4.04346L45.3888 4.34952ZM66.8436 4.34952L50.676 14.2838H47.1976L63.5322 4.04346L66.8436 4.34952ZM75.6926 10.555C75.6926 11.4733 75.5257 12.3081 75.4422 12.9203L73.8839 13.8665L69.988 14.0613L75.6926 10.555ZM72.4925 4.65566L56.7145 14.3396H55.9632L71.769 4.6278L72.4925 4.65566ZM42.9122 4.65566L29.3604 13.0038L30.9465 11.5568L42.0774 4.73914L42.9122 4.65566Z" fill="white"/>
<path id="Vector_77" d="M41.0278 23.5227C40.5547 24.0236 41.3895 27.0289 42.1408 27.2515C44.2897 27.2412 46.4328 27.0269 48.5411 26.6115C50.8527 25.9984 53.1134 25.2077 55.3031 24.2462C55.9138 22.6208 56.0584 20.857 55.7205 19.1538C52.3241 19.6474 48.9671 20.3821 45.6749 21.3522C44.0579 21.9202 42.5012 22.6473 41.0278 23.5227Z" fill="white"/>
<path id="Vector_78" d="M2.30856 24.9649C2.86434 25.6995 3.48861 26.3797 4.17297 26.9963C4.8565 27.2566 5.58462 27.3795 6.31568 27.3581C6.86111 26.4972 7.27383 25.5591 7.54004 24.5754C6.9121 22.9353 6.02936 21.4045 4.92432 20.0396C3.93847 20.4583 3.0484 21.0738 2.30856 21.8483C2.14732 22.8809 2.14732 23.9323 2.30856 24.9649Z" fill="white"/>
<path id="Vector_79" d="M2.42912 24.8282C2.42912 25.1065 3.15265 25.9692 3.23613 26.0805C2.89968 25.7356 2.59251 25.3632 2.31783 24.9673C2.15075 23.9165 2.15075 22.8459 2.31783 21.7951C3.05767 21.0205 3.94774 20.4051 4.93359 19.9863C4.09896 20.4994 3.35592 21.1484 2.73522 21.9064C2.65174 22.2403 2.45695 24.5221 2.42912 24.8282Z" fill="#DBDBDB"/>
<path id="Vector_80" d="M8.43898 24.7123C8.93987 24.5453 19.0133 24.2393 20.989 24.2393C22.9648 24.2393 35.9879 24.5453 36.8784 24.8792C37.7688 25.2132 35.7653 30.4447 34.9861 30.8621C34.2069 31.2795 21.6569 32.2535 20.7943 32.2535C17.0537 31.8678 13.3376 31.2732 9.66339 30.4725C8.8564 30.0829 7.52069 25.0184 8.43898 24.7123Z" fill="#263238"/>
<path id="Vector_81" d="M36.2681 28.1347C36.2681 28.1347 36.2681 28.3294 36.2681 28.4407L8.44088 27.9399V27.606L36.2681 28.1347Z" fill="#808080"/>
<path id="Vector_82" d="M9.66138 36.7922H35.9024C36.4589 36.7922 33.6206 35.0947 33.1197 35.0669H11.6928C11.2197 35.0669 9.18832 36.7922 9.66138 36.7922Z" fill="#263238"/>
<path id="Vector_83" d="M3.03138 35.6782C4.25435 35.7618 5.48162 35.7618 6.70459 35.6782C7.17765 35.6782 8.2907 33.0347 8.23505 32.6451C7.50066 31.9163 6.64346 31.3228 5.70281 30.892C4.89247 30.7528 4.06433 30.7528 3.254 30.892C2.93349 32.4664 2.8584 34.0809 3.03138 35.6782Z" fill="#455A64"/>
<path id="Vector_84" d="M40.7696 32.2556C40.4078 32.7009 42.8009 35.4279 43.7192 35.7618C45.9342 36.035 48.1677 36.1281 50.3978 36.0401C50.5601 34.9516 50.5601 33.845 50.3978 32.7565C50.0498 31.9818 49.5801 31.2678 49.0064 30.6416C47.0309 30.6503 45.0588 30.8085 43.1071 31.1147C42.2779 31.3825 41.4908 31.7667 40.7696 32.2556Z" fill="#455A64"/>
<path id="Vector_85" d="M81.8431 13.0293V12.5562C82.5565 11.748 83.3386 11.0032 84.1806 10.33C85.5216 10.2622 86.8611 10.4902 88.1042 10.9979C88.2146 11.5677 88.2146 12.1533 88.1042 12.7231C87.0201 13.1165 85.8872 13.36 84.7371 13.4467C83.7654 13.3615 82.7993 13.2222 81.8431 13.0293Z" fill="#808080"/>
<path id="Vector_86" d="M81.7012 12.5522V13.0253L80.4211 13.9992C80.4029 14.1098 80.4029 14.2227 80.4211 14.3332H79.1689V12.5522C79.3547 12.6482 79.5507 12.7229 79.7533 12.7749C80.4071 12.7476 81.0581 12.6732 81.7012 12.5522Z" fill="#808080"/>
</g>
</svg>
