<svg width="80" height="31" viewBox="0 0 80 31" fill="none" xmlns="http://www.w3.org/2000/svg">
<g id="Frame 1000002913" opacity="0.3">
<path id="Vector" d="M60.8972 9.8412V9.48693C61.4109 8.9232 61.9705 8.40308 62.5703 7.93196C63.5174 7.87777 64.4648 8.03233 65.3455 8.38469C65.4233 8.79438 65.4233 9.21503 65.3455 9.62472C64.5692 9.8933 63.7626 10.0651 62.9442 10.1364C62.2571 10.0746 61.5738 9.97604 60.8972 9.8412Z" fill="#808080"/>
<path id="Vector_2" d="M60.7537 9.49023V9.84451L59.868 10.5334V10.7499H59.002V9.49023C59.1263 9.56354 59.2583 9.62294 59.3956 9.66737C59.6515 9.68706 60.7537 9.49023 60.7537 9.49023Z" fill="#808080"/>
<g id="Group" opacity="0.1">
<path id="Vector_3" d="M60.8879 9.8412V9.48693C61.4016 8.9232 61.9612 8.40308 62.561 7.93196C63.5081 7.87777 64.4555 8.03233 65.3363 8.38469C65.414 8.79438 65.414 9.21503 65.3363 9.62472C64.5599 9.8933 63.7534 10.0651 62.9349 10.1364C62.2478 10.0746 61.5645 9.97604 60.8879 9.8412Z" fill="black"/>
<path id="Vector_4" d="M60.7501 9.48633V9.8406L59.8643 10.5295V10.746H58.9983V9.48633C59.1226 9.55963 59.2547 9.61903 59.392 9.66347C59.6478 9.68315 60.7501 9.48633 60.7501 9.48633Z" fill="black"/>
</g>
<path id="Vector_5" d="M44.7522 23.1869C44.7522 26.5723 43.3351 30.7057 40.3433 30.7057C40.048 30.7057 36.0524 30.7057 35.7769 30.7057C33.3755 29.9184 31.9584 25.5095 32.2142 21.6516C32.4307 18.6401 33.3952 15.2547 35.9146 14.8414H40.4614C43.4728 14.8217 44.8703 19.5652 44.7522 23.1869Z" fill="#263238"/>
<path id="Vector_6" d="M39.9728 23.1875C39.8744 26.5729 38.536 30.7063 35.5442 30.7063C32.5524 30.7063 31.1943 25.9234 31.4895 21.6326C31.7257 18.4046 32.7492 14.8223 35.682 14.8223C38.6147 14.8223 40.0712 19.5658 39.9728 23.1875Z" fill="#37474F"/>
<path id="Vector_7" d="M38.7297 23.0872C38.7297 25.6853 37.6472 28.874 35.4427 28.874C33.2382 28.874 32.2343 25.1932 32.4705 21.8865C32.628 19.4065 33.4153 16.6509 35.5608 16.6509C37.7062 16.6509 38.8084 20.2922 38.7297 23.0872Z" fill="#C7C7C7"/>
<path id="Vector_8" d="M34.8545 17.2251C34.8658 18.7048 35.0108 20.1804 35.2875 21.6341C35.7345 20.2282 36.0572 18.7858 36.252 17.3235C36.0184 17.1901 35.7532 17.1221 35.4843 17.1267C35.2706 17.1273 35.0582 17.1605 34.8545 17.2251Z" fill="#263238"/>
<path id="Vector_9" d="M35.7 21.8267C36.4637 21.0623 37.1253 20.2023 37.6682 19.268C37.4969 18.7965 37.2583 18.3523 36.9597 17.9492C36.4104 19.1961 35.9884 20.4952 35.7 21.8267Z" fill="#263238"/>
<path id="Vector_10" d="M35.9191 22.2213C36.7188 22.0477 37.4839 21.7417 38.1827 21.3159C38.1827 20.9025 38.0449 20.4695 37.9465 20.0562C36.982 20.9616 35.8404 22.0638 35.9191 22.2213Z" fill="#263238"/>
<path id="Vector_11" d="M36.0083 22.6946C36.7159 23.0151 37.4766 23.2019 38.2521 23.2457V23.0686C38.2814 22.7215 38.2814 22.3725 38.2521 22.0254C37.4684 22.1034 36.7068 22.3306 36.0083 22.6946Z" fill="#263238"/>
<path id="Vector_12" d="M37.9236 25.4488C38.0474 24.9766 38.1395 24.4966 38.1991 24.012C37.1756 23.5396 35.9749 23.0279 35.8765 23.1853C35.7781 23.3428 37.0378 24.5828 37.9236 25.4488Z" fill="#263238"/>
<path id="Vector_13" d="M36.6483 27.8731C37.069 27.461 37.3977 26.9647 37.6128 26.4166C36.9436 25.2946 35.8217 23.4444 35.6445 23.5625C35.8563 25.0252 36.1921 26.4673 36.6483 27.8731Z" fill="#263238"/>
<path id="Vector_14" d="M34.3389 28.0898C34.6283 28.2902 34.971 28.3998 35.323 28.4046C35.4601 28.424 35.5993 28.424 35.7364 28.4046C35.7346 26.8789 35.5896 25.3566 35.3033 23.8579C34.8601 25.238 34.5373 26.6539 34.3389 28.0898Z" fill="#263238"/>
<path id="Vector_15" d="M33.082 25.9448C33.2198 26.4335 33.4181 26.903 33.6725 27.3423C34.2 26.1829 34.5961 24.9682 34.8535 23.7207C34.169 24.382 33.5735 25.1297 33.082 25.9448Z" fill="#263238"/>
<path id="Vector_16" d="M32.7219 24.0127C32.7537 24.4023 32.8063 24.7899 32.8794 25.174C33.7258 24.367 34.5721 23.5206 34.5131 23.3631C34.454 23.2056 33.6077 23.5993 32.7219 24.0127Z" fill="#263238"/>
<path id="Vector_17" d="M32.6886 22.3188C32.6689 22.6729 32.6689 23.0277 32.6886 23.3817C33.5743 23.2046 34.401 22.9881 34.401 22.8306C34.401 22.6732 33.5743 22.496 32.6886 22.3188Z" fill="#263238"/>
<path id="Vector_18" d="M32.7219 21.6314C33.588 22.0448 34.4343 22.399 34.5131 22.2613C34.5918 22.1235 33.706 21.1393 32.9187 20.293C32.8235 20.7342 32.7577 21.1814 32.7219 21.6314Z" fill="#263238"/>
<path id="Vector_19" d="M33.1667 19.3668C33.7966 20.4494 34.702 21.9453 34.8595 21.8272C34.6919 20.4913 34.402 19.1735 33.9934 17.8906C33.6199 18.3211 33.3386 18.8235 33.1667 19.3668Z" fill="#263238"/>
<path id="Vector_20" d="M78.6056 23.1869C78.5072 26.5723 77.1688 30.7057 74.1967 30.7057C73.9014 30.7057 69.8861 30.7057 69.6303 30.7057C67.229 29.9184 65.6937 25.5095 66.0677 21.6516C66.2842 18.6401 67.229 15.2547 69.7484 14.8414H74.3148C77.3066 14.8217 78.6056 19.5652 78.6056 23.1869Z" fill="#263238"/>
<path id="Vector_21" d="M73.7803 23.1875C73.7803 26.5729 72.3631 30.7063 69.3713 30.7063C66.3795 30.7063 65.0214 25.9234 65.3167 21.6326C65.5332 18.4046 66.5763 14.8223 69.4894 14.8223C72.4025 14.8223 73.8984 19.5658 73.7803 23.1875Z" fill="#37474F"/>
<path id="Vector_22" d="M72.5452 23.0872C72.5452 25.6853 71.4823 28.874 69.2582 28.874C67.034 28.874 66.0695 25.1932 66.2861 21.8865C66.4632 19.4065 67.2308 16.6509 69.396 16.6509C71.5611 16.6509 72.7027 20.2922 72.5452 23.0872Z" fill="#C7C7C7"/>
<path id="Vector_23" d="M68.7711 17.2254C68.7624 18.7061 68.9075 20.1837 69.2042 21.6344C69.6511 20.2285 69.9739 18.7861 70.1686 17.3238C69.929 17.1879 69.6567 17.1198 69.3813 17.127C69.1741 17.1293 68.9685 17.1625 68.7711 17.2254Z" fill="#263238"/>
<path id="Vector_24" d="M69.5347 21.8267C70.2903 21.0552 70.9511 20.1962 71.503 19.268C71.3474 18.7896 71.1074 18.343 70.7944 17.9492C70.2414 19.1946 69.8192 20.4941 69.5347 21.8267Z" fill="#263238"/>
<path id="Vector_25" d="M69.7429 22.2213C70.5404 22.0407 71.3044 21.7351 72.0064 21.3159C72.0064 20.9025 71.8686 20.4695 71.7702 20.0562C70.727 20.9616 69.6642 22.0638 69.7429 22.2213Z" fill="#263238"/>
<path id="Vector_26" d="M69.8503 22.6946C70.5567 23.0186 71.3181 23.2056 72.0942 23.2457V23.0686C72.1137 22.7211 72.1137 22.3728 72.0942 22.0254C71.3104 22.1034 70.5488 22.3306 69.8503 22.6946Z" fill="#263238"/>
<path id="Vector_27" d="M71.7581 25.4488C71.8848 24.9782 71.9704 24.4975 72.014 24.012C70.9905 23.5396 69.8095 23.0279 69.7111 23.1853C69.6127 23.3428 70.8527 24.5828 71.7581 25.4488Z" fill="#263238"/>
<path id="Vector_28" d="M70.4771 27.8677C70.8965 27.4585 71.2193 26.9609 71.4219 26.4112C70.9007 25.3735 70.2383 24.413 69.4536 23.5571C69.6621 25.0223 70.0047 26.4652 70.4771 27.8677Z" fill="#263238"/>
<path id="Vector_29" d="M68.1741 28.0898C68.4624 28.2924 68.8058 28.4022 69.1582 28.4046C69.2886 28.425 69.4214 28.425 69.5519 28.4046C69.56 26.8784 69.4149 25.3552 69.1188 23.8579C68.694 25.2417 68.3781 26.6567 68.1741 28.0898Z" fill="#263238"/>
<path id="Vector_30" d="M66.894 25.9448C67.0297 26.4374 67.2352 26.908 67.5042 27.3423C68.0316 26.1829 68.4278 24.9682 68.6852 23.7207C67.9919 24.3791 67.3895 25.127 66.894 25.9448Z" fill="#263238"/>
<path id="Vector_31" d="M66.5422 24.0127C66.5805 24.4027 66.6397 24.7903 66.7194 25.174C67.5461 24.367 68.4121 23.5206 68.3531 23.3631C68.294 23.2056 67.4476 23.5993 66.5422 24.0127Z" fill="#263238"/>
<path id="Vector_32" d="M66.5046 22.3188V23.3817C67.3904 23.2046 68.217 22.9881 68.2367 22.8306C68.2564 22.6732 67.41 22.496 66.5046 22.3188Z" fill="#263238"/>
<path id="Vector_33" d="M66.564 21.6314C67.4103 22.0448 68.2764 22.399 68.3551 22.2613C68.4338 22.1235 67.5284 21.1393 66.7411 20.293C66.6624 20.7457 66.6033 21.1984 66.564 21.6314Z" fill="#263238"/>
<path id="Vector_34" d="M66.991 19.3668C67.6208 20.4494 68.5065 21.9453 68.664 21.8272C68.5152 20.4899 68.2316 19.171 67.8176 17.8906C67.4442 18.3211 67.1628 18.8235 66.991 19.3668Z" fill="#263238"/>
<path id="Vector_35" d="M13.9919 23.1869C13.9919 26.5723 12.555 30.7057 9.56324 30.7057C9.28768 30.7057 5.27238 30.7057 5.0165 30.7057C2.61519 29.9184 1.07994 25.5095 1.45391 21.6516C1.67042 18.6401 2.61519 15.2547 5.13459 14.8414H9.7207C12.7125 14.8217 14.0903 19.5652 13.9919 23.1869Z" fill="#263238"/>
<path id="Vector_36" d="M9.17848 23.1875C9.17848 26.5729 7.76133 30.7063 4.76954 30.7063C1.77775 30.7063 0.419605 25.9234 0.714848 21.6326C0.931359 18.4046 1.97457 14.8223 4.88763 14.8223C7.80069 14.8223 9.27689 19.5658 9.17848 23.1875Z" fill="#37474F"/>
<path id="Vector_37" d="M7.9404 23.0872C7.9404 25.6853 6.8775 28.874 4.65334 28.874C2.42918 28.874 1.44505 25.1932 1.68124 21.8865C1.85839 19.4065 2.62602 16.6509 4.79114 16.6509C6.95625 16.6509 8.01913 20.2922 7.9404 23.0872Z" fill="#C7C7C7"/>
<path id="Vector_38" d="M4.08753 17.2251C4.07878 18.7058 4.2239 20.1834 4.52056 21.6341C4.96753 20.2283 5.29026 18.7859 5.48503 17.3236C5.24464 17.1894 4.97293 17.1215 4.6977 17.1267C4.49055 17.1291 4.28491 17.1622 4.08753 17.2251Z" fill="#263238"/>
<path id="Vector_39" d="M4.93286 21.8267C5.68849 21.0552 6.34927 20.1962 6.90115 19.268C6.73781 18.793 6.4985 18.3476 6.19256 17.9492C5.63957 19.1946 5.21741 20.4941 4.93286 21.8267Z" fill="#263238"/>
<path id="Vector_40" d="M5.13306 22.2213C5.9384 22.046 6.70966 21.7402 7.41627 21.3159C7.35944 20.8907 7.27394 20.4698 7.16039 20.0562C6.39772 20.6913 5.71675 21.4186 5.13306 22.2213Z" fill="#263238"/>
<path id="Vector_41" d="M5.25171 22.6946C5.95 23.0218 6.70562 23.209 7.47588 23.2457C7.48543 23.1871 7.48543 23.1272 7.47588 23.0686C7.47588 22.734 7.47588 22.3797 7.47588 22.0254C6.69886 22.1059 5.94414 22.333 5.25171 22.6946Z" fill="#263238"/>
<path id="Vector_42" d="M7.15366 25.4488C7.27088 24.9761 7.35637 24.4961 7.40954 24.012C6.38603 23.5396 5.18538 23.0279 5.10665 23.1853C5.02792 23.3428 6.24824 24.5828 7.15366 25.4488Z" fill="#263238"/>
<path id="Vector_43" d="M5.87459 27.8677C6.29399 27.4585 6.61675 26.9609 6.81936 26.4112C6.29816 25.3735 5.63577 24.413 4.85107 23.5571C5.04984 25.0241 5.39268 26.4679 5.87459 27.8677Z" fill="#263238"/>
<path id="Vector_44" d="M3.57544 28.0898C3.8638 28.2924 4.20713 28.4022 4.55958 28.4046C4.69002 28.425 4.8228 28.425 4.95323 28.4046C4.96136 26.8784 4.81629 25.3552 4.52021 23.8579C4.09532 25.2417 3.77944 26.6567 3.57544 28.0898Z" fill="#263238"/>
<path id="Vector_45" d="M2.29907 25.9448C2.43474 26.4374 2.64021 26.908 2.90924 27.3423C3.4337 26.1836 3.82337 24.9684 4.07055 23.7207C3.39264 24.388 2.79783 25.1348 2.29907 25.9448Z" fill="#263238"/>
<path id="Vector_46" d="M1.9397 24.0127C1.97799 24.4027 2.03711 24.7903 2.11684 25.174C2.94352 24.367 3.80956 23.5206 3.75052 23.3631C3.69147 23.2056 2.84511 23.5993 1.9397 24.0127Z" fill="#263238"/>
<path id="Vector_47" d="M1.84705 22.3188C1.82735 22.6729 1.82735 23.0277 1.84705 23.3817C2.73278 23.2046 3.55947 22.9881 3.57915 22.8306C3.59883 22.6732 2.79183 22.496 1.84705 22.3188Z" fill="#263238"/>
<path id="Vector_48" d="M1.96582 21.6314C2.81218 22.0448 3.67824 22.399 3.75697 22.2613C3.8357 22.1235 2.93027 21.1393 2.14296 20.293C2.06423 20.7457 2.00519 21.1984 1.96582 21.6314Z" fill="#263238"/>
<path id="Vector_49" d="M2.38843 19.3668C3.01828 20.4494 3.90402 21.9453 4.06148 21.8272C3.91265 20.4899 3.62908 19.171 3.2151 17.8906C2.84163 18.3211 2.56029 18.8235 2.38843 19.3668Z" fill="#263238"/>
<path id="Vector_50" d="M31.3693 28.2224H11.3125C10.5931 27.0981 9.93604 25.9351 9.34422 24.7386C9.34422 24.2662 9.69851 14.72 4.75811 14.72C0.467253 14.72 0.664078 24.3056 0.664078 24.3056L0.132663 23.4986L0.0145703 22.1011L0.349175 21.2744C0.0691031 19.0553 -0.0427485 16.8182 0.0145703 14.5822C0.933312 13.0501 1.9663 11.5894 3.10476 10.2127C3.28191 10.0355 6.19497 9.54345 6.39179 9.3663C6.58862 9.18916 14.698 2.49696 18.2999 1.70965C23.7628 0.783543 29.2927 0.309546 34.8335 0.29248C40.7212 0.488819 46.5913 1.04757 52.4103 1.96553C53.3551 2.28046 62.0352 10.4292 62.0352 10.4292C62.0352 10.4292 71.2862 11.6298 72.5262 11.9054C74.7441 12.8834 76.8171 14.1616 78.6869 15.7042C78.8837 16.0978 79.4939 20.5068 79.4939 20.5068C79.691 20.9401 79.8555 21.3875 79.986 21.8452C79.986 22.1011 79.4152 26.2738 79.3364 26.4903C79.0256 26.98 78.6404 27.4182 78.1948 27.7894C77.998 27.7894 45.1473 28.3012 44.734 28.2224C43.8408 28.0086 42.9655 27.7257 42.1162 27.3761C41.8013 27.1596 41.1911 14.8184 35.5421 14.8184C30.6607 14.8184 31.0544 24.2465 31.3693 28.2224Z" fill="#808080"/>
<path id="Vector_51" opacity="0.1" d="M58.9241 28.0872C67.9782 27.9691 78.0755 27.8313 78.1936 27.7722C78.6433 27.413 79.0293 26.9804 79.3352 26.4928C79.3352 26.2763 80.0044 22.1035 79.9847 21.8477C79.8542 21.3899 79.6897 20.9425 79.4926 20.5092C79.4926 20.5092 78.8825 16.1003 78.6856 15.7066C76.8158 14.1641 74.7429 12.8859 72.5249 11.9079C71.2849 11.6323 62.034 10.4316 62.034 10.4316C62.034 10.4316 70.4189 12.3999 70.8519 12.6952C71.2849 12.9904 74.5326 16.6317 74.9065 17.1238C75.2067 18.7158 75.3909 20.3274 75.4577 21.9461C75.5758 22.2807 76.3631 24.3277 76.4418 24.682C76.4403 25.3575 76.3065 26.0262 76.0481 26.6503C75.9497 26.7684 59.6917 28.0281 58.9241 28.0872Z" fill="black"/>
<path id="Vector_52" opacity="0.1" d="M31.3653 28.225C31.011 24.623 30.6567 16.5137 34.2587 15.0571C32.4282 15.3917 29.8497 18.4229 29.7316 26.3157L11.2297 28.284L31.3653 28.225Z" fill="black"/>
<g id="Group_2" opacity="0.6">
<path id="Vector_53" d="M11.79 23.1012C11.6301 21.186 11.2198 19.3001 10.5696 17.4916C10.3925 17.0586 10.2153 16.6058 9.99884 16.1728C9.78665 15.7423 9.54325 15.3278 9.27058 14.9328C8.99379 14.5343 8.67722 14.165 8.32578 13.8305L7.75499 13.3779C7.53848 13.2598 7.34164 13.1219 7.12513 13.0235C6.67155 12.8224 6.18404 12.709 5.68829 12.689C5.19924 12.6544 4.70859 12.7283 4.25145 12.9054C3.34699 13.3044 2.60453 13.9983 2.14537 14.8737C1.65518 15.7058 1.27791 16.5993 1.02346 17.5309C0.784831 18.4555 0.613805 19.3962 0.511719 20.3456C0.62606 19.3967 0.830365 18.4608 1.12188 17.5506C1.38162 16.6396 1.75874 15.7662 2.24379 14.9525C2.71345 14.1276 3.43893 13.4782 4.31049 13.1023C4.74771 12.9285 5.21992 12.8611 5.68829 12.9054C6.15838 12.9115 6.62163 13.0189 7.04641 13.2204C7.25606 13.3201 7.45978 13.4318 7.65657 13.555C7.8536 13.6889 8.03806 13.8404 8.20769 14.0077C8.5622 14.319 8.87334 14.6765 9.13279 15.0706C9.67224 15.8542 10.115 16.7001 10.4515 17.59C10.7864 18.483 11.0625 19.3969 11.2782 20.3259C11.4967 21.2415 11.6675 22.1679 11.79 23.1012Z" fill="white"/>
<path id="Vector_54" d="M42.3374 23.1007C42.1697 21.2352 41.773 19.3974 41.1564 17.6288C40.8502 16.7377 40.4406 15.8856 39.9361 15.0897C39.6677 14.7016 39.3716 14.3332 39.0503 13.9875C38.7104 13.6544 38.3263 13.3696 37.9088 13.1411C37.4839 12.9206 37.0247 12.7742 36.5506 12.7081C36.0749 12.6299 35.5895 12.6299 35.1138 12.7081C34.1902 12.9581 33.3743 13.5044 32.7912 14.263C32.214 15.008 31.7559 15.838 31.4331 16.7234C31.1033 17.6032 30.8594 18.5129 30.7048 19.4396C30.881 18.522 31.1515 17.6249 31.5118 16.7628C31.8456 15.8966 32.3102 15.0867 32.8896 14.3615C33.4708 13.6403 34.2618 13.1175 35.1531 12.8656C35.6091 12.787 36.075 12.787 36.5309 12.8656C36.9847 12.9268 37.4243 13.0666 37.83 13.2789C38.2297 13.5008 38.6 13.7719 38.9323 14.0859C39.2528 14.4201 39.5426 14.7824 39.7983 15.1684C40.3009 15.9474 40.7168 16.779 41.0383 17.6485C41.3666 18.5218 41.6362 19.4161 41.8453 20.3254C42.0422 21.2505 42.2193 22.1756 42.3374 23.1007Z" fill="white"/>
<path id="Vector_55" d="M31.1792 16.1372L27.2426 15.0152L20.0387 14.3263L12.8545 13.6965L10.4926 12.8895L8.13062 12.0825L10.4729 12.9289L12.8348 13.7752L20.0387 14.4444L27.2426 15.094L31.1792 16.1372Z" fill="white"/>
<path id="Vector_56" d="M61.0364 10.4463L64.9729 12.0996L68.9095 13.7531L70.4644 16.6661C66.6853 16.6661 62.9062 16.6661 59.1468 16.7645L54.6591 14.127L49.0889 12.3949L43.4792 10.7415L49.0692 12.454L54.6591 14.1467L59.1271 16.8039L70.4448 16.6858L68.8701 13.7727L64.9336 12.139L61.0364 10.4463Z" fill="white"/>
</g>
<g id="Group_3" opacity="0.3">
<path id="Vector_57" d="M61.3174 10.4341L69.1905 12.4024L70.1747 12.6386L70.6471 12.7566H70.7652L70.9423 12.9338C71.3753 13.4455 71.769 13.977 72.1823 14.5281C73.009 15.591 73.816 16.6735 74.623 17.7561C73.8553 16.6539 73.068 15.5516 72.261 14.469C71.8674 13.9179 71.454 13.3865 71.021 12.855L70.8242 12.6779H70.7061L70.214 12.5401L69.2299 12.3039C67.9111 11.989 66.5924 11.6741 65.2933 11.3985L61.3174 10.4341Z" fill="black"/>
<path id="Vector_58" d="M35.8672 10.751L38.2685 11.5186L40.6698 12.2666L45.4724 13.7625L47.8737 14.5301C48.2604 14.6791 48.6354 14.8567 48.9957 15.0615L50.1176 15.6323L52.3614 16.774L54.625 17.8959L52.4008 16.7149L50.157 15.5536L49.0744 14.9631C48.7135 14.7466 48.3308 14.5685 47.9328 14.4317L45.5512 13.6444L40.7289 12.1681L38.3275 11.4399L35.8672 10.751Z" fill="black"/>
<path id="Vector_59" d="M29.8122 25.7117H27.5093H25.1867H20.5612H15.9161H13.6132H12.6094C12.6094 25.7117 12.6094 25.7117 12.4913 25.7117C12.3732 25.7117 12.0189 25.1015 11.7827 24.7866C11.9946 25.1141 12.2246 25.4295 12.4716 25.7314C12.4716 25.7314 12.4716 25.7314 12.5897 25.7314H13.6526H15.9555H20.6006H25.2261H29.8516L29.8122 25.7117Z" fill="black"/>
<path id="Vector_60" d="M13.6478 10.1968L12.9392 13.72L13.4116 16.515L13.884 19.3099C14.1989 21.1798 14.5335 23.03 14.8878 24.8999C14.5926 23.03 14.2973 21.1602 13.9824 19.2903L13.51 16.4953L13.0376 13.7003C13.1754 12.5587 13.3722 11.3777 13.6478 10.1968Z" fill="black"/>
<path id="Vector_61" d="M26.3601 10.4341C26.6357 11.9693 26.9506 13.5242 27.2458 15.0595C27.2458 16.7522 27.2458 18.4253 27.2458 20.118V22.6374V25.1765V20.118C27.2458 18.4253 27.2458 16.7522 27.2458 15.0595C27.0293 13.5046 26.6947 11.9693 26.3601 10.4341Z" fill="black"/>
<path id="Vector_62" d="M9.04214 9.05615C8.865 9.54822 8.72721 10.06 8.56974 10.5717C8.41228 11.0835 8.2745 11.5756 8.13672 12.0873C8.23513 12.4416 8.31387 12.8156 8.39261 13.1896C8.47134 13.5635 8.56975 13.9375 8.66816 14.2918C8.66816 13.9178 8.55006 13.5438 8.47132 13.1699C8.39259 12.7959 8.33354 12.4219 8.25481 12.0479L8.66816 10.5127C8.78626 10.06 8.92405 9.54822 9.04214 9.05615Z" fill="black"/>
<path id="Vector_63" d="M30.2376 19.5286L27.8363 19.3318L25.4547 19.1743L20.6718 18.8397L15.8691 18.5641L13.4875 18.4264L11.0862 18.2886L13.4875 18.4854L15.8691 18.6429L20.652 18.9578L25.4547 19.253L27.8363 19.3908L30.2376 19.5286Z" fill="black"/>
<path id="Vector_64" d="M16.5989 10.8826C16.5989 11.0795 16.5005 11.2763 16.4611 11.4732L15.3392 11.3551L14.2173 11.2566L14.3354 10.7252H15.5951L14.3551 10.5874L14.237 11.1188H15.3589H16.5005C16.5399 11.296 16.5792 11.0204 16.5989 10.8826Z" fill="black"/>
<path id="Vector_65" d="M77.4448 18.8989C77.5826 19.6862 77.7794 20.4539 77.9566 21.2215V21.4971V21.6152C77.9566 21.6152 77.9566 21.7136 77.9566 21.753C77.9566 21.7923 77.9566 22.1466 77.9566 22.3631C77.9566 22.5796 77.9566 23.1504 77.9566 23.544C77.9566 23.1701 78.055 22.7764 78.0944 22.3828V21.812V21.4774V21.1821C77.8779 20.4342 77.681 19.6666 77.4448 18.8989Z" fill="black"/>
<path id="Vector_66" d="M48.0151 18.8989C47.8576 19.2926 47.7198 19.6862 47.5624 20.0996C47.4049 20.5129 47.2868 20.8869 47.1687 21.3002C47.1687 21.5955 47.1687 21.8907 47.1687 22.186C47.1687 22.4812 47.1687 22.7961 47.1687 23.0914C47.1687 22.7961 47.1687 22.5009 47.1687 22.186C47.1687 21.8711 47.1687 21.5955 47.1687 21.3002C47.3065 20.9066 47.4246 20.5129 47.5427 20.0996C47.6608 19.6862 47.9167 19.3123 48.0151 18.8989Z" fill="black"/>
<path id="Vector_67" d="M80.0008 22.0269L77.7569 24.2313L69.7854 24.5069L65.8488 24.625H61.9122H45.9691L42.7214 23.8377L45.9494 24.6644H61.8925H65.8291C67.1478 24.6644 68.4863 24.6643 69.7656 24.5266L77.7372 24.2117L80.0008 22.0269Z" fill="black"/>
</g>
<path id="Vector_68" d="M24.3269 10.1166C24.071 10.3921 13.6784 9.7819 13.4422 9.76221C11.9621 9.51568 10.4967 9.18713 9.05298 8.77807C11.2246 6.92508 13.5196 5.22187 15.9223 3.68022C18.3624 3.2915 20.8399 3.19241 23.3033 3.38499C23.9529 3.64087 24.6418 9.82131 24.3269 10.1166Z" fill="#263238"/>
<path id="Vector_69" d="M23.6489 9.83896C23.4127 10.0752 13.9255 9.52407 13.709 9.50438C12.3822 9.27851 11.0682 8.98283 9.77246 8.61863C11.746 6.91769 13.8376 5.35885 16.0316 3.95381C18.2705 3.60238 20.5424 3.50989 22.8025 3.67822C23.3143 3.91441 23.9244 9.5634 23.6489 9.83896Z" fill="#37474F"/>
<g id="Group_4" opacity="0.1">
<path id="Vector_70" d="M17.0618 3.77775L23.6359 7.83242C23.5419 6.66387 23.3509 5.50514 23.065 4.36822L21.766 3.56121C20.1951 3.5454 18.6246 3.61771 17.0618 3.77775Z" fill="white"/>
<path id="Vector_71" d="M11.9299 6.78935L16.5948 9.66303L19.3307 9.80083L13.0715 5.86426L11.9299 6.78935Z" fill="white"/>
<path id="Vector_72" d="M9.99536 8.28662L11.137 8.99524L11.9833 9.17238L10.2315 8.08984L9.99536 8.28662Z" fill="white"/>
</g>
<path id="Vector_73" d="M16.4091 3.8583C15.5418 5.71002 14.7796 7.60917 14.1259 9.54667C14.1259 9.64509 13.6929 9.54667 13.7323 9.54667C13.7716 9.54667 16.0942 4.17326 16.0155 3.95675C15.9368 3.74024 16.4091 3.8583 16.4091 3.8583Z" fill="#263238"/>
<path id="Vector_74" d="M61.3243 10.4317L35.8743 10.7466C35.2445 10.7466 26.3872 10.3332 26.2691 10.2742C25.834 7.95628 25.597 5.60553 25.5605 3.24741C25.5605 3.10963 37.5277 2.49951 38.9842 2.49951C40.4408 2.49951 52.4079 3.01122 53.0378 3.12932C55.9988 5.32797 58.7707 7.77066 61.3243 10.4317Z" fill="#263238"/>
<path id="Vector_75" d="M60.561 10.1392L36.6463 10.4345C36.0558 10.4345 27.4741 10.0211 27.3757 9.96203C27.0488 7.90553 26.9039 5.8242 26.9426 3.74225C26.9426 3.60447 38.4374 3.03369 39.8152 3.03369C41.193 3.03369 52.4319 3.50606 53.0224 3.62415C55.726 5.56477 58.2491 7.74527 60.561 10.1392Z" fill="#37474F"/>
<path id="Vector_76" opacity="0.1" d="M48.5303 3.36883L59.5527 10.1397H54.6123L43.1766 3.15234L48.5303 3.36883ZM33.3548 3.36883L44.7906 10.3956H47.251L35.6971 3.15234L33.3548 3.36883ZM27.0957 7.75812C27.0957 8.40766 27.2138 8.99816 27.2728 9.43118L28.3751 10.1004L31.1307 10.2382L27.0957 7.75812ZM29.3592 3.58537L40.5194 10.435H41.0508L29.871 3.56567L29.3592 3.58537ZM50.2821 3.58537L59.8676 9.49022L58.7457 8.46674L50.8726 3.64441L50.2821 3.58537Z" fill="white"/>
<path id="Vector_77" d="M51.615 16.9306C51.9496 17.2848 51.3591 19.4106 50.8277 19.568C49.3077 19.5608 47.7919 19.4092 46.3006 19.1153C44.6656 18.6817 43.0665 18.1224 41.5177 17.4423C41.0858 16.2926 40.9835 15.0451 41.2224 13.8403C43.6248 14.1895 45.9993 14.7091 48.328 15.3953C49.4717 15.7971 50.5728 16.3113 51.615 16.9306Z" fill="white"/>
<path id="Vector_78" d="M79.0021 17.9506C78.609 18.4702 78.1674 18.9514 77.6834 19.3875C77.1999 19.5716 76.6849 19.6585 76.1678 19.6434C75.782 19.0345 75.4901 18.3709 75.3018 17.6751C75.7459 16.515 76.3703 15.4323 77.1519 14.4668C77.8492 14.763 78.4788 15.1983 79.0021 15.7462C79.1162 16.4766 79.1162 17.2202 79.0021 17.9506Z" fill="white"/>
<path id="Vector_79" d="M78.9167 17.854C78.9167 18.0508 78.405 18.661 78.3459 18.7397C78.5839 18.4958 78.8012 18.2324 78.9955 17.9524C79.1136 17.2091 79.1136 16.4519 78.9955 15.7086C78.4722 15.1607 77.8426 14.7254 77.1453 14.4292C77.7356 14.7921 78.2612 15.2512 78.7002 15.7873C78.7593 16.0235 78.8971 17.6375 78.9167 17.854Z" fill="#DBDBDB"/>
<path id="Vector_80" d="M74.6659 17.7721C74.3116 17.654 67.1865 17.4375 65.789 17.4375C64.3915 17.4375 55.1799 17.654 54.5501 17.8902C53.9202 18.1264 55.3374 21.8268 55.8885 22.122C56.4396 22.4173 65.3166 23.1062 65.9267 23.1062C68.5726 22.8333 71.201 22.4128 73.7999 21.8464C74.3707 21.5709 75.3155 17.9886 74.6659 17.7721Z" fill="#263238"/>
<path id="Vector_81" d="M54.9817 20.1928C54.9817 20.1928 54.9817 20.3306 54.9817 20.4093L74.6645 20.055V19.8188L54.9817 20.1928Z" fill="#808080"/>
<path id="Vector_82" d="M73.8013 26.3165H55.2404C54.8467 26.3165 56.8544 25.1159 57.2086 25.0962H72.3644C72.699 25.0962 74.1359 26.3165 73.8013 26.3165Z" fill="#263238"/>
<path id="Vector_83" d="M78.4909 25.5286C77.6259 25.5877 76.7578 25.5877 75.8928 25.5286C75.5582 25.5286 74.7709 23.6587 74.8103 23.3832C75.3297 22.8677 75.936 22.4479 76.6014 22.1431C77.1745 22.0447 77.7603 22.0447 78.3335 22.1431C78.5602 23.2568 78.6133 24.3987 78.4909 25.5286Z" fill="#455A64"/>
<path id="Vector_84" d="M51.7978 23.1075C52.0536 23.4224 50.3609 25.3513 49.7114 25.5875C48.1447 25.7807 46.5648 25.8465 44.9875 25.7843C44.8727 25.0144 44.8727 24.2317 44.9875 23.4617C45.2336 22.9138 45.5659 22.4088 45.9716 21.9658C47.369 21.972 48.7639 22.0839 50.1444 22.3005C50.7309 22.4899 51.2876 22.7616 51.7978 23.1075Z" fill="#455A64"/>
<path id="Vector_85" d="M22.7453 9.50832V9.17369C22.2406 8.60207 21.6874 8.07525 21.0919 7.59908C20.1434 7.55112 19.1959 7.71238 18.3166 8.07145C18.2385 8.47449 18.2385 8.88875 18.3166 9.29178C19.0835 9.57004 19.8848 9.74224 20.6983 9.80355C21.3856 9.74334 22.0689 9.64479 22.7453 9.50832Z" fill="#808080"/>
<path id="Vector_86" d="M22.8457 9.1709V9.50553L23.7511 10.1944C23.764 10.2726 23.764 10.3524 23.7511 10.4306H24.6368V9.1709C24.5054 9.23875 24.3668 9.2916 24.2235 9.32839C23.761 9.3091 23.3006 9.25645 22.8457 9.1709Z" fill="#808080"/>
</g>
</svg>
