<svg width="52" height="43" viewBox="0 0 52 43" fill="none" xmlns="http://www.w3.org/2000/svg">
<g id="friendship 1" clip-path="url(#clip0_268_6422)">
<g id="Group">
<path id="Vector" d="M25.6343 18.2286C26.5281 17.5236 27.1031 16.4325 27.1031 15.2058C27.1031 13.9333 26.4854 12.8055 25.534 12.1046C26.0215 11.028 26.0091 9.74216 25.3872 8.63206C24.7106 7.42436 23.48 6.72326 22.1917 6.66736C22.1358 5.37896 21.4347 4.14836 20.227 3.47176C19.1169 2.84986 17.831 2.83746 16.7545 3.32496C16.0535 2.37346 14.9257 1.75586 13.6533 1.75586C12.3809 1.75586 11.253 2.37356 10.552 3.32496C9.47543 2.83746 8.18963 2.84986 7.07953 3.47176C5.87183 4.14836 5.17073 5.37896 5.11483 6.66736C3.82653 6.72326 2.59583 7.42436 1.91933 8.63206C1.29743 9.74216 1.28503 11.028 1.77253 12.1046C0.82103 12.8056 0.20343 13.9334 0.20343 15.2058C0.20343 16.4325 0.77843 17.5236 1.67223 18.2286C0.77843 18.9336 0.20343 20.0247 0.20343 21.2514C0.20343 22.5239 0.82113 23.6517 1.77253 24.3526C1.28503 25.4292 1.29743 26.715 1.91933 27.8251C2.59593 29.0328 3.82653 29.7339 5.11483 29.7898C5.17073 31.0781 5.87183 32.3088 7.07953 32.9854C8.18963 33.6073 9.47543 33.6197 10.552 33.1322C11.253 34.0837 12.3808 34.7013 13.6533 34.7013C14.9258 34.7013 16.0536 34.0836 16.7546 33.1322C17.8312 33.6197 19.117 33.6073 20.2271 32.9854C21.4348 32.3088 22.1359 31.0782 22.1918 29.7898C23.4801 29.7339 24.7108 29.0328 25.3873 27.8251C26.0092 26.715 26.0216 25.4292 25.5341 24.3526C26.4856 23.6516 27.1032 22.5238 27.1032 21.2514C27.1031 20.0247 26.5281 18.9336 25.6343 18.2286Z" fill="url(#paint0_linear_268_6422)"/>
<g id="Group_2">
<path id="Vector_2" d="M0.16684 18.4343C0.16684 16.6701 1.39144 15.1919 3.03704 14.8034C3.47694 14.6996 3.89734 15.0397 3.89734 15.4917V21.3769C3.89734 21.8289 3.47684 22.169 3.03704 22.0652C1.39144 21.6767 0.16684 20.1985 0.16684 18.4343Z" fill="url(#paint1_linear_268_6422)"/>
<path id="Vector_3" d="M27.1395 18.4343C27.1395 16.6701 25.9149 15.1919 24.2693 14.8034C23.8294 14.6996 23.409 15.0397 23.409 15.4917V21.3769C23.409 21.8289 23.8295 22.169 24.2693 22.0652C25.9149 21.6767 27.1395 20.1985 27.1395 18.4343Z" fill="url(#paint2_linear_268_6422)"/>
<path id="Vector_4" d="M27.1395 18.4343C27.1395 16.6701 25.9149 15.1919 24.2693 14.8034C23.8294 14.6996 23.409 15.0397 23.409 15.4917V21.3769C23.409 21.8289 23.8295 22.169 24.2693 22.0652C25.9149 21.6767 27.1395 20.1985 27.1395 18.4343Z" fill="url(#paint3_linear_268_6422)"/>
</g>
<g id="Group_3">
<path id="Vector_5" d="M40.4954 27.1938H16.1559V34.1271H24.9518C24.5401 35.2553 24.3153 36.4734 24.3153 37.7441V41.2444H49.7913C50.4841 41.2444 51.0457 40.6828 51.0457 39.99V37.7441C51.0457 31.9173 46.3221 27.1938 40.4954 27.1938Z" fill="url(#paint4_linear_268_6422)"/>
<path id="Vector_6" d="M27.0183 41.2448H48.3427V30.6934C46.4114 28.5454 43.6113 27.1943 40.4954 27.1943H34.8656C31.7496 27.1943 28.9496 28.5455 27.0183 30.6934V41.2448Z" fill="url(#paint5_linear_268_6422)"/>
<path id="Vector_7" d="M24.3153 30.6929V41.2443H34.8668L24.3153 30.6929Z" fill="url(#paint6_linear_268_6422)"/>
<path id="Vector_8" d="M44.7507 41.2444H49.7914C50.4842 41.2444 51.0458 40.6828 51.0458 39.99V37.7441C51.0458 31.9173 46.3223 27.1938 40.4955 27.1938H34.8657C33.6193 27.1938 32.4237 27.4106 31.3137 27.8074L44.7507 41.2444Z" fill="url(#paint7_linear_268_6422)"/>
</g>
<g id="Group_4">
<g id="Group_5">
<path id="Vector_9" d="M24.3947 18.4343C24.3947 16.6701 25.6194 15.1919 27.2649 14.8034C27.7047 14.6996 28.1252 15.0397 28.1252 15.4917V21.3769C28.1252 21.8289 27.7047 22.169 27.2649 22.0652C25.6193 21.6767 24.3947 20.1985 24.3947 18.4343Z" fill="url(#paint8_linear_268_6422)"/>
<path id="Vector_10" d="M51.1668 18.4343C51.1668 16.6701 49.9422 15.1919 48.2966 14.8034C47.8567 14.6996 47.4363 15.0397 47.4363 15.4917V21.3769C47.4363 21.8289 47.8568 22.169 48.2966 22.0652C49.9422 21.6767 51.1668 20.1985 51.1668 18.4343Z" fill="url(#paint9_linear_268_6422)"/>
<path id="Vector_11" d="M51.1668 18.4343C51.1668 16.6701 49.9422 15.1919 48.2966 14.8034C47.8567 14.6996 47.4363 15.0397 47.4363 15.4917V21.3769C47.4363 21.8289 47.8568 22.169 48.2966 22.0652C49.9422 21.6767 51.1668 20.1985 51.1668 18.4343Z" fill="url(#paint10_linear_268_6422)"/>
</g>
<path id="Vector_12" d="M37.6805 30.0806C43.6036 30.0806 48.4053 24.8663 48.4053 18.4341C48.4053 12.0019 43.6036 6.7876 37.6805 6.7876C31.7573 6.7876 26.9557 12.0019 26.9557 18.4341C26.9557 24.8663 31.7573 30.0806 37.6805 30.0806Z" fill="url(#paint11_linear_268_6422)"/>
<path id="Vector_13" d="M45.0834 26.8607L41.0468 22.8241C40.3223 22.0053 39.1299 21.4702 37.7805 21.4702C35.5714 21.4702 33.7805 22.9029 33.7805 24.6702C33.7805 24.9078 33.9261 25.1132 34.1765 25.2869L38.8952 30.0056C41.2832 29.7132 43.4339 28.57 45.0834 26.8607Z" fill="url(#paint12_linear_268_6422)"/>
<path id="Vector_14" d="M41.6805 24.5706C41.6805 26.3379 33.6805 26.3379 33.6805 24.5706C33.6805 22.8033 35.4714 21.3706 37.6805 21.3706C39.8896 21.3706 41.6805 22.8033 41.6805 24.5706Z" fill="url(#paint13_linear_268_6422)"/>
<g id="Group_6">
<path id="Vector_15" d="M32.897 20.4045C32.0309 20.4045 31.3288 19.7024 31.3288 18.8363V18.0321C31.3288 17.166 32.0309 16.4639 32.897 16.4639C33.7631 16.4639 34.4652 17.166 34.4652 18.0321V18.8363C34.4652 19.7024 33.7631 20.4045 32.897 20.4045Z" fill="url(#paint14_linear_268_6422)"/>
<path id="Vector_16" d="M42.4641 20.4045C41.598 20.4045 40.8959 19.7024 40.8959 18.8363V18.0321C40.8959 17.166 41.598 16.4639 42.4641 16.4639C43.3302 16.4639 44.0323 17.166 44.0323 18.0321V18.8363C44.0323 19.7024 43.3302 20.4045 42.4641 20.4045Z" fill="url(#paint15_linear_268_6422)"/>
</g>
</g>
<g id="Group_7">
<path id="Vector_17" d="M50.5988 14.022C49.045 17.56 43.2385 18.4313 37.6295 15.9681C32.0205 13.5049 28.733 8.63991 30.2868 5.10181C31.8406 1.56381 37.6471 0.692514 43.2561 3.15571C48.8651 5.61901 52.1526 10.484 50.5988 14.022Z" fill="url(#paint16_linear_268_6422)"/>
<path id="Vector_18" d="M28.9092 17.6241C31.3015 17.6241 33.2408 15.0919 33.2408 11.9683C33.2408 8.84469 31.3015 6.3125 28.9092 6.3125C26.5169 6.3125 24.5776 8.84469 24.5776 11.9683C24.5776 15.0919 26.5169 17.6241 28.9092 17.6241Z" fill="url(#paint17_linear_268_6422)"/>
</g>
<path id="Vector_19" d="M27.0183 41.2444H1.5423C0.849503 41.2444 0.287903 40.6828 0.287903 39.99V37.7441C0.287903 31.9173 5.0114 27.1938 10.8382 27.1938H16.468C22.2948 27.1938 27.0183 31.9173 27.0183 37.7441V41.2444Z" fill="url(#paint18_linear_268_6422)"/>
<path id="Vector_20" d="M27.0179 37.7443V41.2443H9.46488L1.44788 33.2283V32.9303C1.82288 32.2003 2.28088 31.5193 2.80988 30.9003C4.74388 28.6323 7.62288 27.1943 10.8379 27.1943H16.4679C22.2949 27.1943 27.0179 31.9173 27.0179 37.7443Z" fill="url(#paint19_linear_268_6422)"/>
<path id="Vector_21" d="M2.99091 41.2448H24.3153V30.6934C22.384 28.5454 19.5839 27.1943 16.468 27.1943H10.8382C7.72221 27.1943 4.92221 28.5455 2.99091 30.6934V41.2448Z" fill="url(#paint20_linear_268_6422)"/>
<path id="Vector_22" d="M6.24404 32.3799C5.13164 33.4923 3.57774 33.8939 2.14644 33.585C0.935743 33.3236 0.518143 31.8008 1.39394 30.9249L4.78894 27.5299C5.66474 26.6541 7.18764 27.0717 7.44904 28.2824C7.75804 29.7136 7.35634 31.2675 6.24404 32.3799Z" fill="url(#paint21_linear_268_6422)"/>
<path id="Vector_23" d="M20.7232 41.2444H27.0183V37.7441C27.0183 31.9173 22.2948 27.1938 16.468 27.1938H10.8382C9.59182 27.1938 8.39622 27.4106 7.28622 27.8074L20.7232 41.2444Z" fill="url(#paint22_linear_268_6422)"/>
<g id="Group_8">
<g id="Group_9">
<path id="Vector_24" d="M2.10314 23.159C2.97398 23.159 3.67994 22.453 3.67994 21.5822C3.67994 20.7113 2.97398 20.0054 2.10314 20.0054C1.23229 20.0054 0.526337 20.7113 0.526337 21.5822C0.526337 22.453 1.23229 23.159 2.10314 23.159Z" fill="url(#paint23_linear_268_6422)"/>
<path id="Vector_25" d="M0.550964 21.8613C0.682864 22.5988 1.32756 23.1586 2.10306 23.1586C2.87856 23.1586 3.52326 22.5988 3.65516 21.8613H0.550964Z" fill="url(#paint24_linear_268_6422)"/>
</g>
<g id="Group_10">
<path id="Vector_26" d="M25.2031 23.159C26.074 23.159 26.7799 22.453 26.7799 21.5822C26.7799 20.7113 26.074 20.0054 25.2031 20.0054C24.3323 20.0054 23.6263 20.7113 23.6263 21.5822C23.6263 22.453 24.3323 23.159 25.2031 23.159Z" fill="url(#paint25_linear_268_6422)"/>
<path id="Vector_27" d="M23.6511 21.8613C23.783 22.5988 24.4277 23.1586 25.2032 23.1586C25.9787 23.1586 26.6234 22.5988 26.7553 21.8613H23.6511Z" fill="url(#paint26_linear_268_6422)"/>
</g>
</g>
<path id="Vector_28" d="M13.6531 30.0806C19.5763 30.0806 24.3779 24.8663 24.3779 18.4341C24.3779 12.0019 19.5763 6.7876 13.6531 6.7876C7.72997 6.7876 2.92831 12.0019 2.92831 18.4341C2.92831 24.8663 7.72997 30.0806 13.6531 30.0806Z" fill="url(#paint27_linear_268_6422)"/>
<path id="Vector_29" d="M25.5398 12.1094C25.5378 12.1074 25.5358 12.1054 25.5338 12.1044C25.5348 12.1034 25.5348 12.1014 25.5358 12.1004C26.0218 11.0244 26.0078 9.74137 25.3868 8.63137C24.7108 7.42437 23.4798 6.72337 22.1918 6.66737C22.1358 5.37837 21.4348 4.14837 20.2268 3.47137C19.1168 2.84937 17.8308 2.83737 16.7548 3.32437C16.0538 2.37337 14.9258 1.75537 13.6528 1.75537C12.3808 1.75537 11.2528 2.37337 10.5518 3.32437C9.47484 2.83737 8.18984 2.84937 7.07984 3.47137C5.87184 4.14837 5.17084 5.37837 5.11484 6.66737C3.82584 6.72337 2.59584 7.42437 1.91884 8.63137C1.29784 9.74137 1.28484 11.0244 1.76984 12.1004C1.77084 12.1014 1.77084 12.1034 1.77184 12.1044C1.76984 12.1054 1.76784 12.1074 1.76584 12.1094C1.53684 12.5614 1.40784 13.0724 1.40784 13.6134C1.40784 15.4524 2.89884 16.9434 4.73884 16.9434C6.31484 16.9434 7.63584 15.8484 7.98084 14.3774C8.25684 14.4514 8.54784 14.4914 8.84784 14.4914C9.79184 14.4914 10.6438 14.0984 11.2508 13.4684C11.8568 14.0984 12.7088 14.4914 13.6528 14.4914C14.5968 14.4914 15.4498 14.0984 16.0558 13.4684C16.6618 14.0984 17.5138 14.4914 18.4578 14.4914C18.7578 14.4914 19.0488 14.4514 19.3248 14.3774C19.6698 15.8484 20.9908 16.9434 22.5678 16.9434C24.4068 16.9434 25.8978 15.4524 25.8978 13.6134C25.8978 13.0724 25.7688 12.5614 25.5398 12.1094Z" fill="url(#paint28_linear_268_6422)"/>
<g id="Group_11">
<path id="Vector_30" d="M8.86965 20.4045C8.00355 20.4045 7.30145 19.7024 7.30145 18.8363V18.0321C7.30145 17.166 8.00355 16.4639 8.86965 16.4639C9.73575 16.4639 10.4379 17.166 10.4379 18.0321V18.8363C10.4379 19.7024 9.73575 20.4045 8.86965 20.4045Z" fill="url(#paint29_linear_268_6422)"/>
<path id="Vector_31" d="M18.4365 20.4045C17.5704 20.4045 16.8683 19.7024 16.8683 18.8363V18.0321C16.8683 17.166 17.5704 16.4639 18.4365 16.4639C19.3026 16.4639 20.0047 17.166 20.0047 18.0321V18.8363C20.0047 19.7024 19.3026 20.4045 18.4365 20.4045Z" fill="url(#paint30_linear_268_6422)"/>
</g>
</g>
</g>
<defs>
<linearGradient id="paint0_linear_268_6422" x1="9.75783" y1="11.1484" x2="20.3578" y2="30.4151" gradientUnits="userSpaceOnUse">
<stop stop-color="#EAF6FF"/>
<stop offset="1" stop-color="#B3DAFE"/>
</linearGradient>
<linearGradient id="paint1_linear_268_6422" x1="1.26454" y1="16.8214" x2="4.26514" y2="19.822" gradientUnits="userSpaceOnUse">
<stop stop-color="#FFDFCF"/>
<stop offset="1" stop-color="#FFA78F"/>
</linearGradient>
<linearGradient id="paint2_linear_268_6422" x1="22.2461" y1="16.2515" x2="26.4448" y2="20.4502" gradientUnits="userSpaceOnUse">
<stop stop-color="#FFDFCF"/>
<stop offset="1" stop-color="#FFA78F"/>
</linearGradient>
<linearGradient id="paint3_linear_268_6422" x1="25.4419" y1="18.4343" x2="22.9399" y2="18.4343" gradientUnits="userSpaceOnUse">
<stop stop-color="#CA6E59" stop-opacity="0"/>
<stop offset="1" stop-color="#883F2E"/>
</linearGradient>
<linearGradient id="paint4_linear_268_6422" x1="30.1828" y1="25.3909" x2="38.3411" y2="48.3822" gradientUnits="userSpaceOnUse">
<stop stop-color="#89E2FF"/>
<stop offset="1" stop-color="#3FA9F5"/>
</linearGradient>
<linearGradient id="paint5_linear_268_6422" x1="37.6805" y1="35.392" x2="37.6805" y2="48.4629" gradientUnits="userSpaceOnUse">
<stop stop-color="#2740B0" stop-opacity="0"/>
<stop offset="0.2879" stop-color="#243CA6" stop-opacity="0.288"/>
<stop offset="0.7742" stop-color="#1D308C" stop-opacity="0.774"/>
<stop offset="1" stop-color="#192A7D"/>
</linearGradient>
<linearGradient id="paint6_linear_268_6422" x1="30.8009" y1="37.1728" x2="20.5676" y2="35.2728" gradientUnits="userSpaceOnUse">
<stop stop-color="#2740B0" stop-opacity="0"/>
<stop offset="0.2879" stop-color="#243CA6" stop-opacity="0.288"/>
<stop offset="0.7742" stop-color="#1D308C" stop-opacity="0.774"/>
<stop offset="1" stop-color="#192A7D"/>
</linearGradient>
<linearGradient id="paint7_linear_268_6422" x1="41.1797" y1="38.9089" x2="41.1797" y2="20.884" gradientUnits="userSpaceOnUse">
<stop stop-color="#2740B0" stop-opacity="0"/>
<stop offset="0.2879" stop-color="#243CA6" stop-opacity="0.288"/>
<stop offset="0.7742" stop-color="#1D308C" stop-opacity="0.774"/>
<stop offset="1" stop-color="#192A7D"/>
</linearGradient>
<linearGradient id="paint8_linear_268_6422" x1="25.4924" y1="16.8214" x2="28.4929" y2="19.822" gradientUnits="userSpaceOnUse">
<stop stop-color="#FFDFCF"/>
<stop offset="1" stop-color="#FFA78F"/>
</linearGradient>
<linearGradient id="paint9_linear_268_6422" x1="46.2734" y1="16.2515" x2="50.4721" y2="20.4502" gradientUnits="userSpaceOnUse">
<stop stop-color="#FFDFCF"/>
<stop offset="1" stop-color="#FFA78F"/>
</linearGradient>
<linearGradient id="paint10_linear_268_6422" x1="49.5668" y1="18.4343" x2="46.5518" y2="18.4343" gradientUnits="userSpaceOnUse">
<stop stop-color="#CA6E59" stop-opacity="0"/>
<stop offset="1" stop-color="#883F2E"/>
</linearGradient>
<linearGradient id="paint11_linear_268_6422" x1="31.8256" y1="12.5792" x2="46.2873" y2="27.0409" gradientUnits="userSpaceOnUse">
<stop stop-color="#FFDFCF"/>
<stop offset="1" stop-color="#FFA78F"/>
</linearGradient>
<linearGradient id="paint12_linear_268_6422" x1="41.058" y1="29.1714" x2="36.1247" y2="19.0381" gradientUnits="userSpaceOnUse">
<stop stop-color="#CA6E59" stop-opacity="0"/>
<stop offset="1" stop-color="#883F2E"/>
</linearGradient>
<linearGradient id="paint13_linear_268_6422" x1="36.8596" y1="22.2222" x2="38.3596" y2="26.1722" gradientUnits="userSpaceOnUse">
<stop stop-color="#EAF6FF"/>
<stop offset="1" stop-color="#B3DAFE"/>
</linearGradient>
<linearGradient id="paint14_linear_268_6422" x1="31.3288" y1="18.4342" x2="34.4652" y2="18.4342" gradientUnits="userSpaceOnUse">
<stop stop-color="#7A6D79"/>
<stop offset="1" stop-color="#554E56"/>
</linearGradient>
<linearGradient id="paint15_linear_268_6422" x1="40.8959" y1="18.4342" x2="44.0323" y2="18.4342" gradientUnits="userSpaceOnUse">
<stop stop-color="#7A6D79"/>
<stop offset="1" stop-color="#554E56"/>
</linearGradient>
<linearGradient id="paint16_linear_268_6422" x1="38.9717" y1="5.81471" x2="42.505" y2="14.8147" gradientUnits="userSpaceOnUse">
<stop stop-color="#EAF6FF"/>
<stop offset="1" stop-color="#B3DAFE"/>
</linearGradient>
<linearGradient id="paint17_linear_268_6422" x1="27.1037" y1="8.8324" x2="30.9037" y2="15.4324" gradientUnits="userSpaceOnUse">
<stop stop-color="#EAF6FF"/>
<stop offset="1" stop-color="#B3DAFE"/>
</linearGradient>
<linearGradient id="paint18_linear_268_6422" x1="10.4933" y1="29.1581" x2="16.8913" y2="47.1889" gradientUnits="userSpaceOnUse">
<stop stop-color="#F5F173"/>
<stop offset="1" stop-color="#FBB03B"/>
</linearGradient>
<linearGradient id="paint19_linear_268_6422" x1="11.7433" y1="31.6515" x2="-3.59003" y2="19.0181" gradientUnits="userSpaceOnUse">
<stop stop-color="#DB841D" stop-opacity="0"/>
<stop offset="1" stop-color="#F15A24"/>
</linearGradient>
<linearGradient id="paint20_linear_268_6422" x1="13.6531" y1="35.542" x2="13.6531" y2="50.4034" gradientUnits="userSpaceOnUse">
<stop stop-color="#DB841D" stop-opacity="0"/>
<stop offset="1" stop-color="#F15A24"/>
</linearGradient>
<linearGradient id="paint21_linear_268_6422" x1="3.15424" y1="29.2902" x2="5.82684" y2="31.9628" gradientUnits="userSpaceOnUse">
<stop stop-color="#FFDFCF"/>
<stop offset="1" stop-color="#FFA78F"/>
</linearGradient>
<linearGradient id="paint22_linear_268_6422" x1="17.9326" y1="37.6805" x2="14.1826" y2="12.2306" gradientUnits="userSpaceOnUse">
<stop stop-color="#DB841D" stop-opacity="0"/>
<stop offset="1" stop-color="#F15A24"/>
</linearGradient>
<linearGradient id="paint23_linear_268_6422" x1="1.77794" y1="21.257" x2="3.34214" y2="22.8212" gradientUnits="userSpaceOnUse">
<stop stop-color="#CCFC5C"/>
<stop offset="0.1591" stop-color="#C6F95A"/>
<stop offset="0.3653" stop-color="#B6F053"/>
<stop offset="0.5975" stop-color="#9BE248"/>
<stop offset="0.8469" stop-color="#76CF38"/>
<stop offset="1" stop-color="#5CC12D"/>
</linearGradient>
<linearGradient id="paint24_linear_268_6422" x1="2.10306" y1="22.0429" x2="2.10306" y2="23.5212" gradientUnits="userSpaceOnUse">
<stop stop-color="#5CC12D" stop-opacity="0"/>
<stop offset="0.6065" stop-color="#61942D" stop-opacity="0.607"/>
<stop offset="1" stop-color="#647C2D"/>
</linearGradient>
<linearGradient id="paint25_linear_268_6422" x1="24.8779" y1="21.257" x2="26.4421" y2="22.8212" gradientUnits="userSpaceOnUse">
<stop stop-color="#CCFC5C"/>
<stop offset="0.1591" stop-color="#C6F95A"/>
<stop offset="0.3653" stop-color="#B6F053"/>
<stop offset="0.5975" stop-color="#9BE248"/>
<stop offset="0.8469" stop-color="#76CF38"/>
<stop offset="1" stop-color="#5CC12D"/>
</linearGradient>
<linearGradient id="paint26_linear_268_6422" x1="25.2032" y1="22.0429" x2="25.2032" y2="23.5212" gradientUnits="userSpaceOnUse">
<stop stop-color="#5CC12D" stop-opacity="0"/>
<stop offset="0.6065" stop-color="#61942D" stop-opacity="0.607"/>
<stop offset="1" stop-color="#647C2D"/>
</linearGradient>
<linearGradient id="paint27_linear_268_6422" x1="7.79821" y1="12.5792" x2="22.2599" y2="27.0409" gradientUnits="userSpaceOnUse">
<stop stop-color="#FFDFCF"/>
<stop offset="1" stop-color="#FFA78F"/>
</linearGradient>
<linearGradient id="paint28_linear_268_6422" x1="12.5281" y1="7.31147" x2="15.0781" y2="18.1115" gradientUnits="userSpaceOnUse">
<stop stop-color="#EAF6FF"/>
<stop offset="1" stop-color="#B3DAFE"/>
</linearGradient>
<linearGradient id="paint29_linear_268_6422" x1="7.30145" y1="18.4342" x2="10.4379" y2="18.4342" gradientUnits="userSpaceOnUse">
<stop stop-color="#7A6D79"/>
<stop offset="1" stop-color="#554E56"/>
</linearGradient>
<linearGradient id="paint30_linear_268_6422" x1="16.8683" y1="18.4342" x2="20.0047" y2="18.4342" gradientUnits="userSpaceOnUse">
<stop stop-color="#7A6D79"/>
<stop offset="1" stop-color="#554E56"/>
</linearGradient>
<clipPath id="clip0_268_6422">
<rect width="51" height="43" fill="white" transform="translate(0.833344)"/>
</clipPath>
</defs>
</svg>
