<svg width="50" height="50" viewBox="0 0 50 50" fill="none" xmlns="http://www.w3.org/2000/svg">
<g id="room-service 1" clip-path="url(#clip0_268_6469)">
<g id="Group">
<g id="Group_2">
<g id="Group_3">
<path id="Vector" d="M25.1186 28.3417C24.819 28.3997 24.5619 28.5647 24.4199 28.8213L23.2654 30.9056C22.8408 31.6718 22.1875 32.2919 21.3786 32.7165C22.6423 33.3949 24.1439 33.1824 24.8466 32.2189C25.0252 31.9739 25.1899 31.7184 25.3397 31.4534L26.3457 29.6713C26.5279 29.3485 26.4838 28.9565 26.2694 28.6285C26.2061 28.5803 26.1386 28.5365 26.0656 28.4979C25.755 28.3317 25.4155 28.2842 25.1186 28.3417Z" fill="url(#paint0_linear_268_6469)"/>
<path id="Vector_2" d="M30.1066 29.2832L27.9498 31.6191C27.6287 31.9666 27.2925 32.297 26.9426 32.6094C25.5665 33.8376 23.4806 33.8155 22.1226 32.5674C23.3897 32.1349 24.5415 31.3881 25.4583 30.382L27.9518 27.6449C28.2586 27.3079 28.6752 27.1273 29.0987 27.1094C29.5182 27.0917 29.9455 27.2336 30.2795 27.5397C30.2802 27.5404 30.281 27.5412 30.2819 27.5419C30.4348 27.6812 30.5255 27.8791 30.537 28.0855C30.5607 28.5105 30.4193 28.9445 30.1066 29.2832Z" fill="url(#paint1_linear_268_6469)"/>
<path id="Vector_3" d="M33.9656 30.5394L30.6122 32.8493C30.1131 33.193 29.5999 33.5108 29.0745 33.8023C27.009 34.9486 24.4094 34.3326 23.0647 32.3905C24.7698 32.2075 26.4192 31.5993 27.8484 30.6012L31.7354 27.8851C32.2138 27.5506 32.7852 27.4425 33.3192 27.5395C33.8484 27.6357 34.3421 27.9337 34.6731 28.4101C34.6738 28.4113 34.6746 28.4123 34.6754 28.4135C34.8352 28.6421 34.8851 28.9307 34.8336 29.2049C34.7358 29.727 34.4398 30.2128 33.9656 30.5394Z" fill="url(#paint2_linear_268_6469)"/>
</g>
</g>
<path id="Vector_4" d="M23.1816 35.1226C25.9066 35.1226 28.1156 34.149 28.1156 32.948C28.1156 31.747 25.9066 30.7734 23.1816 30.7734C20.4567 30.7734 18.2477 31.747 18.2477 32.948C18.2477 34.149 20.4567 35.1226 23.1816 35.1226Z" fill="url(#paint3_linear_268_6469)"/>
<g id="Group_4">
<path id="Vector_5" d="M29.3097 4.6646C29.297 6.02944 27.9077 6.9646 26.6395 6.46009C26.0409 6.22192 25.3724 6.08875 24.6669 6.08875C23.9613 6.08875 23.2928 6.22192 22.6942 6.46009C21.426 6.9647 20.0366 6.02944 20.024 4.6646C20.0239 4.65425 20.0238 4.64381 20.0238 4.63337C20.0238 2.46596 22.1026 0.708984 24.6669 0.708984C27.2311 0.708984 29.3099 2.46596 29.3099 4.63337C29.3099 4.64381 29.3098 4.65416 29.3097 4.6646Z" fill="url(#paint4_linear_268_6469)"/>
<g id="Group_5">
<g id="Group_6">
<path id="Vector_6" d="M46.5158 23.3449C46.5158 23.6364 46.5074 24.7199 46.491 25.0078C46.3889 26.7884 44.6115 28.1887 42.4538 28.1887H6.87991C4.72227 28.1887 2.94479 26.7884 2.84276 25.0078C2.82628 24.7199 2.81795 23.6364 2.81795 23.3449C2.81795 13.3757 12.601 5.29443 24.6669 5.29443C36.7339 5.29443 46.5158 13.3757 46.5158 23.3449Z" fill="url(#paint5_linear_268_6469)"/>
<path id="Vector_7" d="M42.4538 28.1886C44.6114 28.1886 46.3889 26.7883 46.4909 25.0077C46.5074 24.7198 46.5157 23.6363 46.5157 23.3449C46.5157 13.3757 36.7339 5.29443 24.6668 5.29443V28.1887H42.4538V28.1886Z" fill="url(#paint6_linear_268_6469)"/>
<path id="Vector_8" d="M2.81801 23.3449C2.81801 23.6363 2.82634 24.7198 2.84282 25.0078C2.94485 26.7883 4.72233 28.1886 6.87997 28.1886H42.4539C44.6115 28.1886 46.389 26.7883 46.491 25.0078C46.5075 24.7198 46.5158 23.6363 46.5158 23.3449C46.5158 20.1498 45.5097 17.1492 43.7469 14.5459H5.58717C3.82425 17.1492 2.81801 20.1498 2.81801 23.3449Z" fill="url(#paint7_linear_268_6469)"/>
</g>
</g>
</g>
<path id="Vector_9" d="M47.4692 30.0153H1.86424C0.965105 30.0153 0.236313 29.2864 0.236313 28.3873V27.3433C0.236313 26.4442 0.965105 25.7153 1.86424 25.7153H47.4693C48.3683 25.7153 49.0972 26.4441 49.0972 27.3433V28.3873C49.0971 29.2864 48.3683 30.0153 47.4692 30.0153Z" fill="url(#paint8_linear_268_6469)"/>
<path id="Vector_10" d="M31.7802 30.015L25.7695 24.0044L19.759 30.015H31.7802Z" fill="url(#paint9_linear_268_6469)"/>
<g id="Group_7">
<g id="Group_8">
<g id="Group_9">
<g id="Group_10">
<path id="Vector_11" d="M37.2432 30.0149C34.2943 34.2294 29.7914 37.117 24.7185 38.0434L21.4621 38.6125L19.4023 38.9536C18.7068 39.0676 18.0677 39.3693 17.5456 39.8129L15.6946 41.297C15.2242 41.6735 14.5373 41.5968 14.1608 41.1274L9.45673 35.2535C9.19998 34.9326 9.14537 34.4948 9.31494 34.1211L10.4589 31.6034C10.729 31.0055 11.1075 30.4652 11.5731 30.0149C11.9055 29.693 12.283 29.418 12.6978 29.2015C12.7438 29.1766 12.7908 29.1536 12.8387 29.1306C12.8463 29.1277 12.853 29.123 12.8617 29.1201C13.6827 28.7225 16.3432 28.0106 17.3894 27.7376C17.696 27.6581 17.9968 27.5546 18.2833 27.4205C19.2634 26.9625 20.1812 26.3896 21.0185 25.7152C21.6269 25.2285 22.1922 24.6862 22.7076 24.098C23.3265 23.3928 24.32 23.1936 25.1449 23.5682C25.2637 23.6218 25.3786 23.6879 25.4888 23.7655C26.1374 24.2235 26.4459 24.9822 26.3616 25.7152C26.3204 26.0706 26.1872 26.4203 25.9564 26.7259C25.0864 27.8823 24.1418 28.9812 23.1282 30.0149C22.7066 30.446 22.2726 30.8657 21.8281 31.2738L21.7687 31.3945C21.5531 31.8304 21.7716 32.2433 22.2535 32.3085C25.0194 32.6869 25.781 32.5442 27.631 32.046C29.0758 31.656 30.4171 30.9653 31.5456 30.0149H37.2432Z" fill="url(#paint10_linear_268_6469)"/>
<path id="Vector_12" d="M27.6312 32.0461C26.2185 32.4266 25.4395 32.5994 23.9191 32.4915V38.1833L24.7187 38.0436C29.7916 37.1172 34.2944 34.2296 37.2433 30.0151H31.5458C30.4172 30.9654 29.0759 31.6562 27.6312 32.0461Z" fill="url(#paint11_linear_268_6469)"/>
<path id="Vector_13" d="M16.9063 27.8652C15.6816 28.1909 13.5763 28.7745 12.8613 29.1199C12.8535 29.1233 12.8462 29.1272 12.8384 29.1306C12.7909 29.1534 12.7438 29.1768 12.6978 29.2013C11.7014 29.721 10.9227 30.5792 10.4586 31.6028L9.31535 34.1206C9.14549 34.4947 9.20029 34.9326 9.45715 35.2533L14.1612 41.1268C14.5377 41.5969 15.2242 41.6729 15.6943 41.2963L17.5461 39.8131C18.0678 39.3696 18.7067 39.0676 19.4021 38.9529L21.4621 38.6127L24.7188 38.0433C24.8169 38.0254 24.9144 38.0054 25.0121 37.9859L16.9063 27.8652Z" fill="url(#paint12_linear_268_6469)"/>
</g>
</g>
</g>
<g id="Group_11">
<g id="Group_12">
<path id="Vector_14" d="M18.1885 41.1023L15.4054 43.8855C14.861 44.4298 13.9783 44.4298 13.434 43.8855L5.89648 36.3479C5.35211 35.8035 5.35211 34.9208 5.89648 34.3765L8.67963 31.5933C9.22399 31.049 10.1067 31.049 10.651 31.5933L18.1886 39.1309C18.7329 39.6754 18.7329 40.5579 18.1885 41.1023Z" fill="url(#paint13_linear_268_6469)"/>
<path id="Vector_15" d="M10.303 40.7545L13.434 43.8856C13.9784 44.4299 14.861 44.4299 15.4054 43.8856L18.1885 41.1024C18.7329 40.558 18.7329 39.6754 18.1885 39.131L15.0575 36L10.303 40.7545Z" fill="url(#paint14_linear_268_6469)"/>
</g>
<g id="Group_13">
<path id="Vector_16" d="M17.149 43.2246L11.7591 48.6145C11.1472 49.2264 10.3173 49.5702 9.452 49.5702H1.70325C0.89312 49.5701 0.236374 48.9134 0.236374 48.1031V40.3066C0.236374 39.4414 0.580028 38.6116 1.19184 37.9997L6.55704 32.6336C7.16359 32.0271 8.14693 32.0271 8.75348 32.6336L17.1492 41.0293C17.7553 41.6355 17.7553 42.6184 17.149 43.2246Z" fill="url(#paint15_linear_268_6469)"/>
<path id="Vector_17" d="M17.1491 43.2246L11.7592 48.6145C11.1473 49.2264 10.3174 49.5702 9.45213 49.5702H1.63364L13.6618 37.542L17.1492 41.0294C17.7554 41.6355 17.7554 42.6183 17.1491 43.2246Z" fill="url(#paint16_linear_268_6469)"/>
</g>
</g>
</g>
</g>
</g>
<defs>
<linearGradient id="paint0_linear_268_6469" x1="23.2121" y1="29.4623" x2="24.0345" y2="30.7349" gradientUnits="userSpaceOnUse">
<stop stop-color="#FFDFCF"/>
<stop offset="1" stop-color="#FFA78F"/>
</linearGradient>
<linearGradient id="paint1_linear_268_6469" x1="25.7902" y1="29.2137" x2="26.6831" y2="30.9219" gradientUnits="userSpaceOnUse">
<stop stop-color="#FFDFCF"/>
<stop offset="1" stop-color="#FFA78F"/>
</linearGradient>
<linearGradient id="paint2_linear_268_6469" x1="28.5997" y1="29.587" x2="29.315" y2="31.5974" gradientUnits="userSpaceOnUse">
<stop stop-color="#FFDFCF"/>
<stop offset="1" stop-color="#FFA78F"/>
</linearGradient>
<linearGradient id="paint3_linear_268_6469" x1="22.4706" y1="30.6854" x2="23.5244" y2="34.0386" gradientUnits="userSpaceOnUse">
<stop stop-color="#FFDFCF"/>
<stop offset="1" stop-color="#FFA78F"/>
</linearGradient>
<linearGradient id="paint4_linear_268_6469" x1="23.3044" y1="1.24348" x2="25.4577" y2="6.38737" gradientUnits="userSpaceOnUse">
<stop stop-color="#E1D3CE"/>
<stop offset="1" stop-color="#9E9797"/>
</linearGradient>
<linearGradient id="paint5_linear_268_6469" x1="16.1905" y1="12.9649" x2="29.9524" y2="26.727" gradientUnits="userSpaceOnUse">
<stop stop-color="#E1D3CE"/>
<stop offset="1" stop-color="#9E9797"/>
</linearGradient>
<linearGradient id="paint6_linear_268_6469" x1="34.0444" y1="16.6964" x2="51.3924" y2="14.0942" gradientUnits="userSpaceOnUse">
<stop stop-color="#433F43" stop-opacity="0"/>
<stop offset="0.3007" stop-color="#3C393C" stop-opacity="0.301"/>
<stop offset="0.7373" stop-color="#292729" stop-opacity="0.737"/>
<stop offset="1" stop-color="#1A1A1A"/>
</linearGradient>
<linearGradient id="paint7_linear_268_6469" x1="24.6669" y1="19.5351" x2="24.6669" y2="29.3759" gradientUnits="userSpaceOnUse">
<stop stop-color="#433F43" stop-opacity="0"/>
<stop offset="0.3007" stop-color="#3C393C" stop-opacity="0.301"/>
<stop offset="0.7373" stop-color="#292729" stop-opacity="0.737"/>
<stop offset="1" stop-color="#1A1A1A"/>
</linearGradient>
<linearGradient id="paint8_linear_268_6469" x1="24.6667" y1="26.1759" x2="24.6667" y2="29.2925" gradientUnits="userSpaceOnUse">
<stop stop-color="#E1D3CE"/>
<stop offset="1" stop-color="#9E9797"/>
</linearGradient>
<linearGradient id="paint9_linear_268_6469" x1="27.1748" y1="30.1317" x2="22.9115" y2="27.1139" gradientUnits="userSpaceOnUse">
<stop stop-color="#433F43" stop-opacity="0"/>
<stop offset="0.3007" stop-color="#3C393C" stop-opacity="0.301"/>
<stop offset="0.7373" stop-color="#292729" stop-opacity="0.737"/>
<stop offset="1" stop-color="#1A1A1A"/>
</linearGradient>
<linearGradient id="paint10_linear_268_6469" x1="21.3482" y1="26.5886" x2="25.5723" y2="39.5857" gradientUnits="userSpaceOnUse">
<stop stop-color="#FFDFCF"/>
<stop offset="1" stop-color="#FFA78F"/>
</linearGradient>
<linearGradient id="paint11_linear_268_6469" x1="29.9729" y1="33.5894" x2="31.1704" y2="28.9908" gradientUnits="userSpaceOnUse">
<stop stop-color="#F89580" stop-opacity="0"/>
<stop offset="0.2599" stop-color="#F2917C" stop-opacity="0.261"/>
<stop offset="0.5954" stop-color="#E2856F" stop-opacity="0.597"/>
<stop offset="0.9709" stop-color="#C8725B" stop-opacity="0.974"/>
<stop offset="0.9972" stop-color="#C5715A"/>
</linearGradient>
<linearGradient id="paint12_linear_268_6469" x1="17.8602" y1="34.4937" x2="15.1887" y2="37.6706" gradientUnits="userSpaceOnUse">
<stop stop-color="#F89580" stop-opacity="0"/>
<stop offset="0.2599" stop-color="#F2917C" stop-opacity="0.261"/>
<stop offset="0.5954" stop-color="#E2856F" stop-opacity="0.597"/>
<stop offset="0.9709" stop-color="#C8725B" stop-opacity="0.974"/>
<stop offset="0.9972" stop-color="#C5715A"/>
</linearGradient>
<linearGradient id="paint13_linear_268_6469" x1="12.6307" y1="37.3084" x2="15.2974" y2="35.4532" gradientUnits="userSpaceOnUse">
<stop stop-color="#FFFDF1"/>
<stop offset="1" stop-color="#FFF5C6"/>
</linearGradient>
<linearGradient id="paint14_linear_268_6469" x1="14.5118" y1="40.2111" x2="18.489" y2="44.1882" gradientUnits="userSpaceOnUse">
<stop stop-color="#FEA613" stop-opacity="0"/>
<stop offset="0.1832" stop-color="#FC9B19" stop-opacity="0.183"/>
<stop offset="0.5086" stop-color="#F57D28" stop-opacity="0.509"/>
<stop offset="0.9356" stop-color="#EB4C40" stop-opacity="0.936"/>
<stop offset="1" stop-color="#E94444"/>
</linearGradient>
<linearGradient id="paint15_linear_268_6469" x1="3.76" y1="40.3951" x2="11.7376" y2="44.5074" gradientUnits="userSpaceOnUse">
<stop stop-color="#554E56"/>
<stop offset="1" stop-color="#433F43"/>
</linearGradient>
<linearGradient id="paint16_linear_268_6469" x1="9.45768" y1="45.3659" x2="11.7693" y2="47.6775" gradientUnits="userSpaceOnUse">
<stop stop-color="#433F43" stop-opacity="0"/>
<stop offset="1" stop-color="#1A1A1A"/>
</linearGradient>
<clipPath id="clip0_268_6469">
<rect width="48.8608" height="48.8608" fill="white" transform="translate(0.236282 0.708984)"/>
</clipPath>
</defs>
</svg>
