<svg width="116" height="37" viewBox="0 0 116 37" fill="none" xmlns="http://www.w3.org/2000/svg">
<path d="M22.96 30.672H22.72C22.464 32.368 21.6 33.776 20.128 34.896C18.656 36.016 16.656 36.576 14.128 36.576C12.208 36.576 10.416 36.208 8.752 35.472C7.088 34.736 5.632 33.648 4.384 32.208C3.136 30.768 2.16 28.976 1.456 26.832C0.752 24.688 0.4 22.208 0.4 19.392C0.4 16.576 0.768 14.08 1.504 11.904C2.24 9.728 3.264 7.904 4.576 6.432C5.92 4.96 7.52 3.84 9.376 3.072C11.232 2.304 13.296 1.92 15.568 1.92C18.576 1.92 21.168 2.576 23.344 3.888C25.52 5.168 27.232 7.104 28.48 9.696L22.528 13.104C22.016 11.792 21.216 10.688 20.128 9.792C19.04 8.864 17.52 8.4 15.568 8.4C13.296 8.4 11.488 9.056 10.144 10.368C8.8 11.68 8.128 13.744 8.128 16.56V21.936C8.128 24.72 8.8 26.784 10.144 28.128C11.488 29.44 13.296 30.096 15.568 30.096C16.464 30.096 17.312 30 18.112 29.808C18.912 29.584 19.616 29.264 20.224 28.848C20.832 28.4 21.296 27.872 21.616 27.264C21.968 26.656 22.144 25.936 22.144 25.104V23.424H15.904V17.328H29.104V36H22.96V30.672Z" fill="#00C9A7"/>
<path d="M42.868 36C40.436 36 38.644 35.408 37.492 34.224C36.372 33.04 35.812 31.328 35.812 29.088V0.48H42.916V30.48H46.084V36H42.868ZM53.8953 8.112C52.4553 8.112 51.3993 7.792 50.7273 7.152C50.0873 6.48 49.7673 5.632 49.7673 4.608V3.552C49.7673 2.528 50.0873 1.696 50.7273 1.056C51.3993 0.383999 52.4553 0.0479994 53.8953 0.0479994C55.3353 0.0479994 56.3753 0.383999 57.0153 1.056C57.6873 1.696 58.0233 2.528 58.0233 3.552V4.608C58.0233 5.632 57.6873 6.48 57.0153 7.152C56.3753 7.792 55.3353 8.112 53.8953 8.112ZM50.3433 10.8H57.4473V36H50.3433V10.8ZM79.5336 31.776H79.2936C79.1016 32.448 78.7976 33.088 78.3816 33.696C77.9656 34.272 77.4536 34.784 76.8456 35.232C76.2696 35.648 75.5976 35.968 74.8296 36.192C74.0936 36.448 73.3256 36.576 72.5256 36.576C69.3256 36.576 66.9096 35.456 65.2776 33.216C63.6456 30.944 62.8296 27.664 62.8296 23.376C62.8296 19.088 63.6456 15.824 65.2776 13.584C66.9096 11.344 69.3256 10.224 72.5256 10.224C74.1576 10.224 75.5976 10.672 76.8456 11.568C78.1256 12.464 78.9416 13.616 79.2936 15.024H79.5336V0.48H86.6376V36H79.5336V31.776ZM74.8776 30.816C76.2216 30.816 77.3256 30.496 78.1896 29.856C79.0856 29.184 79.5336 28.272 79.5336 27.12V19.68C79.5336 18.528 79.0856 17.632 78.1896 16.992C77.3256 16.32 76.2216 15.984 74.8776 15.984C73.5336 15.984 72.4136 16.464 71.5176 17.424C70.6536 18.352 70.2216 19.616 70.2216 21.216V25.584C70.2216 27.184 70.6536 28.464 71.5176 29.424C72.4136 30.352 73.5336 30.816 74.8776 30.816ZM103.793 36.576C101.873 36.576 100.161 36.272 98.6568 35.664C97.1528 35.024 95.8728 34.144 94.8168 33.024C93.7928 31.872 93.0088 30.48 92.4648 28.848C91.9528 27.216 91.6968 25.392 91.6968 23.376C91.6968 21.392 91.9528 19.6 92.4648 18C92.9768 16.368 93.7288 14.976 94.7208 13.824C95.7448 12.672 96.9928 11.792 98.4648 11.184C99.9368 10.544 101.617 10.224 103.505 10.224C105.585 10.224 107.361 10.576 108.833 11.28C110.337 11.984 111.553 12.928 112.481 14.112C113.441 15.296 114.129 16.672 114.545 18.24C114.993 19.776 115.217 21.392 115.217 23.088V25.2H99.0408V25.584C99.0408 27.248 99.4888 28.576 100.385 29.568C101.281 30.528 102.689 31.008 104.609 31.008C106.081 31.008 107.281 30.72 108.209 30.144C109.137 29.536 110.001 28.816 110.801 27.984L114.353 32.4C113.233 33.712 111.761 34.736 109.937 35.472C108.145 36.208 106.097 36.576 103.793 36.576ZM103.649 15.456C102.209 15.456 101.073 15.936 100.241 16.896C99.4408 17.824 99.0408 19.072 99.0408 20.64V21.024H107.873V20.592C107.873 19.056 107.521 17.824 106.817 16.896C106.145 15.936 105.089 15.456 103.649 15.456Z" fill="#1F1F1F"/>
</svg>
