<svg width="31" height="30" viewBox="0 0 31 30" fill="none" xmlns="http://www.w3.org/2000/svg">
<g clip-path="url(#clip0_99_10364)">
<path d="M30.3017 15.1412C30.3017 14.1217 30.2209 13.0967 30.0485 12.0938H16.2217V17.869H24.1397C23.8111 19.7317 22.4609 21.6067 20.915 22.6537L21.2095 26.1737L25.6083 26.1737C28.3823 23.5616 30.3017 19.7041 30.3017 15.1412Z" fill="#4285F4"/>
<path d="M15.8643 29.6938C19.8289 29.6938 23.1723 28.4085 25.6083 26.1898L20.9149 22.6538C19.597 23.5391 17.852 23.9498 15.8697 23.9498C12.0347 23.9498 8.58829 21.3951 7.4216 17.9604H2.72827V21.6991C5.22368 26.6005 10.3063 29.6938 15.8643 29.6938Z" fill="#34A853"/>
<path d="M7.42153 17.9603C6.74909 16.1753 7.04242 13.8786 7.71486 12.0936L8.0082 8.57361L2.72818 8.28027C0.451314 12.3413 0.39898 17.4192 2.67585 21.4803L7.42153 17.9603Z" fill="#FBBC04"/>
<path d="M16.1473 6.10224C18.2881 6.07026 20.3572 6.84851 21.9077 8.27707L26.1949 4.1353C23.4802 1.67262 19.8772 0.318685 16.1473 0.361329C10.4696 0.361329 5.27744 3.37632 2.72827 8.28035L7.71625 12.0937C8.90255 8.65553 12.2297 6.10224 16.1473 6.10224Z" fill="#EA4335"/>
</g>
<defs>
<clipPath id="clip0_99_10364">
<rect width="29.3333" height="29.3333" fill="white" transform="translate(0.968262 0.360352)"/>
</clipPath>
</defs>
</svg>
