<svg width="32" height="32" viewBox="0 0 32 32" fill="none" xmlns="http://www.w3.org/2000/svg">
<g id="vuesax/twotone/video-time">
<g id="video-time">
<path id="Vector" d="M29.3334 11.9998V19.9998C29.3334 20.2932 29.3334 20.5865 29.3067 20.8665C28.2134 19.5199 26.5467 18.6665 24.6667 18.6665C23.2534 18.6665 21.9467 19.1598 20.92 19.9865C19.5334 21.0798 18.6667 22.7732 18.6667 24.6665C18.6667 26.5465 19.52 28.2131 20.8667 29.3065C20.5867 29.3331 20.2934 29.3332 20 29.3332H12C5.33335 29.3332 2.66669 26.6665 2.66669 19.9998V11.9998C2.66669 5.33317 5.33335 2.6665 12 2.6665H20C26.6667 2.6665 29.3334 5.33317 29.3334 11.9998Z" stroke="#868E96" stroke-width="1.5" stroke-linecap="round" stroke-linejoin="round"/>
<g id="Group 132" opacity="0.4">
<path id="Vector_2" d="M3.36005 9.47998H28.6401" stroke="#868E96" stroke-width="1.5" stroke-linecap="round" stroke-linejoin="round"/>
<path id="Vector_3" d="M11.36 2.81348V9.29346" stroke="#868E96" stroke-width="1.5" stroke-linecap="round" stroke-linejoin="round"/>
<path id="Vector_4" d="M20.64 2.81348V8.69352" stroke="#868E96" stroke-width="1.5" stroke-linecap="round" stroke-linejoin="round"/>
</g>
<g id="Group">
<path id="Vector_5" d="M30.6667 24.6665C30.6667 26.4665 29.8667 28.0665 28.6267 29.1732C27.56 30.0932 26.1867 30.6665 24.6667 30.6665C23.2267 30.6665 21.8933 30.1598 20.8667 29.3065C19.52 28.2131 18.6667 26.5465 18.6667 24.6665C18.6667 22.7732 19.5334 21.0798 20.92 19.9865C21.9467 19.1598 23.2534 18.6665 24.6667 18.6665C26.5467 18.6665 28.2134 19.5199 29.3067 20.8665C30.16 21.8932 30.6667 23.2265 30.6667 24.6665Z" stroke="#868E96" stroke-width="1.5" stroke-miterlimit="10" stroke-linecap="round" stroke-linejoin="round"/>
<path id="Vector_6" opacity="0.4" d="M25.04 22.7866V25.04L23.1733 26.1599" stroke="#272728" stroke-width="1.5" stroke-miterlimit="10" stroke-linecap="round" stroke-linejoin="round"/>
</g>
</g>
</g>
</svg>
