<svg width="32" height="32" viewBox="0 0 32 32" fill="none" xmlns="http://www.w3.org/2000/svg">
<g id="vuesax/bold/video-time">
<g id="video-time">
<path id="Vector" d="M28.9185 21.1819L28.9185 21.1819L28.9222 21.1863C29.7018 22.1243 30.1667 23.3449 30.1667 24.6667C30.1667 26.3125 29.4367 27.7788 28.2969 28.7975C27.3139 29.6442 26.0556 30.1667 24.6667 30.1667C23.3449 30.1667 22.1243 29.7019 21.1863 28.9222L21.1863 28.9222L21.1818 28.9186C19.9484 27.9172 19.1667 26.3914 19.1667 24.6667C19.1667 22.9293 19.961 21.3796 21.2296 20.3794L21.2296 20.3794L21.2336 20.3762C22.1745 19.6186 23.3713 19.1667 24.6667 19.1667C26.3913 19.1667 27.9171 19.9484 28.9185 21.1819ZM23.932 27.4453L23.932 27.4453L23.9359 27.443L25.8144 26.3239C25.8147 26.3237 25.815 26.3235 25.8152 26.3234C26.2647 26.0574 26.54 25.5581 26.54 25.0401V22.8001C26.54 21.9773 25.8628 21.3001 25.04 21.3001C24.2172 21.3001 23.54 21.9773 23.54 22.8001V24.1961L22.3992 24.8762C21.6712 25.3025 21.4627 26.2256 21.8748 26.932L21.8747 26.9321L21.8796 26.9401C22.1604 27.4014 22.6589 27.6601 23.16 27.6601C23.4465 27.6601 23.7058 27.5772 23.932 27.4453Z" fill="#00C9A7" stroke="#00C9A7"/>
<path id="Vector_2" d="M19.14 3.33341V7.81342C19.14 7.91061 19.0705 7.98008 18.9733 7.98008H13.0267C12.9295 7.98008 12.86 7.91061 12.86 7.81342V3.33341C12.86 3.23622 12.9295 3.16675 13.0267 3.16675H18.9733C19.0705 3.16675 19.14 3.23622 19.14 3.33341Z" fill="#00C9A7" stroke="#00C9A7"/>
<path id="Vector_3" d="M9.69787 3.19248L9.69787 3.1925L9.7023 3.19218C9.73204 3.19006 9.76912 3.20053 9.80454 3.23502C9.84098 3.2705 9.86001 3.3171 9.86001 3.36012V7.81345C9.86001 7.91064 9.79054 7.98012 9.69335 7.98012H3.69335C3.5861 7.98012 3.49274 7.87422 3.53187 7.74512L3.53285 7.74179C3.93816 6.36998 4.67923 5.29115 5.70377 4.52771C6.73078 3.76243 8.06966 3.29424 9.69787 3.19248Z" fill="#00C9A7" stroke="#00C9A7"/>
<path id="Vector_4" d="M22.2977 3.17875L22.2977 3.17877L22.3022 3.17905C23.9304 3.28081 25.2693 3.749 26.2963 4.51429C27.3208 5.27772 28.0619 6.35656 28.4672 7.72836L28.4672 7.72836L28.4682 7.73169C28.5073 7.86079 28.4139 7.96669 28.3067 7.96669H22.3067C22.2095 7.96669 22.14 7.89721 22.14 7.80002V3.34669C22.14 3.30367 22.159 3.25707 22.1955 3.22159C22.2309 3.1871 22.268 3.17663 22.2977 3.17875Z" fill="#00C9A7" stroke="#00C9A7"/>
<path id="Vector_5" d="M29.3334 11.1466V16.9866C29.3334 17.48 28.8134 17.8 28.3734 17.5733C27.2534 16.9866 25.9734 16.6666 24.6667 16.6666C22.52 16.6666 20.4267 17.5466 18.9334 19.08C17.4667 20.5733 16.6667 22.56 16.6667 24.6666C16.6667 25.7466 17.0934 27.1333 17.6267 28.2933C17.84 28.76 17.52 29.3333 17 29.3333H10.4134C6.13335 29.3333 2.66669 25.8666 2.66669 21.5866V11.1466C2.66669 10.7733 2.96002 10.48 3.33335 10.48H28.6667C29.04 10.48 29.3334 10.7733 29.3334 11.1466Z" fill="#00C9A7"/>
</g>
</g>
</svg>
