<svg width="16" height="16" viewBox="0 0 16 16" fill="none" xmlns="http://www.w3.org/2000/svg">
<g id="vuesax/bulk/home">
<g id="home">
<path id="Vector" opacity="0.4" d="M13.8867 5.34018L9.52002 1.84684C8.66668 1.16684 7.33335 1.16018 6.48668 1.84017L2.12002 5.34018C1.49335 5.84018 1.11335 6.84017 1.24668 7.62684L2.08668 12.6535C2.28002 13.7802 3.32668 14.6668 4.46668 14.6668H11.5333C12.66 14.6668 13.7267 13.7602 13.92 12.6468L14.76 7.62017C14.88 6.84017 14.5 5.84018 13.8867 5.34018Z" fill="#272728"/>
<path id="Vector_2" d="M8 12.5C7.72667 12.5 7.5 12.2733 7.5 12V10C7.5 9.72667 7.72667 9.5 8 9.5C8.27333 9.5 8.5 9.72667 8.5 10V12C8.5 12.2733 8.27333 12.5 8 12.5Z" fill="#272728"/>
</g>
</g>
</svg>
