<svg width="245" height="79" viewBox="0 0 245 79" fill="none" xmlns="http://www.w3.org/2000/svg">
<path d="M48.2042 65.6429H47.6926C47.147 69.2581 45.3053 72.2594 42.1676 74.6467C39.0299 77.0341 34.7667 78.2278 29.3781 78.2278C25.2855 78.2278 21.4657 77.4434 17.9187 75.8745C14.3718 74.3057 11.2682 71.9865 8.608 68.9171C5.94779 65.8476 3.86737 62.0278 2.36674 57.4577C0.866105 52.8876 0.115789 47.6013 0.115789 41.5987C0.115789 35.5962 0.900211 30.2758 2.46905 25.6375C4.03789 20.9992 6.22063 17.1112 9.01726 13.9735C11.8821 10.8358 15.2926 8.44842 19.2488 6.81136C23.2051 5.17431 27.6046 4.35579 32.4476 4.35579C38.8594 4.35579 44.3844 5.7541 49.0227 8.55073C53.6611 11.2792 57.3103 15.4059 59.9705 20.9309L47.2834 28.1954C46.192 25.3987 44.4867 23.0455 42.1676 21.1356C39.8484 19.1575 36.6084 18.1684 32.4476 18.1684C27.6046 18.1684 23.7507 19.5667 20.8859 22.3634C18.0211 25.16 16.5886 29.5596 16.5886 35.5621V47.0215C16.5886 52.9558 18.0211 57.3554 20.8859 60.2202C23.7507 63.0168 27.6046 64.4152 32.4476 64.4152C34.3575 64.4152 36.1651 64.2105 37.8703 63.8013C39.5756 63.3238 41.0762 62.6417 42.3722 61.7549C43.6682 60.8 44.6573 59.6745 45.3394 58.3785C46.0897 57.0825 46.4648 55.5478 46.4648 53.7743V50.1933H33.1638V37.1992H61.3006V77H48.2042V65.6429Z" fill="white"/>
<path d="M90.6397 77C85.4557 77 81.6359 75.7381 79.1803 73.2143C76.7929 70.6905 75.5993 67.0413 75.5993 62.2665V1.28632H90.742V65.2337H97.4948V77H90.6397ZM114.145 17.5545C111.076 17.5545 108.825 16.8724 107.392 15.5082C106.028 14.0758 105.346 12.2682 105.346 10.0855V7.83452C105.346 5.65179 106.028 3.87831 107.392 2.5141C108.825 1.08168 111.076 0.365473 114.145 0.365473C117.215 0.365473 119.431 1.08168 120.796 2.5141C122.228 3.87831 122.944 5.65179 122.944 7.83452V10.0855C122.944 12.2682 122.228 14.0758 120.796 15.5082C119.431 16.8724 117.215 17.5545 114.145 17.5545ZM106.574 23.2842H121.717V77H106.574V23.2842ZM168.795 67.9962H168.284C167.875 69.4286 167.227 70.7928 166.34 72.0888C165.453 73.3166 164.362 74.408 163.066 75.3629C161.838 76.2497 160.405 76.9318 158.768 77.4093C157.2 77.9549 155.563 78.2278 153.857 78.2278C147.036 78.2278 141.886 75.8404 138.408 71.0657C134.929 66.2227 133.189 59.2312 133.189 50.0909C133.189 40.9507 134.929 33.9933 138.408 29.2185C141.886 24.4438 147.036 22.0564 153.857 22.0564C157.336 22.0564 160.405 23.0114 163.066 24.9213C165.794 26.8312 167.533 29.2867 168.284 32.288H168.795V1.28632H183.938V77H168.795V67.9962ZM158.871 65.9499C161.736 65.9499 164.089 65.2678 165.931 63.9036C167.84 62.4712 168.795 60.5272 168.795 58.0716V42.2126C168.795 39.7571 167.84 37.8472 165.931 36.4829C164.089 35.0505 161.736 34.3343 158.871 34.3343C156.006 34.3343 153.619 35.3575 151.709 37.4038C149.867 39.3819 148.946 42.0762 148.946 45.4867V54.7975C148.946 58.208 149.867 60.9364 151.709 62.9827C153.619 64.9608 156.006 65.9499 158.871 65.9499ZM220.506 78.2278C216.413 78.2278 212.764 77.5798 209.558 76.2838C206.352 74.9196 203.623 73.0438 201.373 70.6564C199.19 68.2008 197.519 65.2337 196.359 61.7549C195.268 58.2762 194.722 54.3882 194.722 50.0909C194.722 45.8619 195.268 42.0421 196.359 38.6316C197.45 35.1528 199.053 32.1857 201.168 29.7301C203.351 27.2745 206.011 25.3987 209.149 24.1027C212.286 22.7385 215.867 22.0564 219.892 22.0564C224.325 22.0564 228.111 22.8067 231.249 24.3074C234.455 25.808 237.047 27.8202 239.025 30.344C241.071 32.8678 242.538 35.8008 243.424 39.1432C244.379 42.4173 244.857 45.8619 244.857 49.4771V53.9789H210.376V54.7975C210.376 58.3444 211.331 61.1752 213.241 63.2897C215.151 65.336 218.152 66.3592 222.245 66.3592C225.383 66.3592 227.941 65.7453 229.919 64.5175C231.897 63.2215 233.738 61.6867 235.444 59.9133L243.015 69.3263C240.628 72.1229 237.49 74.3057 233.602 75.8745C229.782 77.4434 225.417 78.2278 220.506 78.2278ZM220.199 33.2088C217.129 33.2088 214.708 34.232 212.934 36.2783C211.229 38.2564 210.376 40.9166 210.376 44.2589V45.0775H229.202V44.1566C229.202 40.8825 228.452 38.2564 226.951 36.2783C225.519 34.232 223.268 33.2088 220.199 33.2088Z" fill="#00C9A7"/>
</svg>
