<svg width="46" height="46" viewBox="0 0 46 46" fill="none" xmlns="http://www.w3.org/2000/svg">
<g id="bakery 1" clip-path="url(#clip0_268_6503)">
<path id="Vector" d="M38.0683 12.1953L38.0286 12.2148C36.6818 12.8722 35.1051 12.8645 33.7646 12.1942C32.4066 11.5316 30.8198 11.5316 29.4629 12.1942L29.4618 12.1953C28.1039 12.8579 26.5171 12.8579 25.1591 12.1953L25.1581 12.1942C23.8012 11.5316 22.2144 11.5316 20.8564 12.1942L20.8554 12.1953C19.4985 12.8579 17.9103 12.8579 16.5534 12.1953H16.5523C15.8741 11.8634 15.138 11.6974 14.4015 11.6974C13.6578 11.6974 12.9137 11.8669 12.2281 12.2061C10.8819 12.8715 9.29796 12.8541 7.94799 12.1953C6.95422 11.7102 5.79611 12.4338 5.79611 13.5397V39.2876C5.79611 41.0645 7.23661 42.5054 9.01382 42.5054H37.0025C38.7797 42.5054 40.2202 41.0645 40.2202 39.2876V13.5397C40.2202 12.4338 39.0621 11.7102 38.0683 12.1953Z" fill="url(#paint0_linear_268_6503)"/>
<path id="Vector_2" d="M38.0683 12.1953L38.0286 12.2148C36.6818 12.8722 35.1051 12.8645 33.7646 12.1942C32.4066 11.5316 30.8198 11.5316 29.4629 12.1942L29.4618 12.1953C28.1039 12.8579 26.5171 12.8579 25.1591 12.1953L25.1581 12.1942C23.8012 11.5316 22.2144 11.5316 20.8564 12.1942L20.8554 12.1953C19.4985 12.8579 17.9103 12.8579 16.5534 12.1953H16.5523C15.8741 11.8634 15.138 11.6974 14.4015 11.6974C13.6578 11.6974 12.9137 11.8669 12.2281 12.2061C10.8819 12.8715 9.29796 12.8541 7.94799 12.1953C6.95422 11.7102 5.79611 12.4338 5.79611 13.5397V39.2876C5.79611 41.0645 7.23661 42.5054 9.01382 42.5054H37.0025C38.7797 42.5054 40.2202 41.0645 40.2202 39.2876V13.5397C40.2202 12.4338 39.0621 11.7102 38.0683 12.1953Z" fill="url(#paint1_linear_268_6503)"/>
<path id="Vector_3" d="M20.2338 15.8067C20.2338 7.25352 17.3333 0.319824 13.7555 0.319824C10.1778 0.319824 7.27762 7.25352 7.27762 15.8067C7.27762 24.3602 10.1778 31.2939 13.7555 31.2939C17.3333 31.2939 20.2338 24.3602 20.2338 15.8067Z" fill="url(#paint2_linear_268_6503)"/>
<path id="Vector_4" d="M20.2337 15.8067C20.2337 7.25352 17.3332 0.319824 13.7555 0.319824V31.2939C17.3332 31.2939 20.2337 24.3602 20.2337 15.8067Z" fill="url(#paint3_linear_268_6503)"/>
<path id="Vector_5" d="M15.6146 6.70752H11.8966C11.3562 6.70752 10.9181 7.14555 10.9181 7.68596C10.9181 8.22637 11.3562 8.6644 11.8966 8.6644H15.6146C16.155 8.6644 16.5931 8.22637 16.5931 7.68596C16.5931 7.14555 16.155 6.70752 15.6146 6.70752Z" fill="url(#paint4_linear_268_6503)"/>
<path id="Vector_6" d="M15.6146 12.1216H11.8966C11.3562 12.1216 10.9181 12.5596 10.9181 13.1C10.9181 13.6404 11.3562 14.0785 11.8966 14.0785H15.6146C16.155 14.0785 16.5931 13.6404 16.5931 13.1C16.5931 12.5596 16.155 12.1216 15.6146 12.1216Z" fill="url(#paint5_linear_268_6503)"/>
<path id="Vector_7" d="M15.6146 17.5356H11.8966C11.3562 17.5356 10.9181 17.9737 10.9181 18.5141C10.9181 19.0545 11.3562 19.4925 11.8966 19.4925H15.6146C16.155 19.4925 16.5931 19.0545 16.5931 18.5141C16.5931 17.9737 16.155 17.5356 15.6146 17.5356Z" fill="url(#paint6_linear_268_6503)"/>
<path id="Vector_8" d="M15.6146 22.9492H11.8966C11.3562 22.9492 10.9181 23.3873 10.9181 23.9277C10.9181 24.4681 11.3562 24.9061 11.8966 24.9061H15.6146C16.155 24.9061 16.5931 24.4681 16.5931 23.9277C16.5931 23.3873 16.155 22.9492 15.6146 22.9492Z" fill="url(#paint7_linear_268_6503)"/>
<path id="Vector_9" d="M32.3341 7.7163C32.3216 7.75182 32.3087 7.78734 32.2965 7.82285C31.9445 8.76508 31.1315 9.46287 31.1231 9.7087C31.1144 9.96393 31.05 10.1241 31.05 10.1241C28.6108 19.7685 17.7334 30.1163 17.7334 30.1163C17.3079 30.6226 16.5429 30.6693 16.1265 30.1219C16.1014 30.0895 16.0892 30.0739 16.0645 30.0415C15.764 29.6518 15.2595 29.5449 14.8211 29.7563C14.7852 29.7734 14.7671 29.7824 14.7309 29.7998C13.8691 30.2103 12.9648 29.257 13.2848 28.4015C13.2967 28.3628 13.3029 28.343 13.3151 28.304C13.4635 27.8335 13.2932 27.3238 12.9025 27.056C12.8708 27.0337 12.8545 27.0229 12.8221 27.0006C12.1368 26.5281 12.2214 25.5257 12.8879 25.0943C13.2559 24.7704 13.4384 24.6047 13.8002 24.2669C13.8472 24.2022 13.9015 24.1423 13.9628 24.0873C13.9732 24.0242 13.9788 23.9598 13.9781 23.894C13.9785 23.8533 13.9781 23.8334 13.9778 23.7927C13.9739 23.3609 14.1808 23.0155 14.4764 22.8111C18.878 18.2779 22.1611 12.9208 24.4129 7.07805C24.4133 7.07701 24.4133 7.07666 24.4133 7.07597C24.4401 7.00876 24.4655 6.94121 24.4906 6.87401C24.5971 6.65987 24.7733 6.47393 25.0223 6.35345L25.1156 6.30853C25.5683 6.08986 25.827 5.60343 25.7553 5.1055L25.7406 5.00313C25.5972 4.01076 26.7013 3.32133 27.53 3.88472L27.616 3.94287C28.0318 4.22526 28.5826 4.20576 28.9775 3.89516L29.059 3.83144C29.8466 3.2113 30.996 3.82204 30.9225 4.82207L30.9152 4.92514C30.8783 5.42654 31.1705 5.89418 31.637 6.08081L31.7335 6.11911C32.2969 6.3444 32.5361 6.91057 32.4362 7.41859C32.4027 7.51818 32.3686 7.61742 32.3341 7.7163Z" fill="url(#paint8_linear_268_6503)"/>
<path id="Vector_10" d="M16.1266 30.1219C16.1015 30.0896 16.0893 30.0739 16.0646 30.0415C15.7641 29.6519 15.2596 29.545 14.8212 29.7563C14.7853 29.7734 14.7672 29.7824 14.731 29.7999C14.731 29.7999 22.1285 24.9568 27.8519 10.6872C29.0183 7.77902 30.0302 5.77618 30.8969 4.47217C30.922 4.58185 30.9314 4.69885 30.9226 4.82211L30.915 4.92518C30.8784 5.42658 31.1702 5.89422 31.6372 6.08085L31.7333 6.11915C32.2966 6.34444 32.5359 6.91061 32.4359 7.41863C32.4028 7.51857 32.3687 7.6178 32.3342 7.71634C32.3221 7.75186 32.3092 7.78738 32.2966 7.82289C31.9446 8.76512 31.1316 9.46291 31.1232 9.70874C31.1145 9.96397 31.0501 10.1241 31.0501 10.1241C28.611 19.7689 17.7339 30.1164 17.7339 30.1164C17.308 30.6227 16.543 30.6693 16.1266 30.1219Z" fill="url(#paint9_linear_268_6503)"/>
<path id="Vector_11" d="M13.9628 24.087C13.9733 24.024 13.9788 23.9596 13.9782 23.8938C13.9782 23.853 13.9782 23.8332 13.9778 23.7924C13.9736 23.3607 14.1808 23.0153 14.4764 22.8109C18.8777 18.2777 22.1612 12.9206 24.413 7.07781C24.4133 7.07677 24.4133 7.07642 24.4133 7.07572C24.4398 7.00852 24.4656 6.94097 24.4906 6.87377C24.5968 6.65962 24.7734 6.47369 25.0223 6.35321L25.1157 6.30829C25.568 6.08962 25.8267 5.60319 25.7553 5.10526L25.7403 5.00289C25.6543 4.40677 26.0185 3.92069 26.5025 3.74902C26.232 4.82531 25.4304 6.28287 24.8503 7.70492C19.9627 19.6844 12.8879 25.094 12.8879 25.094C13.256 24.7702 13.4384 24.6044 13.8002 24.2667C13.8472 24.2019 13.9015 24.142 13.9628 24.087Z" fill="url(#paint10_linear_268_6503)"/>
<path id="Vector_12" d="M13.2848 28.4016C13.2848 28.4016 20.9149 23.1371 25.914 9.65695C26.7985 7.27248 27.5276 5.47646 28.1289 4.13415C28.4252 4.16897 28.7313 4.08854 28.9771 3.89529L29.059 3.83122C29.7494 3.28768 30.7181 3.69055 30.8964 4.47225C30.0297 5.77626 29.0179 7.77911 27.8518 10.6869C22.1284 24.9565 14.7309 29.7996 14.7309 29.7996C13.8691 30.2105 12.9648 29.2571 13.2848 28.4016Z" fill="url(#paint11_linear_268_6503)"/>
<path id="Vector_13" d="M13.3152 28.3037C13.4632 27.8333 13.2932 27.3235 12.9026 27.0558C12.8709 27.0335 12.8545 27.0227 12.8221 27.0004C12.1365 26.5279 12.2211 25.5254 12.8879 25.094C12.8879 25.094 19.9623 19.6844 24.8503 7.70494C25.4301 6.28324 26.2313 4.82602 26.5022 3.74974C26.8239 3.63518 27.1986 3.65921 27.5301 3.88449L27.6157 3.94264C27.7728 4.04919 27.9493 4.11256 28.129 4.1338C27.5276 5.47611 26.7985 7.27213 25.9144 9.6566C20.915 23.1364 13.2849 28.4012 13.2849 28.4012C13.2967 28.3626 13.303 28.3427 13.3152 28.3037Z" fill="url(#paint12_linear_268_6503)"/>
<path id="Vector_14" d="M29.2993 10.6974C30.128 11.2608 31.2321 10.5713 31.0887 9.57897L31.074 9.47591C31.0023 8.97868 31.261 8.49224 31.7137 8.27323L31.807 8.22796C32.0521 8.10957 32.2276 7.92677 32.3342 7.71611C32.3826 7.6214 32.4163 7.52111 32.4358 7.4184C32.5358 6.91037 32.2966 6.3442 31.7332 6.11857L31.6371 6.08026C31.1701 5.89363 30.8783 5.42635 30.9149 4.92459L30.9226 4.82152C30.996 3.82184 29.8466 3.21075 29.059 3.83089L28.9775 3.89496C28.5823 4.20556 28.0315 4.22471 27.6157 3.94267L27.5301 3.88417C26.701 3.32078 25.5972 4.01057 25.7403 5.00293L25.7549 5.10531C25.8267 5.60288 25.568 6.08967 25.1156 6.30834L25.022 6.35325C24.7734 6.47373 24.5968 6.65967 24.4906 6.87381C24.4586 6.93858 24.4325 7.00648 24.4133 7.07577C24.4133 7.07612 24.4133 7.07681 24.4126 7.07786C24.2674 7.60642 24.5004 8.22448 25.0958 8.46265L25.1922 8.5013C25.6588 8.68793 25.951 9.15522 25.9141 9.65627L25.9067 9.76004C25.8329 10.7601 26.9827 11.3708 27.7703 10.7507L27.8518 10.6866C28.2466 10.3757 28.7975 10.3565 29.2133 10.6392L29.2993 10.6974Z" fill="url(#paint13_radial_268_6503)"/>
<path id="Vector_15" d="M28.739 8.3279C29.051 8.53995 29.4664 8.2802 29.4124 7.90693L29.4068 7.86827C29.38 7.68094 29.4772 7.49779 29.6478 7.41527L29.6826 7.39821C29.7749 7.35398 29.841 7.28504 29.8811 7.20565C29.8992 7.17013 29.9121 7.13218 29.9194 7.09353C29.957 6.90237 29.8668 6.68927 29.6548 6.60431L29.6185 6.59003C29.443 6.5197 29.333 6.34386 29.3469 6.15513L29.3497 6.11648C29.3772 5.74008 28.9448 5.50992 28.6481 5.74356L28.6175 5.76759C28.4688 5.88458 28.2616 5.89155 28.1049 5.78534L28.0729 5.76341C27.7609 5.55135 27.3451 5.81111 27.3991 6.18438L27.4047 6.22303C27.4318 6.41036 27.3344 6.59352 27.1641 6.67604L27.1289 6.69275C27.0352 6.73837 26.9687 6.80836 26.9287 6.88879C26.9165 6.91316 26.9068 6.93858 26.8995 6.9647V6.96574C26.8448 7.16456 26.9322 7.39716 27.1564 7.48665L27.1926 7.50127C27.3685 7.57161 27.4785 7.74745 27.4646 7.93617L27.4618 7.97517C27.4339 8.35158 27.8667 8.58139 28.1631 8.34809L28.1937 8.32407C28.3427 8.20672 28.5499 8.19941 28.7063 8.30596L28.739 8.3279Z" fill="url(#paint14_linear_268_6503)"/>
<path id="Vector_16" d="M18.0075 29.8495C18.8794 28.9898 21.7005 26.1272 24.5418 22.3656H24.5422C25.7354 20.7859 26.9319 19.0466 27.9897 17.2314C21.0351 22.3604 15.6491 23.9667 13.6331 24.4228C13.5248 24.5231 13.4308 24.6094 13.3354 24.6961C13.601 24.8285 13.7988 25.0736 13.8639 25.3898C13.865 25.3946 13.866 25.3995 13.8664 25.4044C13.8705 25.4239 13.8733 25.4385 13.8765 25.4556H13.8772C13.8792 25.4657 13.8813 25.4761 13.8841 25.4893C13.8862 25.5015 13.8886 25.513 13.8918 25.5249C13.8942 25.5343 13.896 25.5437 13.8987 25.5534C13.8998 25.5576 13.9008 25.5618 13.9026 25.566C13.905 25.5771 13.9081 25.5882 13.912 25.5987C13.9169 25.6137 13.9214 25.6286 13.9269 25.6433C13.9283 25.6481 13.9301 25.6527 13.9315 25.6572H13.9322C13.9391 25.6749 13.9458 25.692 13.9534 25.7091C13.9579 25.7199 13.9632 25.731 13.9687 25.7421C13.9712 25.7481 13.9743 25.7533 13.9771 25.7585C13.9778 25.7602 13.9781 25.7616 13.9792 25.7634C13.9799 25.7637 13.9799 25.7648 13.9802 25.7655C13.9872 25.7794 13.9945 25.7926 14.0025 25.8052C14.0105 25.8187 14.0189 25.8323 14.0272 25.8452C14.0342 25.8563 14.0419 25.8675 14.0495 25.8783C14.069 25.9058 14.0899 25.9316 14.1122 25.957C14.1219 25.9681 14.1327 25.9796 14.1432 25.9904C14.154 26.0012 14.1648 26.012 14.1759 26.0224C14.1871 26.0325 14.1982 26.0433 14.21 26.0527L18.0075 29.8495Z" fill="url(#paint15_linear_268_6503)"/>
<path id="Vector_17" d="M38.2772 12.464C38.2507 12.4908 38.2235 12.5169 38.1967 12.5433C37.4672 13.2356 36.4303 13.5061 36.315 13.7234C36.1953 13.9487 36.0668 14.0646 36.0668 14.0646C29.6446 21.6616 15.3305 26.1893 15.3305 26.1893C14.726 26.4574 14.0181 26.1642 13.8837 25.4894C13.8757 25.4494 13.8718 25.4299 13.8635 25.3898C13.7646 24.9079 13.3579 24.5907 12.8711 24.5883C12.8314 24.5879 12.8112 24.5883 12.7708 24.5876C11.8164 24.5789 11.4223 23.325 12.0849 22.6968C12.1124 22.6672 12.1267 22.6523 12.1549 22.6227C12.4944 22.2647 12.565 21.732 12.3318 21.3201C12.3126 21.2859 12.3029 21.2692 12.2834 21.2351C11.8749 20.5095 12.3906 19.6459 13.1786 19.5505C13.6518 19.421 13.8882 19.3524 14.3618 19.2072C14.4321 19.1696 14.5073 19.1393 14.5863 19.117C14.6236 19.0651 14.657 19.0094 14.6852 18.9499C14.7033 18.9137 14.7117 18.8955 14.7291 18.8586C14.915 18.469 15.2528 18.2493 15.608 18.1953C21.5517 16.0525 26.8524 12.6788 31.4385 8.41578C31.4396 8.41509 31.4399 8.41439 31.4399 8.41404C31.4935 8.3653 31.5461 8.31585 31.598 8.26641C31.7878 8.12086 32.0277 8.03102 32.3041 8.03207L32.4076 8.03242C32.9104 8.03451 33.3564 7.71033 33.5103 7.23156L33.542 7.13337C33.8484 6.1786 35.143 6.04315 35.6406 6.9133L35.6925 7.00314C35.9421 7.43908 36.4456 7.66367 36.9369 7.55747L37.0383 7.53588C38.0181 7.32418 38.7831 8.37713 38.2782 9.24345L38.2263 9.33294C37.9732 9.7675 38.0306 10.3156 38.3684 10.6881L38.438 10.7647C38.8454 11.2146 38.812 11.8281 38.4993 12.2411C38.4258 12.3163 38.3517 12.3905 38.2772 12.464Z" fill="url(#paint16_linear_268_6503)"/>
<path id="Vector_18" d="M13.8841 25.4895C13.8758 25.4494 13.8719 25.4299 13.8636 25.3899C13.7647 24.908 13.358 24.5908 12.8712 24.5883C12.8315 24.588 12.8113 24.5883 12.7713 24.5876C12.7713 24.5876 21.5431 23.4804 32.9463 13.1677C35.2702 11.066 37.0578 9.70977 38.4089 8.91797C38.3831 9.02765 38.3406 9.13733 38.2783 9.24388L38.2264 9.33302C37.9733 9.76792 38.0307 10.316 38.3685 10.6886L38.4381 10.7648C38.8455 11.2147 38.8121 11.8286 38.4997 12.2412C38.4259 12.316 38.3518 12.3906 38.2776 12.464C38.2508 12.4905 38.2236 12.5166 38.1968 12.5431C37.4673 13.2356 36.4307 13.5058 36.3151 13.7231C36.1957 13.9488 36.0672 14.0644 36.0672 14.0644C29.6447 21.6617 15.3305 26.1894 15.3305 26.1894C14.7261 26.4578 14.0182 26.1643 13.8841 25.4895Z" fill="url(#paint17_linear_268_6503)"/>
<path id="Vector_19" d="M14.5863 19.1176C14.6236 19.0653 14.657 19.01 14.6852 18.9504C14.7033 18.9139 14.7117 18.8958 14.7291 18.8592C14.915 18.4696 15.2528 18.2499 15.608 18.1959C21.5517 16.0531 26.8524 12.679 31.4385 8.41635C31.4396 8.41565 31.4399 8.41495 31.4399 8.41461C31.4935 8.36551 31.5461 8.31641 31.598 8.26697C31.7878 8.12142 32.0277 8.03159 32.3041 8.03228L32.4076 8.03298C32.9104 8.03472 33.3564 7.71089 33.5103 7.23212L33.542 7.13393C33.7258 6.56044 34.2666 6.28293 34.7767 6.34108C34.0612 7.18964 32.7018 8.14788 31.5566 9.17159C21.9093 17.7927 13.1789 19.5511 13.1789 19.5511C13.6518 19.4212 13.8882 19.3526 14.3618 19.2077C14.4321 19.1698 14.5073 19.1398 14.5863 19.1176Z" fill="url(#paint18_linear_268_6503)"/>
<path id="Vector_20" d="M12.0849 22.6971C12.0849 22.6971 21.2512 21.3127 31.6568 11.3918C33.4974 9.63688 34.9403 8.34262 36.0696 7.40039C36.321 7.56161 36.6312 7.62359 36.9369 7.55778L37.0382 7.53619C37.8973 7.3506 38.5912 8.13753 38.4084 8.91819C37.0577 9.71 35.2697 11.0659 32.9459 13.1676C21.543 23.4802 12.7712 24.5875 12.7712 24.5875C11.8164 24.5788 11.4222 23.3253 12.0849 22.6971Z" fill="url(#paint19_linear_268_6503)"/>
<path id="Vector_21" d="M12.155 22.6229C12.4945 22.265 12.5652 21.7322 12.3319 21.3203C12.3127 21.2865 12.303 21.2695 12.2835 21.2353C11.8751 20.51 12.3907 19.6462 13.1791 19.5507C13.1791 19.5507 21.9098 17.7927 31.5567 9.17127C32.7019 8.14826 34.0609 7.19001 34.7765 6.3418C35.116 6.37975 35.4423 6.56604 35.6411 6.91354L35.6926 7.00372C35.787 7.16807 35.9175 7.30283 36.0701 7.40032C34.9408 8.3429 33.4976 9.63716 31.657 11.3921C21.2514 21.313 12.085 22.6974 12.085 22.6974C12.1129 22.6675 12.1268 22.6525 12.155 22.6229Z" fill="url(#paint20_linear_268_6503)"/>
<path id="Vector_22" d="M34.2423 13.812C34.7399 14.6821 36.0345 14.5467 36.3413 13.5919L36.373 13.4934C36.5269 13.0149 36.9729 12.6911 37.4754 12.6929H37.5791C37.8514 12.6943 38.0892 12.6072 38.2776 12.4641C38.3626 12.4007 38.4367 12.3252 38.4998 12.2416C38.8121 11.8286 38.8455 11.2151 38.4381 10.7652L38.3685 10.6886C38.0307 10.316 37.9733 9.76798 38.2264 9.33343L38.2783 9.24394C38.7832 8.37762 38.0182 7.32467 37.0384 7.53637L36.937 7.55831C36.4457 7.66416 35.9422 7.43957 35.6926 7.00363L35.641 6.91379C35.1431 6.04364 33.8485 6.17909 33.5421 7.13385L33.5104 7.23205C33.3565 7.71082 32.9105 8.03499 32.408 8.0329L32.3042 8.03256C32.0278 8.03151 31.7879 8.12135 31.5981 8.26689C31.541 8.31112 31.4877 8.36091 31.4404 8.41453C31.44 8.41488 31.4397 8.41558 31.439 8.41627C31.0761 8.8275 31.0145 9.48525 31.4452 9.96019L31.5149 10.0375C31.8523 10.4097 31.9097 10.9578 31.6569 11.392L31.6047 11.4818C31.1002 12.3481 31.8652 13.4014 32.8447 13.1897L32.9463 13.1678C33.4376 13.0616 33.9411 13.2858 34.1908 13.7221L34.2423 13.812Z" fill="url(#paint21_radial_268_6503)"/>
<path id="Vector_23" d="M34.7782 11.4363C34.9655 11.7636 35.453 11.7127 35.5683 11.3534L35.5805 11.3161C35.6383 11.1361 35.8061 11.0142 35.9952 11.0149H36.0342C36.1365 11.0156 36.226 10.9825 36.2971 10.9289C36.3291 10.9049 36.3569 10.8767 36.3806 10.845C36.4983 10.6897 36.5108 10.4589 36.3573 10.2893L36.3312 10.2607C36.2041 10.1204 36.1825 9.91392 36.2779 9.75062L36.2974 9.71684C36.4872 9.39058 36.1992 8.99433 35.8305 9.07406L35.7925 9.08207C35.6076 9.12212 35.4182 9.0375 35.3242 8.8735L35.3047 8.83973C35.1174 8.51207 34.6299 8.56326 34.5146 8.9226L34.5028 8.95951C34.445 9.13987 34.2771 9.26174 34.0877 9.26105L34.0487 9.2607C33.9446 9.26035 33.8544 9.29413 33.7831 9.34914C33.7615 9.36551 33.7413 9.38431 33.7235 9.40451C33.7235 9.40485 33.7232 9.40485 33.7228 9.4052C33.5867 9.5598 33.5633 9.80772 33.7252 9.98635L33.7514 10.0152C33.8785 10.1556 33.9 10.3617 33.805 10.5254L33.7855 10.5591C33.5954 10.8851 33.8833 11.2817 34.2521 11.2019L34.2904 11.1939C34.4753 11.1539 34.6647 11.2381 34.7587 11.4025L34.7782 11.4363Z" fill="url(#paint22_linear_268_6503)"/>
<path id="Vector_24" d="M38.0683 15.6494L38.0286 15.6689C36.6818 16.3259 35.1051 16.3186 33.7646 15.6483C32.4066 14.9857 30.8198 14.9857 29.4629 15.6483L29.4618 15.6494C28.1039 16.312 26.5171 16.312 25.1591 15.6494L25.1581 15.6483C23.8012 14.9857 22.2144 14.9857 20.8564 15.6483L20.8554 15.6494C19.4985 16.312 17.9103 16.312 16.5534 15.6494H16.5523C15.8741 15.3175 15.138 15.1515 14.4015 15.1515C13.6578 15.1515 12.9137 15.321 12.2281 15.6598C10.8819 16.3256 9.29796 16.3082 7.94799 15.6494C6.95422 15.1643 5.79611 15.8879 5.79611 16.9934V42.7414C5.79611 44.5186 7.23696 45.9591 9.01382 45.9591H37.0028C38.7797 45.9591 40.2202 44.5186 40.2202 42.7414V16.9934C40.2202 15.8879 39.0621 15.1643 38.0683 15.6494Z" fill="url(#paint23_linear_268_6503)"/>
<path id="Vector_25" d="M5.79611 34.124V42.7413C5.79611 44.5185 7.23696 45.959 9.01382 45.959H37.0028C38.7797 45.959 40.2202 44.5185 40.2202 42.7413V34.124H5.79611Z" fill="url(#paint24_linear_268_6503)"/>
<path id="Vector_26" d="M38.0684 15.6494L38.0287 15.6689C36.6818 16.3259 35.1052 16.3186 33.7646 15.6483C32.4066 14.9857 30.8199 14.9857 29.463 15.6483L29.4619 15.6494C28.1039 16.312 26.5172 16.312 25.1592 15.6494L25.1582 15.6483C23.8012 14.9857 22.2145 14.9857 20.8565 15.6483L20.8555 15.6494C19.4985 16.312 17.9104 16.312 16.5535 15.6494H16.5524C15.8741 15.3175 15.138 15.1515 14.4016 15.1515C13.6578 15.1515 12.9137 15.321 12.2281 15.6598C10.882 16.3256 9.29802 16.3082 7.94805 15.6494C7.77708 15.5658 7.60124 15.5192 7.42749 15.5028L37.787 45.8623C39.1847 45.5124 40.2202 44.2481 40.2202 42.7414V16.9934C40.2202 15.8879 39.0621 15.1643 38.0684 15.6494Z" fill="url(#paint25_linear_268_6503)"/>
<path id="Vector_27" d="M15.1754 18.814C15.1754 19.4659 14.6468 19.9948 13.9946 19.9948C13.3424 19.9948 12.8139 19.4659 12.8139 18.814C12.8139 18.1619 13.3424 17.6333 13.9946 17.6333C14.6468 17.6333 15.1754 18.1619 15.1754 18.814Z" fill="url(#paint26_linear_268_6503)"/>
<path id="Vector_28" d="M32.1266 18.814C32.1266 19.4659 31.5981 19.9948 30.9459 19.9948C30.2937 19.9948 29.7651 19.4659 29.7651 18.814C29.7651 18.1619 30.2937 17.6333 30.9459 17.6333C31.5981 17.6333 32.1266 18.1619 32.1266 18.814Z" fill="url(#paint27_linear_268_6503)"/>
<path id="Vector_29" d="M40.2203 42.6409V26.9789L32.1232 18.8818C32.0881 19.5023 31.5752 19.995 30.946 19.995C30.6597 19.995 30.3975 19.893 30.1932 19.7234V24.803C30.1932 27.2891 29.011 29.503 27.1809 30.9163L15.1614 18.9866C15.0778 19.5566 14.5879 19.995 13.9946 19.995C13.6488 19.995 13.3389 19.8453 13.123 19.6085V24.803C13.123 27.4949 14.2682 29.9229 16.0952 31.6301L30.4244 45.9592H36.9023C38.7348 45.9592 40.2203 44.4735 40.2203 42.6409Z" fill="url(#paint28_linear_268_6503)"/>
<path id="Vector_30" d="M22.4704 34.1501C17.3164 34.1501 13.123 29.9567 13.123 24.8026V18.8188C13.123 18.3704 13.4865 18.0068 13.9354 18.0068C14.3842 18.0068 14.7477 18.3704 14.7477 18.8188V24.8026C14.7477 29.0608 18.212 32.5254 22.4704 32.5254C26.7289 32.5254 30.1932 29.0608 30.1932 24.8026V18.8188C30.1932 18.3704 30.5567 18.0068 31.0055 18.0068C31.4543 18.0068 31.8179 18.3704 31.8179 18.8188V24.8026C31.8175 29.9567 27.6245 34.1501 22.4704 34.1501Z" fill="url(#paint29_linear_268_6503)"/>
</g>
<defs>
<linearGradient id="paint0_linear_268_6503" x1="23.0083" y1="13.1891" x2="23.0083" y2="25.6024" gradientUnits="userSpaceOnUse">
<stop stop-color="#FF6E3A"/>
<stop offset="0.1596" stop-color="#FF6440"/>
<stop offset="0.4266" stop-color="#FF4B52"/>
<stop offset="0.7662" stop-color="#FF216E"/>
<stop offset="1" stop-color="#FF0084"/>
</linearGradient>
<linearGradient id="paint1_linear_268_6503" x1="23.0083" y1="7.94447" x2="23.0083" y2="15.9841" gradientUnits="userSpaceOnUse">
<stop stop-color="#E58200" stop-opacity="0"/>
<stop offset="0.2413" stop-color="#DA760F" stop-opacity="0.243137"/>
<stop offset="0.7044" stop-color="#BC5737" stop-opacity="0.705882"/>
<stop offset="1" stop-color="#A64153"/>
</linearGradient>
<linearGradient id="paint2_linear_268_6503" x1="7.45982" y1="13.5313" x2="17.4631" y2="17.1469" gradientUnits="userSpaceOnUse">
<stop stop-color="#FFD459"/>
<stop offset="0.1792" stop-color="#FFD152"/>
<stop offset="0.4408" stop-color="#FFCA3E"/>
<stop offset="0.7513" stop-color="#FFBF1F"/>
<stop offset="1" stop-color="#FFB400"/>
</linearGradient>
<linearGradient id="paint3_linear_268_6503" x1="15.0813" y1="15.8069" x2="20.8742" y2="15.8069" gradientUnits="userSpaceOnUse">
<stop stop-color="#E58200" stop-opacity="0"/>
<stop offset="0.1923" stop-color="#DE7B09" stop-opacity="0.192157"/>
<stop offset="0.5014" stop-color="#CD6920" stop-opacity="0.501961"/>
<stop offset="0.8866" stop-color="#B04B46" stop-opacity="0.886275"/>
<stop offset="1" stop-color="#A64153"/>
</linearGradient>
<linearGradient id="paint4_linear_268_6503" x1="13.7557" y1="8.63104" x2="13.7557" y2="4.74433" gradientUnits="userSpaceOnUse">
<stop stop-color="#E58200" stop-opacity="0"/>
<stop offset="0.0396" stop-color="#E27F04" stop-opacity="0.039216"/>
<stop offset="0.4671" stop-color="#C15D2F" stop-opacity="0.466667"/>
<stop offset="0.8016" stop-color="#AD4949" stop-opacity="0.8"/>
<stop offset="1" stop-color="#A64153"/>
</linearGradient>
<linearGradient id="paint5_linear_268_6503" x1="13.7557" y1="13.9343" x2="13.7557" y2="11.1918" gradientUnits="userSpaceOnUse">
<stop stop-color="#E58200" stop-opacity="0"/>
<stop offset="0.0396" stop-color="#E27F04" stop-opacity="0.039216"/>
<stop offset="0.4671" stop-color="#C15D2F" stop-opacity="0.466667"/>
<stop offset="0.8016" stop-color="#AD4949" stop-opacity="0.8"/>
<stop offset="1" stop-color="#A64153"/>
</linearGradient>
<linearGradient id="paint6_linear_268_6503" x1="13.7557" y1="19.2371" x2="13.7557" y2="15.9024" gradientUnits="userSpaceOnUse">
<stop stop-color="#E58200" stop-opacity="0"/>
<stop offset="0.0396" stop-color="#E27F04" stop-opacity="0.039216"/>
<stop offset="0.4671" stop-color="#C15D2F" stop-opacity="0.466667"/>
<stop offset="0.8016" stop-color="#AD4949" stop-opacity="0.8"/>
<stop offset="1" stop-color="#A64153"/>
</linearGradient>
<linearGradient id="paint7_linear_268_6503" x1="13.7557" y1="25.1425" x2="13.7557" y2="20.6385" gradientUnits="userSpaceOnUse">
<stop stop-color="#E58200" stop-opacity="0"/>
<stop offset="0.0396" stop-color="#E27F04" stop-opacity="0.039216"/>
<stop offset="0.4671" stop-color="#C15D2F" stop-opacity="0.466667"/>
<stop offset="0.8016" stop-color="#AD4949" stop-opacity="0.8"/>
<stop offset="1" stop-color="#A64153"/>
</linearGradient>
<linearGradient id="paint8_linear_268_6503" x1="21.4155" y1="16.3167" x2="26.0919" y2="19.381" gradientUnits="userSpaceOnUse">
<stop stop-color="#FFD459"/>
<stop offset="0.2296" stop-color="#FFD355"/>
<stop offset="0.4362" stop-color="#FFCF4A"/>
<stop offset="0.634" stop-color="#FFC838"/>
<stop offset="0.825" stop-color="#FFBF1F"/>
<stop offset="1" stop-color="#FFB400"/>
</linearGradient>
<linearGradient id="paint9_linear_268_6503" x1="25.8482" y1="19.1085" x2="21.6405" y2="16.374" gradientUnits="userSpaceOnUse">
<stop stop-color="#E58200" stop-opacity="0"/>
<stop offset="0.0396" stop-color="#E27F04" stop-opacity="0.039216"/>
<stop offset="0.4671" stop-color="#C15D2F" stop-opacity="0.466667"/>
<stop offset="0.8016" stop-color="#AD4949" stop-opacity="0.8"/>
<stop offset="1" stop-color="#A64153"/>
</linearGradient>
<linearGradient id="paint10_linear_268_6503" x1="19.3381" y1="14.2113" x2="22.8359" y2="16.2811" gradientUnits="userSpaceOnUse">
<stop stop-color="#E58200" stop-opacity="0"/>
<stop offset="0.0396" stop-color="#E27F04" stop-opacity="0.039216"/>
<stop offset="0.4671" stop-color="#C15D2F" stop-opacity="0.466667"/>
<stop offset="0.8016" stop-color="#AD4949" stop-opacity="0.8"/>
<stop offset="1" stop-color="#A64153"/>
</linearGradient>
<linearGradient id="paint11_linear_268_6503" x1="24.3091" y1="18.2477" x2="19.9459" y2="15.3207" gradientUnits="userSpaceOnUse">
<stop stop-color="#E58200" stop-opacity="0"/>
<stop offset="0.0396" stop-color="#E27F04" stop-opacity="0.039216"/>
<stop offset="0.4671" stop-color="#C15D2F" stop-opacity="0.466667"/>
<stop offset="0.8016" stop-color="#AD4949" stop-opacity="0.8"/>
<stop offset="1" stop-color="#A64153"/>
</linearGradient>
<linearGradient id="paint12_linear_268_6503" x1="19.373" y1="15.3108" x2="26.7274" y2="20.5885" gradientUnits="userSpaceOnUse">
<stop stop-color="#E58200" stop-opacity="0"/>
<stop offset="0.0396" stop-color="#E27F04" stop-opacity="0.039216"/>
<stop offset="0.4671" stop-color="#C15D2F" stop-opacity="0.466667"/>
<stop offset="0.8016" stop-color="#AD4949" stop-opacity="0.8"/>
<stop offset="1" stop-color="#A64153"/>
</linearGradient>
<radialGradient id="paint13_radial_268_6503" cx="0" cy="0" r="1" gradientUnits="userSpaceOnUse" gradientTransform="translate(28.4144 7.29097) scale(3.88028)">
<stop stop-color="#FFD459"/>
<stop offset="0.2296" stop-color="#FFD355"/>
<stop offset="0.4362" stop-color="#FFCF4A"/>
<stop offset="0.634" stop-color="#FFC838"/>
<stop offset="0.825" stop-color="#FFBF1F"/>
<stop offset="1" stop-color="#FFB400"/>
</radialGradient>
<linearGradient id="paint14_linear_268_6503" x1="24.414" y1="7.18854" x2="31.6111" y2="6.93649" gradientUnits="userSpaceOnUse">
<stop stop-color="#BE3F45" stop-opacity="0"/>
<stop offset="1" stop-color="#BE3F45"/>
</linearGradient>
<linearGradient id="paint15_linear_268_6503" x1="23.0996" y1="26.8903" x2="20.7716" y2="21.2292" gradientUnits="userSpaceOnUse">
<stop stop-color="#BE3F45" stop-opacity="0"/>
<stop offset="1" stop-color="#BE3F45"/>
</linearGradient>
<linearGradient id="paint16_linear_268_6503" x1="24.6834" y1="15.3915" x2="27.5411" y2="20.1967" gradientUnits="userSpaceOnUse">
<stop stop-color="#FFD459"/>
<stop offset="0.2296" stop-color="#FFD355"/>
<stop offset="0.4362" stop-color="#FFCF4A"/>
<stop offset="0.634" stop-color="#FFC838"/>
<stop offset="0.825" stop-color="#FFBF1F"/>
<stop offset="1" stop-color="#FFB400"/>
</linearGradient>
<linearGradient id="paint17_linear_268_6503" x1="27.4418" y1="19.845" x2="24.8605" y2="15.5418" gradientUnits="userSpaceOnUse">
<stop stop-color="#E58200" stop-opacity="0"/>
<stop offset="0.0396" stop-color="#E27F04" stop-opacity="0.039216"/>
<stop offset="0.4671" stop-color="#C15D2F" stop-opacity="0.466667"/>
<stop offset="0.8016" stop-color="#AD4949" stop-opacity="0.8"/>
<stop offset="1" stop-color="#A64153"/>
</linearGradient>
<linearGradient id="paint18_linear_268_6503" x1="23.7401" y1="12.5887" x2="25.9753" y2="15.9832" gradientUnits="userSpaceOnUse">
<stop stop-color="#E58200" stop-opacity="0"/>
<stop offset="0.0396" stop-color="#E27F04" stop-opacity="0.039216"/>
<stop offset="0.4671" stop-color="#C15D2F" stop-opacity="0.466667"/>
<stop offset="0.8016" stop-color="#AD4949" stop-opacity="0.8"/>
<stop offset="1" stop-color="#A64153"/>
</linearGradient>
<linearGradient id="paint19_linear_268_6503" x1="26.4364" y1="18.3961" x2="23.7999" y2="13.8517" gradientUnits="userSpaceOnUse">
<stop stop-color="#E58200" stop-opacity="0"/>
<stop offset="0.0396" stop-color="#E27F04" stop-opacity="0.039216"/>
<stop offset="0.4671" stop-color="#C15D2F" stop-opacity="0.466667"/>
<stop offset="0.8016" stop-color="#AD4949" stop-opacity="0.8"/>
<stop offset="1" stop-color="#A64153"/>
</linearGradient>
<linearGradient id="paint20_linear_268_6503" x1="23.2894" y1="13.5921" x2="27.5825" y2="21.561" gradientUnits="userSpaceOnUse">
<stop stop-color="#E58200" stop-opacity="0"/>
<stop offset="0.0396" stop-color="#E27F04" stop-opacity="0.039216"/>
<stop offset="0.4671" stop-color="#C15D2F" stop-opacity="0.466667"/>
<stop offset="0.8016" stop-color="#AD4949" stop-opacity="0.8"/>
<stop offset="1" stop-color="#A64153"/>
</linearGradient>
<radialGradient id="paint21_radial_268_6503" cx="0" cy="0" r="1" gradientUnits="userSpaceOnUse" gradientTransform="translate(34.9416 10.3629) scale(3.91536)">
<stop stop-color="#FFD459"/>
<stop offset="0.2296" stop-color="#FFD355"/>
<stop offset="0.4362" stop-color="#FFCF4A"/>
<stop offset="0.634" stop-color="#FFC838"/>
<stop offset="0.825" stop-color="#FFBF1F"/>
<stop offset="1" stop-color="#FFB400"/>
</radialGradient>
<linearGradient id="paint22_linear_268_6503" x1="31.3826" y1="8.50432" x2="37.9604" y2="11.4353" gradientUnits="userSpaceOnUse">
<stop stop-color="#BE3F45" stop-opacity="0"/>
<stop offset="1" stop-color="#BE3F45"/>
</linearGradient>
<linearGradient id="paint23_linear_268_6503" x1="23.5012" y1="30.5552" x2="48.3322" y2="30.5552" gradientUnits="userSpaceOnUse">
<stop stop-color="#FF6E3A"/>
<stop offset="0.1596" stop-color="#FF6440"/>
<stop offset="0.4266" stop-color="#FF4B52"/>
<stop offset="0.7662" stop-color="#FF216E"/>
<stop offset="1" stop-color="#FF0084"/>
</linearGradient>
<linearGradient id="paint24_linear_268_6503" x1="23.0083" y1="42.098" x2="23.0083" y2="45.5971" gradientUnits="userSpaceOnUse">
<stop stop-color="#E58200" stop-opacity="0"/>
<stop offset="0.2413" stop-color="#DA760F" stop-opacity="0.243137"/>
<stop offset="0.7044" stop-color="#BC5737" stop-opacity="0.705882"/>
<stop offset="1" stop-color="#A64153"/>
</linearGradient>
<linearGradient id="paint25_linear_268_6503" x1="27.8251" y1="27.6173" x2="19.9303" y2="4.93007" gradientUnits="userSpaceOnUse">
<stop stop-color="#E58200" stop-opacity="0"/>
<stop offset="0.2413" stop-color="#DA760F" stop-opacity="0.243137"/>
<stop offset="0.7044" stop-color="#BC5737" stop-opacity="0.705882"/>
<stop offset="1" stop-color="#A64153"/>
</linearGradient>
<linearGradient id="paint26_linear_268_6503" x1="14.0285" y1="18.814" x2="15.7319" y2="18.814" gradientUnits="userSpaceOnUse">
<stop stop-color="#3B395F"/>
<stop offset="0.8022" stop-color="#1B1F3A"/>
<stop offset="1" stop-color="#131830"/>
</linearGradient>
<linearGradient id="paint27_linear_268_6503" x1="30.9797" y1="18.814" x2="32.6831" y2="18.814" gradientUnits="userSpaceOnUse">
<stop stop-color="#3B395F"/>
<stop offset="0.8022" stop-color="#1B1F3A"/>
<stop offset="1" stop-color="#131830"/>
</linearGradient>
<linearGradient id="paint28_linear_268_6503" x1="38.8698" y1="40.0204" x2="7.93562" y2="9.08615" gradientUnits="userSpaceOnUse">
<stop stop-color="#E58200" stop-opacity="0"/>
<stop offset="0.2413" stop-color="#DA760F" stop-opacity="0.243137"/>
<stop offset="0.7044" stop-color="#BC5737" stop-opacity="0.705882"/>
<stop offset="1" stop-color="#A64153"/>
</linearGradient>
<linearGradient id="paint29_linear_268_6503" x1="22.4703" y1="18.0067" x2="22.4703" y2="34.1499" gradientUnits="userSpaceOnUse">
<stop stop-color="#8BE1E2"/>
<stop offset="0.1873" stop-color="#87E1E1"/>
<stop offset="0.3558" stop-color="#7CE2DD"/>
<stop offset="0.5172" stop-color="#6AE2D7"/>
<stop offset="0.6741" stop-color="#50E4CE"/>
<stop offset="0.8278" stop-color="#2FE5C2"/>
<stop offset="0.9772" stop-color="#07E7B4"/>
<stop offset="1" stop-color="#00E7B2"/>
</linearGradient>
<clipPath id="clip0_268_6503">
<rect width="45.6392" height="45.6392" fill="white" transform="translate(0.180389 0.319824)"/>
</clipPath>
</defs>
</svg>
