<svg width="46" height="46" viewBox="0 0 46 46" fill="none" xmlns="http://www.w3.org/2000/svg">
<g id="drugs 1" clip-path="url(#clip0_268_6537)">
<g id="Group">
<g id="Group_2">
<g id="Group_3">
<path id="Vector" d="M43.2839 16.3012C44.9788 17.996 45.8262 20.2176 45.8262 22.4384C45.8262 24.6592 44.9788 26.8807 43.2839 28.5756L36.6554 35.2042L28.7074 30.8777L24.3809 22.9297L31.0095 16.3012C34.3992 12.9113 39.8941 12.9113 43.2839 16.3012Z" fill="url(#paint0_linear_268_6537)"/>
<path id="Vector_2" d="M43.2841 16.3014C44.979 17.9962 45.8264 20.2178 45.8264 22.4386C45.8264 24.6594 44.979 26.8809 43.2841 28.5758L36.6556 35.2044L28.7076 30.8779L27.3895 28.456L41.1238 14.7217C41.902 15.123 42.6316 15.649 43.2841 16.3014Z" fill="url(#paint1_linear_268_6537)"/>
<path id="Vector_3" d="M41.4611 30.3994L36.6552 35.2032L28.7078 30.8773L24.3818 22.9299L29.1857 18.124L41.4611 30.3994Z" fill="url(#paint2_linear_268_6537)"/>
<path id="Vector_4" d="M24.3811 22.9297L36.6555 35.2041L30.027 41.8327C26.6371 45.2225 21.1424 45.2225 17.7525 41.8327C16.0577 40.1378 15.2101 37.9163 15.2101 35.6955C15.2101 33.4746 16.0576 31.2531 17.7525 29.5582L24.3811 22.9297Z" fill="url(#paint3_linear_268_6537)"/>
<path id="Vector_5" d="M24.3811 22.9297L36.6555 35.2041L30.027 41.8327C26.6371 45.2225 21.1424 45.2225 17.7525 41.8327C16.0577 40.1378 15.2101 37.9163 15.2101 35.6955C15.2101 33.4746 16.0576 31.2531 17.7525 29.5582L24.3811 22.9297Z" fill="url(#paint4_linear_268_6537)"/>
<path id="Vector_6" d="M17.4081 29.9236L29.6617 42.1771C29.7858 42.0663 29.9079 41.9518 30.027 41.8327L36.6556 35.2041L24.3811 22.9297L17.7526 29.5582C17.6334 29.6774 17.5188 29.7994 17.4081 29.9236Z" fill="url(#paint5_linear_268_6537)"/>
<path id="Vector_7" d="M28.6482 27.1968L36.6554 35.204L30.0268 41.8325C26.637 45.2224 21.1422 45.2224 17.7524 41.8325C17.1 41.1802 16.5734 40.4498 16.1726 39.6722L28.6482 27.1968Z" fill="url(#paint6_linear_268_6537)"/>
<path id="Vector_8" d="M31.0096 16.3012L26.2573 21.0535L38.5318 33.3279L43.2841 28.5756C44.979 26.8807 45.8265 24.6592 45.8264 22.4384C45.8264 20.2176 44.979 17.996 43.2841 16.3012C39.8943 12.9113 34.3994 12.9113 31.0096 16.3012Z" fill="url(#paint7_linear_268_6537)"/>
</g>
<g id="Group_4">
<path id="Vector_9" d="M28.9146 30.112C27.2197 31.8068 24.9982 32.6543 22.7774 32.6543C20.5565 32.6543 18.335 31.8068 16.6401 30.112L10.0116 23.4834L14.3381 15.5354L22.286 11.209L28.9146 17.8375C32.3044 21.2274 32.3044 26.7221 28.9146 30.112Z" fill="url(#paint8_linear_268_6537)"/>
<path id="Vector_10" d="M28.9146 30.1119C27.2197 31.8068 24.9982 32.6543 22.7774 32.6543C20.5565 32.6543 18.335 31.8068 16.6401 30.1119L10.0116 23.4834L14.3381 15.5354L16.7599 14.2173L30.4943 27.9517C30.0929 28.7299 29.5671 29.4595 28.9146 30.1119Z" fill="url(#paint9_linear_268_6537)"/>
<path id="Vector_11" d="M22.2859 11.2089L10.0114 23.4834L3.38289 16.8548C-0.00694394 13.465 -0.00694394 7.97023 3.38289 4.5804C5.07777 2.88552 7.29929 2.038 9.52011 2.03809C11.7409 2.03809 13.9625 2.88552 15.6573 4.58049L22.2859 11.2089Z" fill="url(#paint10_linear_268_6537)"/>
<path id="Vector_12" d="M18.0187 15.476L10.0115 23.4832L3.38292 16.8547C-0.00691354 13.4649 -0.00691354 7.9701 3.38292 4.58026C4.0353 3.92788 4.76562 3.40132 5.54321 3.00049L18.0187 15.476Z" fill="url(#paint11_linear_268_6537)"/>
<path id="Vector_13" d="M28.9145 17.8378L24.1621 13.0854L11.8877 25.3599L16.64 30.1122C18.3349 31.8071 20.5564 32.6546 22.7772 32.6545C24.9981 32.6545 27.2196 31.8071 28.9145 30.1122C32.3043 26.7224 32.3043 21.2276 28.9145 17.8378Z" fill="url(#paint12_linear_268_6537)"/>
<path id="Vector_14" d="M28.9145 17.8378L24.1621 13.0854L11.8877 25.3599L16.64 30.1122C18.3349 31.8071 20.5564 32.6546 22.7772 32.6545C24.9981 32.6545 27.2196 31.8071 28.9145 30.1122C32.3043 26.7224 32.3043 21.2276 28.9145 17.8378Z" fill="url(#paint13_linear_268_6537)"/>
<path id="Vector_15" d="M28.9146 30.1113C27.2197 31.8062 24.9982 32.6537 22.7774 32.6537C20.5565 32.6537 18.335 31.8063 16.6401 30.1113L10.0116 23.4828L18.0188 15.4756L30.4943 27.9511C30.0929 28.7293 29.5671 29.459 28.9146 30.1113Z" fill="url(#paint14_linear_268_6537)"/>
</g>
</g>
<g id="Group_5">
<path id="Vector_16" d="M31.8829 18.6234C36.5001 18.6234 40.243 14.8805 40.243 10.2634C40.243 5.64625 36.5001 1.90332 31.8829 1.90332C27.2658 1.90332 23.5229 5.64625 23.5229 10.2634C23.5229 14.8805 27.2658 18.6234 31.8829 18.6234Z" fill="url(#paint15_linear_268_6537)"/>
<path id="Vector_17" d="M38.9485 5.79339L27.4121 17.3298C26.3673 16.6662 25.4791 15.778 24.8196 14.7332L36.3539 3.19678C37.3988 3.86032 38.287 4.74861 38.9485 5.79339Z" fill="url(#paint16_linear_268_6537)"/>
<path id="Vector_18" d="M23.5229 10.2635C23.5229 14.8806 27.2658 18.6236 31.883 18.6236C36.5002 18.6236 40.2431 14.8806 40.2431 10.2635C40.2431 10.0324 40.2332 9.80357 40.2149 9.57715H23.5512C23.5328 9.80357 23.5229 10.0325 23.5229 10.2635Z" fill="url(#paint17_linear_268_6537)"/>
<path id="Vector_19" d="M31.8831 1.90332C31.3445 1.90332 30.8181 1.9549 30.3079 2.05216V18.4745C30.8181 18.5718 31.3446 18.6234 31.8831 18.6234C36.5002 18.6234 40.2432 14.8804 40.2432 10.2633C40.2432 5.64619 36.5003 1.90332 31.8831 1.90332Z" fill="url(#paint18_linear_268_6537)"/>
<path id="Vector_20" d="M37.7595 4.31787L25.9374 16.1399C27.453 17.6733 29.557 18.6237 31.8833 18.6237C36.5004 18.6237 40.2434 14.8807 40.2434 10.2636C40.2433 7.93738 39.2929 5.83333 37.7595 4.31787Z" fill="url(#paint19_linear_268_6537)"/>
</g>
</g>
</g>
<defs>
<linearGradient id="paint0_linear_268_6537" x1="33.9521" y1="21.5058" x2="39.3912" y2="26.9449" gradientUnits="userSpaceOnUse">
<stop stop-color="#F3FAFF"/>
<stop offset="1" stop-color="#D5DAF3"/>
</linearGradient>
<linearGradient id="paint1_linear_268_6537" x1="34.7439" y1="22.2975" x2="42.4425" y2="29.9962" gradientUnits="userSpaceOnUse">
<stop stop-color="#DBD5EF" stop-opacity="0"/>
<stop offset="0.2667" stop-color="#D8D2EC" stop-opacity="0.023"/>
<stop offset="0.4431" stop-color="#D1C9E2" stop-opacity="0.098"/>
<stop offset="0.5933" stop-color="#C4B9D1" stop-opacity="0.225"/>
<stop offset="0.7288" stop-color="#B2A4BA" stop-opacity="0.405"/>
<stop offset="0.8545" stop-color="#9A889C" stop-opacity="0.638"/>
<stop offset="0.9713" stop-color="#7E6678" stop-opacity="0.92"/>
<stop offset="1" stop-color="#765D6E"/>
</linearGradient>
<linearGradient id="paint2_linear_268_6537" x1="36.0542" y1="26.7851" x2="29.7397" y2="26.5403" gradientUnits="userSpaceOnUse">
<stop stop-color="#DBD5EF" stop-opacity="0"/>
<stop offset="0.2667" stop-color="#D8D2EC" stop-opacity="0.023"/>
<stop offset="0.4431" stop-color="#D1C9E2" stop-opacity="0.098"/>
<stop offset="0.5933" stop-color="#C4B9D1" stop-opacity="0.225"/>
<stop offset="0.7288" stop-color="#B2A4BA" stop-opacity="0.405"/>
<stop offset="0.8545" stop-color="#9A889C" stop-opacity="0.638"/>
<stop offset="0.9713" stop-color="#7E6678" stop-opacity="0.92"/>
<stop offset="1" stop-color="#765D6E"/>
</linearGradient>
<linearGradient id="paint3_linear_268_6537" x1="22.0937" y1="33.3644" x2="27.5328" y2="38.8035" gradientUnits="userSpaceOnUse">
<stop stop-color="#FE646F"/>
<stop offset="0.235" stop-color="#FA5964"/>
<stop offset="0.6415" stop-color="#EF3D49"/>
<stop offset="1" stop-color="#E41F2D"/>
</linearGradient>
<linearGradient id="paint4_linear_268_6537" x1="25.9428" y1="35.7551" x2="25.6002" y2="29.049" gradientUnits="userSpaceOnUse">
<stop stop-color="#A72B2B" stop-opacity="0"/>
<stop offset="0.1561" stop-color="#A32B2A" stop-opacity="0.066"/>
<stop offset="0.386" stop-color="#982C29" stop-opacity="0.248"/>
<stop offset="0.6615" stop-color="#872F28" stop-opacity="0.545"/>
<stop offset="0.97" stop-color="#6F3226" stop-opacity="0.956"/>
<stop offset="1" stop-color="#6D3326"/>
</linearGradient>
<linearGradient id="paint5_linear_268_6537" x1="27.5176" y1="32.2282" x2="32.4286" y2="28.7407" gradientUnits="userSpaceOnUse">
<stop stop-color="#A72B2B" stop-opacity="0"/>
<stop offset="0.1561" stop-color="#A32B2A" stop-opacity="0.066"/>
<stop offset="0.386" stop-color="#982C29" stop-opacity="0.248"/>
<stop offset="0.6615" stop-color="#872F28" stop-opacity="0.545"/>
<stop offset="0.97" stop-color="#6F3226" stop-opacity="0.956"/>
<stop offset="1" stop-color="#6D3326"/>
</linearGradient>
<linearGradient id="paint6_linear_268_6537" x1="24.2999" y1="35.5707" x2="29.7469" y2="41.0177" gradientUnits="userSpaceOnUse">
<stop stop-color="#A72B2B" stop-opacity="0"/>
<stop offset="0.1561" stop-color="#A32B2A" stop-opacity="0.066"/>
<stop offset="0.386" stop-color="#982C29" stop-opacity="0.248"/>
<stop offset="0.6615" stop-color="#872F28" stop-opacity="0.545"/>
<stop offset="0.97" stop-color="#6F3226" stop-opacity="0.956"/>
<stop offset="1" stop-color="#6D3326"/>
</linearGradient>
<linearGradient id="paint7_linear_268_6537" x1="38.5582" y1="23.5959" x2="45.6282" y2="24.7822" gradientUnits="userSpaceOnUse">
<stop stop-color="#DBD5EF" stop-opacity="0"/>
<stop offset="0.2667" stop-color="#D8D2EC" stop-opacity="0.023"/>
<stop offset="0.4431" stop-color="#D1C9E2" stop-opacity="0.098"/>
<stop offset="0.5933" stop-color="#C4B9D1" stop-opacity="0.225"/>
<stop offset="0.7288" stop-color="#B2A4BA" stop-opacity="0.405"/>
<stop offset="0.8545" stop-color="#9A889C" stop-opacity="0.638"/>
<stop offset="0.9713" stop-color="#7E6678" stop-opacity="0.92"/>
<stop offset="1" stop-color="#765D6E"/>
</linearGradient>
<linearGradient id="paint8_linear_268_6537" x1="23.6644" y1="20.7281" x2="18.2252" y2="26.1673" gradientUnits="userSpaceOnUse">
<stop stop-color="#FEF0AE"/>
<stop offset="1" stop-color="#FAC600"/>
</linearGradient>
<linearGradient id="paint9_linear_268_6537" x1="22.8729" y1="21.5196" x2="15.1741" y2="29.2183" gradientUnits="userSpaceOnUse">
<stop stop-color="#FE9738" stop-opacity="0"/>
<stop offset="0.1648" stop-color="#FE9637" stop-opacity="0.012"/>
<stop offset="0.2957" stop-color="#FE9535" stop-opacity="0.052"/>
<stop offset="0.415" stop-color="#FE9331" stop-opacity="0.118"/>
<stop offset="0.5274" stop-color="#FE902C" stop-opacity="0.211"/>
<stop offset="0.635" stop-color="#FE8C25" stop-opacity="0.331"/>
<stop offset="0.739" stop-color="#FE871D" stop-opacity="0.479"/>
<stop offset="0.8401" stop-color="#FE8213" stop-opacity="0.655"/>
<stop offset="0.9364" stop-color="#FE7B09" stop-opacity="0.852"/>
<stop offset="1" stop-color="#FE7701"/>
</linearGradient>
<linearGradient id="paint10_linear_268_6537" x1="13.7366" y1="6.9925" x2="4.7431" y2="15.986" gradientUnits="userSpaceOnUse">
<stop stop-color="#C1E9AF"/>
<stop offset="0.1072" stop-color="#B6E4AA"/>
<stop offset="0.2935" stop-color="#99D69E"/>
<stop offset="0.5365" stop-color="#6BC18A"/>
<stop offset="0.8238" stop-color="#2CA36F"/>
<stop offset="1" stop-color="#02905D"/>
</linearGradient>
<linearGradient id="paint11_linear_268_6537" x1="8.42581" y1="14.3346" x2="5.49699" y2="20.7193" gradientUnits="userSpaceOnUse">
<stop stop-color="#026841" stop-opacity="0"/>
<stop offset="0.2182" stop-color="#026841" stop-opacity="0.033"/>
<stop offset="0.4099" stop-color="#026841" stop-opacity="0.137"/>
<stop offset="0.5916" stop-color="#026841" stop-opacity="0.31"/>
<stop offset="0.7671" stop-color="#026841" stop-opacity="0.553"/>
<stop offset="0.9367" stop-color="#026841" stop-opacity="0.864"/>
<stop offset="1" stop-color="#026841"/>
</linearGradient>
<linearGradient id="paint12_linear_268_6537" x1="21.5741" y1="25.3343" x2="20.3879" y2="32.4043" gradientUnits="userSpaceOnUse">
<stop stop-color="#FE9738" stop-opacity="0"/>
<stop offset="0.1648" stop-color="#FE9637" stop-opacity="0.012"/>
<stop offset="0.2957" stop-color="#FE9535" stop-opacity="0.052"/>
<stop offset="0.415" stop-color="#FE9331" stop-opacity="0.118"/>
<stop offset="0.5274" stop-color="#FE902C" stop-opacity="0.211"/>
<stop offset="0.635" stop-color="#FE8C25" stop-opacity="0.331"/>
<stop offset="0.739" stop-color="#FE871D" stop-opacity="0.479"/>
<stop offset="0.8401" stop-color="#FE8213" stop-opacity="0.655"/>
<stop offset="0.9364" stop-color="#FE7B09" stop-opacity="0.852"/>
<stop offset="1" stop-color="#FE7701"/>
</linearGradient>
<linearGradient id="paint13_linear_268_6537" x1="21.1917" y1="22.7566" x2="26.2451" y2="32.7922" gradientUnits="userSpaceOnUse">
<stop stop-color="#FE9738" stop-opacity="0"/>
<stop offset="0.1648" stop-color="#FE9637" stop-opacity="0.012"/>
<stop offset="0.2957" stop-color="#FE9535" stop-opacity="0.052"/>
<stop offset="0.415" stop-color="#FE9331" stop-opacity="0.118"/>
<stop offset="0.5274" stop-color="#FE902C" stop-opacity="0.211"/>
<stop offset="0.635" stop-color="#FE8C25" stop-opacity="0.331"/>
<stop offset="0.739" stop-color="#FE871D" stop-opacity="0.479"/>
<stop offset="0.8401" stop-color="#FE8213" stop-opacity="0.655"/>
<stop offset="0.9364" stop-color="#FE7B09" stop-opacity="0.852"/>
<stop offset="1" stop-color="#FE7701"/>
</linearGradient>
<linearGradient id="paint14_linear_268_6537" x1="19.4893" y1="28.06" x2="17.8892" y2="33.305" gradientUnits="userSpaceOnUse">
<stop stop-color="#FAC600" stop-opacity="0"/>
<stop offset="0.1175" stop-color="#FAC602" stop-opacity="0.017"/>
<stop offset="0.2423" stop-color="#FAC80B" stop-opacity="0.067"/>
<stop offset="0.3705" stop-color="#FACC1A" stop-opacity="0.151"/>
<stop offset="0.5011" stop-color="#FBD12E" stop-opacity="0.268"/>
<stop offset="0.6336" stop-color="#FBD748" stop-opacity="0.419"/>
<stop offset="0.7676" stop-color="#FCDF69" stop-opacity="0.604"/>
<stop offset="0.9003" stop-color="#FDE88E" stop-opacity="0.819"/>
<stop offset="1" stop-color="#FEF0AE"/>
</linearGradient>
<linearGradient id="paint15_linear_268_6537" x1="27.3598" y1="5.7402" x2="36.7407" y2="15.1211" gradientUnits="userSpaceOnUse">
<stop stop-color="#99E6FC"/>
<stop offset="0.1325" stop-color="#8EE1FB"/>
<stop offset="0.3627" stop-color="#71D5F9"/>
<stop offset="0.6631" stop-color="#43C2F5"/>
<stop offset="1" stop-color="#08A9F1"/>
</linearGradient>
<linearGradient id="paint16_linear_268_6537" x1="33.0659" y1="11.446" x2="30.1398" y2="8.51986" gradientUnits="userSpaceOnUse">
<stop stop-color="#99E6FC"/>
<stop offset="0.1325" stop-color="#8EE1FB"/>
<stop offset="0.3627" stop-color="#71D5F9"/>
<stop offset="0.6631" stop-color="#43C2F5"/>
<stop offset="1" stop-color="#08A9F1"/>
</linearGradient>
<linearGradient id="paint17_linear_268_6537" x1="31.883" y1="11.9475" x2="31.883" y2="20.52" gradientUnits="userSpaceOnUse">
<stop stop-color="#2740B0" stop-opacity="0"/>
<stop offset="0.2505" stop-color="#263FAE" stop-opacity="0.023"/>
<stop offset="0.4239" stop-color="#253DAB" stop-opacity="0.095"/>
<stop offset="0.5741" stop-color="#233BA4" stop-opacity="0.218"/>
<stop offset="0.711" stop-color="#21379B" stop-opacity="0.393"/>
<stop offset="0.8389" stop-color="#1E3290" stop-opacity="0.618"/>
<stop offset="0.9585" stop-color="#1A2C82" stop-opacity="0.89"/>
<stop offset="1" stop-color="#192A7D"/>
</linearGradient>
<linearGradient id="paint18_linear_268_6537" x1="33.6047" y1="10.2633" x2="41.9266" y2="10.2633" gradientUnits="userSpaceOnUse">
<stop stop-color="#2740B0" stop-opacity="0"/>
<stop offset="0.2505" stop-color="#263FAE" stop-opacity="0.023"/>
<stop offset="0.4239" stop-color="#253DAB" stop-opacity="0.095"/>
<stop offset="0.5741" stop-color="#233BA4" stop-opacity="0.218"/>
<stop offset="0.711" stop-color="#21379B" stop-opacity="0.393"/>
<stop offset="0.8389" stop-color="#1E3290" stop-opacity="0.618"/>
<stop offset="0.9585" stop-color="#1A2C82" stop-opacity="0.89"/>
<stop offset="1" stop-color="#192A7D"/>
</linearGradient>
<linearGradient id="paint19_linear_268_6537" x1="34.7722" y1="13.1526" x2="38.8998" y2="17.2803" gradientUnits="userSpaceOnUse">
<stop stop-color="#08A9F1" stop-opacity="0"/>
<stop offset="0.0927" stop-color="#0BAAF1" stop-opacity="0.025"/>
<stop offset="0.2192" stop-color="#15AEF2" stop-opacity="0.094"/>
<stop offset="0.3651" stop-color="#26B5F3" stop-opacity="0.208"/>
<stop offset="0.5256" stop-color="#3DBFF5" stop-opacity="0.367"/>
<stop offset="0.698" stop-color="#5ACBF7" stop-opacity="0.571"/>
<stop offset="0.8776" stop-color="#7EDAF9" stop-opacity="0.816"/>
<stop offset="1" stop-color="#99E6FC"/>
</linearGradient>
<clipPath id="clip0_268_6537">
<rect width="44.9858" height="44.9858" fill="white" transform="translate(0.840454 0.646484)"/>
</clipPath>
</defs>
</svg>
