<svg width="24" height="6" viewBox="0 0 24 6" fill="none" xmlns="http://www.w3.org/2000/svg">
<g id="Menu">
<path id="Union" fill-rule="evenodd" clip-rule="evenodd" d="M5 3.13916C5 4.51987 3.88071 5.63916 2.5 5.63916C1.11929 5.63916 0 4.51987 0 3.13916C0 1.75845 1.11929 0.63916 2.5 0.63916C3.88071 0.63916 5 1.75845 5 3.13916ZM14.5 3.13916C14.5 4.51987 13.3807 5.63916 12 5.63916C10.6193 5.63916 9.5 4.51987 9.5 3.13916C9.5 1.75845 10.6193 0.63916 12 0.63916C13.3807 0.63916 14.5 1.75845 14.5 3.13916ZM21.5 5.63916C22.8807 5.63916 24 4.51987 24 3.13916C24 1.75845 22.8807 0.63916 21.5 0.63916C20.1193 0.63916 19 1.75845 19 3.13916C19 4.51987 20.1193 5.63916 21.5 5.63916Z" fill="#004D40"/>
</g>
</svg>
