<svg width="32" height="32" viewBox="0 0 32 32" fill="none" xmlns="http://www.w3.org/2000/svg">
<g id="vuesax/bulk/profile">
<g id="profile">
<path id="Vector" opacity="0.4" d="M10.1666 8.99984C10.1666 5.78265 12.7828 3.1665 16 3.1665C19.2168 3.1665 21.8328 5.78212 21.8333 8.99887C21.8205 12.1551 19.3568 14.705 16.2177 14.8198H16.2176H16.2176H16.2175H16.2175H16.2174H16.2174H16.2174H16.2173H16.2173H16.2172H16.2172H16.2171H16.2171H16.217H16.217H16.217H16.2169H16.2169H16.2168H16.2168H16.2167H16.2167H16.2166H16.2166H16.2166H16.2165H16.2165H16.2164H16.2164H16.2163H16.2163H16.2163H16.2162H16.2162H16.2161H16.2161H16.2161H16.216H16.216H16.2159H16.2159H16.2158H16.2158H16.2158H16.2157H16.2157H16.2156H16.2156H16.2156H16.2155H16.2155H16.2154H16.2154H16.2154H16.2153H16.2153H16.2152H16.2152H16.2151H16.2151H16.2151H16.215H16.215H16.2149H16.2149H16.2149H16.2148H16.2148H16.2147H16.2147H16.2147H16.2146H16.2146H16.2145H16.2145H16.2145H16.2144H16.2144H16.2144H16.2143H16.2143H16.2142H16.2142H16.2142H16.2141H16.2141H16.214H16.214H16.214H16.2139H16.2139H16.2138H16.2138H16.2138H16.2137H16.2137H16.2136H16.2136H16.2136H16.2135H16.2135H16.2134H16.2134H16.2134H16.2133H16.2133H16.2133H16.2132H16.2132H16.2131H16.2131H16.2131H16.213H16.213H16.2129H16.2129H16.2129H16.2128H16.2128H16.2127H16.2127H16.2127H16.2126H16.2126H16.2125H16.2125H16.2125H16.2124H16.2124H16.2124H16.2123H16.2123H16.2122H16.2122H16.2122H16.2121H16.2121H16.212H16.212H16.212H16.2119H16.2119H16.2118H16.2118H16.2118H16.2117H16.2117H16.2116H16.2116H16.2116H16.2115H16.2115H16.2114H16.2114H16.2114H16.2113H16.2113H16.2112H16.2112H16.2112H16.2111H16.2111H16.211H16.211H16.2109H16.2109H16.2109H16.2108H16.2108H16.2107H16.2107H16.2107H16.2106H16.2106H16.2105H16.2105H16.2104H16.2104H16.2104H16.2103H16.2103H16.2102H16.2102H16.2102H16.2101H16.2101H16.21H16.21H16.2099H16.2099H16.2098H16.2098H16.2098H16.2097H16.2097H16.2096H16.2096H16.2095H16.2095H16.2095H16.2094H16.2094H16.2093H16.2093H16.2092H16.2092H16.2091H16.2091H16.2091H16.209H16.209H16.2089H16.2089H16.2088H16.2088H16.2087H16.2087H16.2086H16.2086H16.2085H16.2085H16.2085H16.2084H16.2084H16.2083H16.2083H16.2082H16.2082H16.2081H16.2081H16.208H16.208H16.2079H16.2079H16.2078H16.2078H16.2077H16.2077H16.2076H16.2076H16.2075H16.2075H16.2074H16.2074H16.2073H16.2073H16.2072H16.2072H16.2071H16.2071H16.207H16.207H16.2069H16.2069H16.2068H16.2068H16.2067H16.2067H16.2066H16.2066H16.2065H16.2064H16.2064H16.2063H16.2063H16.2062H16.2062H16.2061H16.2061H16.206H16.206H16.2059H16.2058H16.2058H16.2057H16.2057H16.2056H16.2056H16.2055H16.2054H16.2054H16.2053H16.2053H16.2052H16.2052H16.2051H16.205H16.205H16.2049H16.2049H16.2048H16.2047H16.2047H16.2046H16.2046H16.2045H16.2044H16.2044H16.2043H16.2043H16.2042H16.2041H16.2041H16.204H16.204H16.2039H16.2038H16.2038H16.2037H16.2036H16.2036H16.2035H16.2034H16.2034H16.2033H16.2032H16.2032H16.2031H16.2031H16.203H16.2029H16.2029H16.2028H16.2027H16.2027H16.2026H16.2025H16.2024H16.2024H16.2023H16.2022H16.2022H16.2021H16.202H16.202H16.2019H16.2018H16.2017H16.2017H16.2016H16.2015H16.2015H16.2014H16.2013H16.2012H16.2012H16.2011H16.201H16.2009H16.2009H16.2008H16.2007H16.2006H16.2006H16.2005H16.2004H16.2003H16.2003H16.2002H16.2001H16.2H16.2H16.1998H16.1996H16.1995H16.1993H16.1992H16.199H16.1989H16.1987H16.1986H16.1984H16.1983H16.1981H16.198H16.1978H16.1976H16.1975H16.1973H16.1972H16.197H16.1969H16.1967H16.1966H16.1964H16.1963H16.1961H16.196H16.1958H16.1957H16.1956H16.1954H16.1953H16.1951H16.195H16.1948H16.1947H16.1945H16.1944H16.1942H16.1941H16.1939H16.1938H16.1937H16.1935H16.1934H16.1932H16.1931H16.1929H16.1928H16.1926H16.1925H16.1924H16.1922H16.1921H16.1919H16.1918H16.1917H16.1915H16.1914H16.1912H16.1911H16.191H16.1908H16.1907H16.1905H16.1904H16.1903H16.1901H16.19H16.1898H16.1897H16.1896H16.1894H16.1893H16.1892H16.189H16.1889H16.1887H16.1886H16.1885H16.1883H16.1882H16.1881H16.1879H16.1878H16.1877H16.1875H16.1874H16.1873H16.1871H16.187H16.1869H16.1867H16.1866H16.1865H16.1863H16.1862H16.1861H16.1859H16.1858H16.1857H16.1855H16.1854H16.1853H16.1851H16.185H16.1849H16.1847H16.1846H16.1845H16.1844H16.1842H16.1841H16.184H16.1838H16.1837H16.1836H16.1834H16.1833H16.1832H16.1831H16.1829H16.1828H16.1827H16.1826H16.1824H16.1823H16.1822H16.182H16.1819H16.1818H16.1817H16.1815H16.1814H16.1813H16.1812H16.181H16.1809H16.1808H16.1807H16.1805H16.1804H16.1803H16.1802H16.18H16.1799H16.1798H16.1797H16.1795H16.1794H16.1793H16.1792H16.179H16.1789H16.1788H16.1787H16.1785H16.1784H16.1783H16.1782H16.1781H16.1779H16.1778H16.1777H16.1776H16.1774H16.1773H16.1772H16.1771H16.177H16.1768H16.1767H16.1766H16.1765H16.1763H16.1762H16.1761H16.176H16.1759H16.1757H16.1756H16.1755H16.1754H16.1753H16.1751H16.175H16.1749H16.1748H16.1747H16.1745H16.1744H16.1743H16.1742H16.1741H16.1739H16.1738H16.1737H16.1736H16.1735H16.1733H16.1732H16.1731H16.173H16.1729H16.1727H16.1726H16.1725H16.1724H16.1723H16.1722H16.172H16.1719H16.1718H16.1717H16.1716H16.1714H16.1713H16.1712H16.1711H16.171H16.1709H16.1707H16.1706H16.1705H16.1704H16.1703H16.1701H16.17H16.1699H16.1698H16.1697H16.1696H16.1694H16.1693H16.1692H16.1691H16.169H16.1689H16.1687H16.1686H16.1685H16.1684C16.0553 14.8059 15.9341 14.8075 15.8214 14.8188C12.6114 14.6904 10.1666 12.1419 10.1666 8.99984Z" fill="#00C9A7" stroke="#00C9A7"/>
<path id="Vector_2" d="M9.50533 27.0384L9.50396 27.0375C7.92501 25.9848 7.11328 24.6053 7.11328 23.1735C7.11328 21.7414 7.92535 20.3487 9.51696 19.2831C11.2918 18.1086 13.6434 17.5068 16.0166 17.5068C18.3904 17.5068 20.735 18.1089 22.4959 19.2829C24.0713 20.3331 24.8742 21.7124 24.8866 23.1488C24.8859 24.5936 24.0737 25.9729 22.4943 27.0386C20.7268 28.2252 18.3761 28.8335 15.9999 28.8335C13.6237 28.8335 11.2729 28.2252 9.50533 27.0384Z" fill="#00C9A7" stroke="#00C9A7"/>
</g>
</g>
</svg>
