<svg width="32" height="32" viewBox="0 0 32 32" fill="none" xmlns="http://www.w3.org/2000/svg">
<g id="vuesax/twotone/profile">
<g id="profile">
<path id="Vector" opacity="0.4" d="M16.2133 14.4932C16.08 14.4798 15.92 14.4798 15.7733 14.4932C12.6 14.3865 10.08 11.7865 10.08 8.5865C10.08 5.31984 12.72 2.6665 16 2.6665C19.2666 2.6665 21.92 5.31984 21.92 8.5865C21.9066 11.7865 19.3866 14.3865 16.2133 14.4932Z" stroke="#868E96" stroke-width="1.5" stroke-linecap="round" stroke-linejoin="round"/>
<path id="Vector_2" d="M9.54671 19.4135C6.32004 21.5735 6.32004 25.0935 9.54671 27.2402C13.2134 29.6935 19.2267 29.6935 22.8934 27.2402C26.12 25.0802 26.12 21.5602 22.8934 19.4135C19.24 16.9735 13.2267 16.9735 9.54671 19.4135Z" stroke="#868E96" stroke-width="1.5" stroke-linecap="round" stroke-linejoin="round"/>
</g>
</g>
</svg>
