<svg width="44" height="43" viewBox="0 0 44 43" fill="none" xmlns="http://www.w3.org/2000/svg">
<g id="taxi" clip-path="url(#clip0_268_6322)">
<path id="Vector" d="M6.40878 24.8804H5.09198C4.21068 24.8804 3.49631 24.1661 3.49631 23.2848V22.8662C3.49631 21.985 4.21068 21.2705 5.09198 21.2705H6.40878C7.29 21.2705 8.00446 21.9849 8.00446 22.8662V23.2848C8.00446 24.1661 7.29 24.8804 6.40878 24.8804Z" fill="url(#paint0_linear_268_6322)"/>
<path id="Vector_2" d="M38.2414 24.8804H36.9246C36.0433 24.8804 35.3289 24.1661 35.3289 23.2848V22.8662C35.3289 21.985 36.0433 21.2705 36.9246 21.2705H38.2414C39.1227 21.2705 39.837 21.9849 39.837 22.8662V23.2848C39.837 24.1661 39.1227 24.8804 38.2414 24.8804Z" fill="url(#paint1_linear_268_6322)"/>
<path id="Vector_3" d="M38.2414 24.8801C38.7095 24.8801 39.1292 24.6773 39.4211 24.3562L36.4184 21.3535C35.7856 21.5653 35.3289 22.1617 35.3289 22.8659V23.2845C35.3289 24.1658 36.0433 24.8801 36.9246 24.8801H38.2414Z" fill="url(#paint2_linear_268_6322)"/>
<path id="Vector_4" d="M26.6246 13.7938H16.7088L17.7784 9.54171C17.8625 9.20744 18.1631 8.97314 18.5078 8.97314H24.8257C25.1703 8.97314 25.4709 9.20744 25.555 9.54171L26.6246 13.7938Z" fill="url(#paint3_linear_268_6322)"/>
<path id="Vector_5" d="M26.6246 13.7936L25.5796 9.63965H19.4783C19.1336 9.63965 18.833 9.87395 18.7489 10.2082L17.847 13.7936H26.6246Z" fill="url(#paint4_linear_268_6322)"/>
<path id="Vector_6" d="M32.5766 13.084C25.3096 12.6562 18.0237 12.6562 10.7567 13.084C10.0658 13.1247 9.46934 13.5819 9.25046 14.2384L5.55841 25.3141H21.6667H37.775L34.0829 14.2384C33.864 13.5819 33.2676 13.1247 32.5766 13.084Z" fill="url(#paint5_linear_268_6322)"/>
<path id="Vector_7" d="M31.1013 14.7379C24.817 14.368 18.5164 14.368 12.2321 14.7379C11.6346 14.7731 11.1187 15.1684 10.9295 15.7361L7.73672 25.3141H21.6667H35.5966L32.4038 15.7362C32.2146 15.1684 31.6988 14.7731 31.1013 14.7379Z" fill="url(#paint6_linear_268_6322)"/>
<path id="Vector_8" d="M21.6667 25.3144H37.7749L34.0829 14.2387C33.9905 13.9613 33.83 13.7202 33.6241 13.5303L18.6559 25.3144H21.6667Z" fill="url(#paint7_linear_268_6322)"/>
<path id="Vector_9" d="M30.4249 15.4963C24.5911 15.1529 18.7421 15.1529 12.9083 15.4963C12.3536 15.529 11.8748 15.896 11.6991 16.423L8.73515 25.3144H21.6667H34.5981L31.6341 16.423C31.4585 15.896 30.9796 15.5289 30.4249 15.4963Z" fill="url(#paint8_linear_268_6322)"/>
<path id="Vector_10" d="M29.8607 16.1287C24.4028 15.8074 18.9306 15.8074 13.4727 16.1287C12.9538 16.1592 12.5057 16.5026 12.3414 16.9957L9.56847 25.3141H21.6667H33.7649L30.9919 16.9957C30.8276 16.5026 30.3795 16.1592 29.8607 16.1287Z" fill="url(#paint9_linear_268_6322)"/>
<path id="Vector_11" d="M8.98674 43H3.19071C2.46326 43 1.87349 42.4102 1.87349 41.6828V30.8077C1.87349 29.9903 2.53608 29.3276 3.35352 29.3276H8.82392C9.64137 29.3276 10.304 29.9903 10.304 30.8077V41.6829C10.304 42.4102 9.71428 43 8.98674 43Z" fill="url(#paint10_linear_268_6322)"/>
<path id="Vector_12" d="M3.6882 29.3276V38.5771C3.6882 39.1823 3.92887 39.7626 4.35716 40.19L7.17234 43H8.98682C9.71426 43 10.304 42.4102 10.304 41.6828V30.8077C10.304 29.9903 9.64136 29.3276 8.824 29.3276H3.6882Z" fill="url(#paint11_linear_268_6322)"/>
<path id="Vector_13" d="M6.08876 43H8.98682C9.71427 43 10.304 42.4102 10.304 41.6828V30.8077C10.304 29.9903 9.64137 29.3276 8.824 29.3276H6.08884L6.08876 43Z" fill="url(#paint12_linear_268_6322)"/>
<path id="Vector_14" d="M40.1426 43H34.3466C33.6192 43 33.0294 42.4102 33.0294 41.6828V30.8077C33.0294 29.9903 33.6921 29.3276 34.5094 29.3276H39.9798C40.7972 29.3276 41.4599 29.9903 41.4599 30.8077V41.6829C41.4599 42.4102 40.8701 43 40.1426 43Z" fill="url(#paint13_linear_268_6322)"/>
<path id="Vector_15" d="M34.5094 29.3276C33.692 29.3276 33.0294 29.9903 33.0294 30.8077V39.5223L33.0337 39.5202L36.5135 43H40.1426C40.8701 43 41.4599 42.4102 41.4599 41.6828V30.8077C41.4599 29.9903 40.7972 29.3276 39.9798 29.3276H34.5094Z" fill="url(#paint14_linear_268_6322)"/>
<path id="Vector_16" d="M37.2446 43H40.1426C40.8701 43 41.4598 42.4102 41.4598 41.6828V30.8077C41.4598 29.9903 40.7972 29.3276 39.9798 29.3276H37.2447V43H37.2446Z" fill="url(#paint15_linear_268_6322)"/>
<path id="Vector_17" d="M39.4773 37.2735H3.85604C3.18365 37.2735 2.63863 36.7285 2.63863 36.0561V27.0208C2.63863 26.0278 3.33783 25.1721 4.31098 24.9742L4.57452 24.9207C15.9445 22.6088 27.6652 22.6257 39.0284 24.9704C39.9987 25.1706 40.6948 26.025 40.6948 27.0158V36.0562C40.6947 36.7285 40.1497 37.2735 39.4773 37.2735Z" fill="url(#paint16_linear_268_6322)"/>
<path id="Vector_18" d="M40.6947 28.0478V27.0157C40.6947 26.025 39.9986 25.1706 39.0283 24.9704C27.6651 22.6257 15.9445 22.6088 4.57445 24.9206L4.3109 24.9741C3.33784 25.172 2.63855 26.0277 2.63855 27.0207V28.0478H40.6947Z" fill="url(#paint17_linear_268_6322)"/>
<path id="Vector_19" d="M38.4949 37.2735H4.83849C4.20322 37.2735 3.6882 36.7736 3.6882 36.1568V27.8687C3.6882 26.9579 4.34886 26.1729 5.26829 25.9914L5.51726 25.9423C16.26 23.8216 27.3342 23.8372 38.0707 25.988C38.9874 26.1717 39.6451 26.9553 39.6451 27.8641V36.1568C39.6451 36.7736 39.1301 37.2735 38.4949 37.2735Z" fill="url(#paint18_linear_268_6322)"/>
<path id="Vector_20" d="M21.1399 37.0465V38.2131H9.40347L4.80943 33.6191C4.57941 33.426 4.4315 33.1357 4.4315 32.8099V30.3834C4.4315 29.8001 4.9053 29.3276 5.48861 29.3276H13.4196C13.7455 29.3276 14.0358 29.4742 14.2289 29.7056C14.2768 29.7453 20.7618 36.2372 20.7618 36.2372C20.9919 36.4317 21.1399 36.722 21.1399 37.0465Z" fill="url(#paint19_linear_268_6322)"/>
<path id="Vector_21" d="M40.6947 36.0562V31.7413C39.5704 30.6169 38.6727 29.7202 38.655 29.7056C38.4619 29.4741 38.1716 29.3276 37.8457 29.3276H29.9147C29.3314 29.3276 28.8576 29.8 28.8576 30.3834V32.8099C28.8576 33.1357 29.0055 33.426 29.2355 33.6191L32.89 37.2736H39.4773C40.1497 37.2736 40.6947 36.7286 40.6947 36.0562Z" fill="url(#paint20_linear_268_6322)"/>
<path id="Vector_22" d="M13.4197 33.8664H5.48742C4.90418 33.8664 4.4314 33.3936 4.4314 32.8104V30.3837C4.4314 29.8004 4.90418 29.3276 5.48742 29.3276H13.4197C14.0029 29.3276 14.4757 29.8004 14.4757 30.3837V32.8104C14.4757 33.3936 14.0029 33.8664 13.4197 33.8664Z" fill="url(#paint21_linear_268_6322)"/>
<path id="Vector_23" d="M6.24494 30.085C5.66171 30.085 5.18892 30.5577 5.18892 31.141V33.5677C5.18892 33.659 5.20174 33.7471 5.22353 33.8316C5.308 33.8533 5.39615 33.8662 5.48749 33.8662H13.4198C14.003 33.8662 14.4758 33.3934 14.4758 32.8101V30.3834C14.4758 30.2921 14.463 30.204 14.4412 30.1196C14.3567 30.0978 14.2686 30.085 14.1772 30.085H6.24494Z" fill="url(#paint22_linear_268_6322)"/>
<path id="Vector_24" d="M13.8078 33.8662H10.1756C9.8067 33.8662 9.50763 33.5671 9.50763 33.1982V30.8628C9.50763 30.4939 9.8067 30.1948 10.1756 30.1948H13.8078C14.1767 30.1948 14.4757 30.4939 14.4757 30.8628V33.1982C14.4757 33.5671 14.1767 33.8662 13.8078 33.8662Z" fill="url(#paint23_linear_268_6322)"/>
<path id="Vector_25" d="M12.1479 32.9662C12.9042 32.9662 13.5172 32.3531 13.5172 31.5969C13.5172 30.8406 12.9042 30.2275 12.1479 30.2275C11.3916 30.2275 10.7786 30.8406 10.7786 31.5969C10.7786 32.3531 11.3916 32.9662 12.1479 32.9662Z" fill="url(#paint24_linear_268_6322)"/>
<path id="Vector_26" d="M37.8458 33.8664H29.9135C29.3303 33.8664 28.8575 33.3936 28.8575 32.8104V30.3837C28.8575 29.8004 29.3303 29.3276 29.9135 29.3276H37.8458C38.4291 29.3276 38.9018 29.8004 38.9018 30.3837V32.8104C38.9018 33.3936 38.4291 33.8664 37.8458 33.8664Z" fill="url(#paint25_linear_268_6322)"/>
<path id="Vector_27" d="M30.6711 30.085C30.0878 30.085 29.6151 30.5577 29.6151 31.141V33.5677C29.6151 33.659 29.6279 33.7471 29.6497 33.8316C29.7341 33.8533 29.8223 33.8662 29.9135 33.8662H37.8458C38.4291 33.8662 38.9019 33.3934 38.9019 32.8101V30.3834C38.9019 30.2921 38.889 30.204 38.8672 30.1196C38.7828 30.0978 38.6946 30.085 38.6034 30.085H30.6711Z" fill="url(#paint26_linear_268_6322)"/>
<path id="Vector_28" d="M38.2339 33.8662H34.6017C34.2328 33.8662 33.9337 33.5671 33.9337 33.1982V30.8628C33.9337 30.4939 34.2328 30.1948 34.6017 30.1948H38.2339C38.6028 30.1948 38.9019 30.4939 38.9019 30.8628V33.1982C38.9019 33.5671 38.6028 33.8662 38.2339 33.8662Z" fill="url(#paint27_linear_268_6322)"/>
<path id="Vector_29" d="M36.574 32.9662C37.3303 32.9662 37.9434 32.3531 37.9434 31.5969C37.9434 30.8406 37.3303 30.2275 36.574 30.2275C35.8178 30.2275 35.2047 30.8406 35.2047 31.5969C35.2047 32.3531 35.8178 32.9662 36.574 32.9662Z" fill="url(#paint28_linear_268_6322)"/>
<path id="Vector_30" d="M38.7037 39.5203H4.62966C4.1097 39.5203 3.68828 39.0988 3.68828 38.5789V35.729C3.68828 35.209 4.10978 34.7876 4.62966 34.7876H38.7038C39.2237 34.7876 39.6451 35.2091 39.6451 35.729V38.5789C39.6451 39.0988 39.2236 39.5203 38.7037 39.5203Z" fill="url(#paint29_linear_268_6322)"/>
<path id="Vector_31" d="M15.8314 32.7559H27.502C27.6872 32.7559 27.8373 32.9059 27.8373 33.0911V33.1582C27.8373 33.3434 27.6872 33.4934 27.502 33.4934H15.8314C15.6462 33.4934 15.4962 33.3434 15.4962 33.1582V33.0911C15.4962 32.9059 15.6462 32.7559 15.8314 32.7559Z" fill="url(#paint30_linear_268_6322)"/>
<path id="Vector_32" d="M15.8314 31.7373H27.502C27.6872 31.7373 27.8373 31.8874 27.8373 32.0726V32.1396C27.8373 32.3248 27.6872 32.4749 27.502 32.4749H15.8314C15.6462 32.4749 15.4962 32.3247 15.4962 32.1396V32.0726C15.4962 31.8875 15.6462 31.7373 15.8314 31.7373Z" fill="url(#paint31_linear_268_6322)"/>
<path id="Vector_33" d="M15.8314 30.7188H27.502C27.6872 30.7188 27.8373 30.8688 27.8373 31.054V31.1211C27.8373 31.3063 27.6872 31.4563 27.502 31.4563H15.8314C15.6462 31.4563 15.4962 31.3063 15.4962 31.1211V31.054C15.4962 30.8689 15.6462 30.7188 15.8314 30.7188Z" fill="url(#paint32_linear_268_6322)"/>
<path id="Vector_34" d="M15.8314 29.7002H27.502C27.6872 29.7002 27.8373 29.8504 27.8373 30.0355V30.1025C27.8373 30.2877 27.6872 30.4378 27.502 30.4378H15.8314C15.6462 30.4378 15.4962 30.2877 15.4962 30.1025V30.0355C15.4962 29.8504 15.6462 29.7002 15.8314 29.7002Z" fill="url(#paint33_linear_268_6322)"/>
<path id="Vector_35" d="M39.0283 24.9707C33.3016 23.789 27.4842 23.1993 21.6667 23.2002V37.2738H39.4773C40.1497 37.2738 40.6947 36.7288 40.6947 36.0564V27.016C40.6947 26.0253 39.9986 25.1709 39.0283 24.9707Z" fill="url(#paint34_linear_268_6322)"/>
<g id="Group">
<path id="Vector_36" d="M18.5078 9.94643C18.5078 9.88484 18.5213 9.83154 18.5485 9.78637C18.5756 9.74129 18.6153 9.71875 18.6674 9.71875H20.1348C20.1868 9.71875 20.2264 9.74129 20.2537 9.78637C20.2808 9.83154 20.2944 9.88484 20.2944 9.94643C20.2944 10.0125 20.2802 10.0679 20.2519 10.1131C20.2236 10.1582 20.1845 10.1807 20.1348 10.1807H19.666V12.0376C19.666 12.0901 19.6399 12.1305 19.5879 12.159C19.5358 12.1875 19.4735 12.2018 19.4011 12.2018C19.3286 12.2018 19.2664 12.1875 19.2143 12.159C19.1622 12.1305 19.1362 12.0901 19.1362 12.0376V10.1807H18.6675C18.6176 10.1807 18.5786 10.1582 18.5503 10.1131C18.5219 10.0679 18.5078 10.0125 18.5078 9.94643Z" fill="#555A66"/>
<path id="Vector_37" d="M20.1212 11.9847C20.1212 11.9779 20.1234 11.9655 20.128 11.9474L20.7597 9.87538C20.7778 9.81881 20.8191 9.77515 20.8837 9.74457C20.9483 9.71398 21.0224 9.69873 21.1062 9.69873C21.19 9.69873 21.2642 9.71407 21.3287 9.74457C21.3932 9.77515 21.4345 9.81873 21.4526 9.87538L22.0878 11.9474C22.0924 11.9655 22.0946 11.9779 22.0946 11.9847C22.0946 12.0436 22.0578 12.0946 21.9843 12.1376C21.9106 12.1807 21.8342 12.2021 21.755 12.2021C21.6576 12.2021 21.5999 12.1693 21.5818 12.1036L21.4663 11.679H20.7496L20.6341 12.1036C20.6159 12.1693 20.5582 12.2021 20.4609 12.2021C20.3816 12.2021 20.3052 12.1807 20.2316 12.1376C20.158 12.0946 20.1212 12.0436 20.1212 11.9847ZM20.8583 11.2714H21.3542L21.1062 10.3611L20.8583 11.2714Z" fill="#555A66"/>
<path id="Vector_38" d="M22.1354 11.961C22.1354 11.9316 22.1457 11.8998 22.166 11.8659L22.7536 10.959L22.1897 10.0555C22.1671 10.0193 22.1558 9.98415 22.1558 9.95012C22.1558 9.88216 22.1932 9.82334 22.2679 9.77348C22.3427 9.7237 22.4196 9.69873 22.499 9.69873C22.5737 9.69873 22.6268 9.72823 22.6586 9.78705L23.1103 10.5751L23.5621 9.78705C23.5938 9.72823 23.6471 9.69873 23.7217 9.69873C23.801 9.69873 23.878 9.7237 23.9527 9.77348C24.0274 9.82334 24.0648 9.88216 24.0648 9.95012C24.0648 9.98406 24.0535 10.0193 24.0309 10.0555L23.467 10.959L24.0546 11.8659C24.0749 11.8998 24.0852 11.9316 24.0852 11.961C24.0852 12.029 24.0461 12.0896 23.968 12.1428C23.8899 12.196 23.8112 12.2226 23.732 12.2226C23.6685 12.2226 23.6266 12.2044 23.6063 12.1683L23.1103 11.3258L22.6144 12.1683C22.5918 12.2045 22.5499 12.2226 22.4887 12.2226C22.4095 12.2226 22.3308 12.196 22.2527 12.1428C22.1745 12.0896 22.1354 12.0289 22.1354 11.961Z" fill="#555A66"/>
<path id="Vector_39" d="M24.2957 12.0392V9.87887C24.2957 9.82683 24.3217 9.7872 24.3738 9.75996C24.4259 9.73281 24.4881 9.71924 24.5607 9.71924C24.6331 9.71924 24.6954 9.73281 24.7475 9.75996C24.7995 9.78711 24.8256 9.82675 24.8256 9.87887V12.0392C24.8256 12.0913 24.7995 12.1314 24.7475 12.1598C24.6954 12.1881 24.6331 12.2022 24.5607 12.2022C24.4882 12.2022 24.426 12.1881 24.3738 12.1598C24.3217 12.1315 24.2957 12.0913 24.2957 12.0392Z" fill="#555A66"/>
</g>
<path id="Vector_40" d="M34.5488 15.6362H32.8747V19.3158L37.2258 23.6669L34.5488 15.6362Z" fill="url(#paint35_linear_268_6322)"/>
<path id="Vector_41" d="M41.4599 8.44595C41.4599 3.92674 37.7963 0.263184 33.2771 0.263184C28.7776 0.263184 25.1398 3.86272 25.0948 8.36198C25.0607 11.7602 27.0985 14.686 30.0221 15.955C30.5113 16.1673 30.9298 16.5149 31.2296 16.9559L32.6936 19.1098C32.9736 19.5217 33.5805 19.5217 33.8605 19.1098L35.3245 16.9559C35.6234 16.5163 36.0398 16.1682 36.5275 15.9569C39.4295 14.6994 41.4599 11.81 41.4599 8.44595Z" fill="url(#paint36_linear_268_6322)"/>
<path id="Vector_42" d="M33.2771 19.011C33.2297 19.011 33.1108 18.9982 33.0308 18.8806L31.5668 16.7267C31.2225 16.2202 30.7445 15.824 30.1844 15.5809C27.3088 14.3328 25.471 11.5008 25.5025 8.36604C25.5232 6.29825 26.34 4.36244 27.8023 2.91509C29.2645 1.46798 31.209 0.670898 33.277 0.670898C37.5642 0.670898 41.052 4.15873 41.052 8.4459C41.052 11.5477 39.2124 14.3491 36.3655 15.5828C35.8085 15.8241 35.3321 16.2197 34.9873 16.7268L33.5233 18.8806C33.4433 18.9982 33.3245 19.011 33.2771 19.011Z" fill="url(#paint37_linear_268_6322)"/>
<path id="Vector_43" d="M33.2771 13.5894C36.1178 13.5894 38.4207 11.2866 38.4207 8.44584C38.4207 5.60511 36.1178 3.30225 33.2771 3.30225C30.4364 3.30225 28.1335 5.60511 28.1335 8.44584C28.1335 11.2866 30.4364 13.5894 33.2771 13.5894Z" fill="url(#paint38_linear_268_6322)"/>
<path id="Vector_44" d="M41.2039 10.483L36.317 5.59619C35.5568 4.78553 34.4763 4.27881 33.2771 4.27881C30.9758 4.27881 29.1102 6.1444 29.1102 8.44565C29.1102 9.64471 29.6168 10.7253 30.4276 11.4856L35.5777 16.6357C35.8423 16.3463 36.1651 16.1137 36.5275 15.9567C38.8228 14.9622 40.5724 12.9467 41.2039 10.483Z" fill="url(#paint39_linear_268_6322)"/>
<path id="Vector_45" d="M33.2771 12.6127C35.5784 12.6127 37.444 10.7471 37.444 8.44574C37.444 6.14441 35.5784 4.27881 33.2771 4.27881C30.9758 4.27881 29.1102 6.14441 29.1102 8.44574C29.1102 10.7471 30.9758 12.6127 33.2771 12.6127Z" fill="url(#paint40_linear_268_6322)"/>
</g>
<defs>
<linearGradient id="paint0_linear_268_6322" x1="5.23947" y1="21.6847" x2="6.17851" y2="24.2411" gradientUnits="userSpaceOnUse">
<stop stop-color="#7E8595"/>
<stop offset="1" stop-color="#555A66"/>
</linearGradient>
<linearGradient id="paint1_linear_268_6322" x1="37.0721" y1="21.6847" x2="38.0112" y2="24.2411" gradientUnits="userSpaceOnUse">
<stop stop-color="#7E8595"/>
<stop offset="1" stop-color="#555A66"/>
</linearGradient>
<linearGradient id="paint2_linear_268_6322" x1="40.2764" y1="27.0523" x2="35.462" y2="22.2377" gradientUnits="userSpaceOnUse">
<stop stop-color="#555A66" stop-opacity="0"/>
<stop offset="1" stop-color="#555A66"/>
</linearGradient>
<linearGradient id="paint3_linear_268_6322" x1="20.5568" y1="10.1599" x2="22.1632" y2="14.3505" gradientUnits="userSpaceOnUse">
<stop stop-color="#F9F7FC"/>
<stop offset="1" stop-color="#F0DDFC"/>
</linearGradient>
<linearGradient id="paint4_linear_268_6322" x1="22.0649" y1="12.3744" x2="20.7663" y2="9.94484" gradientUnits="userSpaceOnUse">
<stop stop-color="#E9EDF5" stop-opacity="0"/>
<stop offset="1" stop-color="white"/>
</linearGradient>
<linearGradient id="paint5_linear_268_6322" x1="20.6827" y1="17.0638" x2="21.7018" y2="25.6085" gradientUnits="userSpaceOnUse">
<stop stop-color="#FFDA45"/>
<stop offset="1" stop-color="#FFA425"/>
</linearGradient>
<linearGradient id="paint6_linear_268_6322" x1="22.3799" y1="28.2194" x2="15.5217" y2="0.282248" gradientUnits="userSpaceOnUse">
<stop stop-color="#FFDA45" stop-opacity="0"/>
<stop offset="1" stop-color="#B53759"/>
</linearGradient>
<linearGradient id="paint7_linear_268_6322" x1="27.5774" y1="19.9836" x2="26.1054" y2="7.6858" gradientUnits="userSpaceOnUse">
<stop stop-color="#FFDA45" stop-opacity="0"/>
<stop offset="1" stop-color="#B53759"/>
</linearGradient>
<linearGradient id="paint8_linear_268_6322" x1="18.0644" y1="15.4658" x2="22.9154" y2="27.821" gradientUnits="userSpaceOnUse">
<stop stop-color="#7E8595"/>
<stop offset="1" stop-color="#555A66"/>
</linearGradient>
<linearGradient id="paint9_linear_268_6322" x1="21.5057" y1="22.8826" x2="2.31962" y2="-4.86351" gradientUnits="userSpaceOnUse">
<stop stop-color="#BEC3D2" stop-opacity="0"/>
<stop offset="0.5577" stop-color="#D4D9E4" stop-opacity="0.558"/>
<stop offset="1" stop-color="#E9EDF5"/>
</linearGradient>
<linearGradient id="paint10_linear_268_6322" x1="6.87311" y1="36.9959" x2="13.4351" y2="43.5579" gradientUnits="userSpaceOnUse">
<stop stop-color="#7E8595"/>
<stop offset="1" stop-color="#555A66"/>
</linearGradient>
<linearGradient id="paint11_linear_268_6322" x1="10.1327" y1="41.5072" x2="7.25857" y2="35.3435" gradientUnits="userSpaceOnUse">
<stop stop-color="#555A66" stop-opacity="0"/>
<stop offset="1" stop-color="#555A66"/>
</linearGradient>
<linearGradient id="paint12_linear_268_6322" x1="8.5732" y1="34.9666" x2="3.35545" y2="44.7156" gradientUnits="userSpaceOnUse">
<stop stop-color="#555A66" stop-opacity="0"/>
<stop offset="1" stop-color="#555A66"/>
</linearGradient>
<linearGradient id="paint13_linear_268_6322" x1="38.0289" y1="36.9959" x2="44.591" y2="43.5579" gradientUnits="userSpaceOnUse">
<stop stop-color="#7E8595"/>
<stop offset="1" stop-color="#555A66"/>
</linearGradient>
<linearGradient id="paint14_linear_268_6322" x1="40.565" y1="40.7339" x2="37.2395" y2="34.9579" gradientUnits="userSpaceOnUse">
<stop stop-color="#555A66" stop-opacity="0"/>
<stop offset="1" stop-color="#555A66"/>
</linearGradient>
<linearGradient id="paint15_linear_268_6322" x1="39.729" y1="34.9666" x2="34.5113" y2="44.7156" gradientUnits="userSpaceOnUse">
<stop stop-color="#555A66" stop-opacity="0"/>
<stop offset="1" stop-color="#555A66"/>
</linearGradient>
<linearGradient id="paint16_linear_268_6322" x1="21.6667" y1="35.6568" x2="21.6667" y2="23.6817" gradientUnits="userSpaceOnUse">
<stop stop-color="#FFDA45"/>
<stop offset="1" stop-color="#FFA425"/>
</linearGradient>
<linearGradient id="paint17_linear_268_6322" x1="21.0535" y1="23.9068" x2="22.6068" y2="32.8608" gradientUnits="userSpaceOnUse">
<stop stop-color="#FFDA45"/>
<stop offset="1" stop-color="#FFA425"/>
</linearGradient>
<linearGradient id="paint18_linear_268_6322" x1="19.4781" y1="28.0476" x2="14.4177" y2="19.1214" gradientUnits="userSpaceOnUse">
<stop stop-color="#FFDA45" stop-opacity="0"/>
<stop offset="1" stop-color="#FCEE21"/>
</linearGradient>
<linearGradient id="paint19_linear_268_6322" x1="13.5303" y1="37.0486" x2="7.04155" y2="18.5755" gradientUnits="userSpaceOnUse">
<stop stop-color="#F92814" stop-opacity="0"/>
<stop offset="1" stop-color="#C1272D"/>
</linearGradient>
<linearGradient id="paint20_linear_268_6322" x1="35.8996" y1="35.5644" x2="30.7605" y2="20.9336" gradientUnits="userSpaceOnUse">
<stop stop-color="#F92814" stop-opacity="0"/>
<stop offset="1" stop-color="#C1272D"/>
</linearGradient>
<linearGradient id="paint21_linear_268_6322" x1="9.00684" y1="30.3379" x2="11.266" y2="36.7049" gradientUnits="userSpaceOnUse">
<stop stop-color="#F9F7FC"/>
<stop offset="1" stop-color="#F0DDFC"/>
</linearGradient>
<linearGradient id="paint22_linear_268_6322" x1="10.4104" y1="32.6457" x2="7.35241" y2="29.1003" gradientUnits="userSpaceOnUse">
<stop stop-color="#E9EDF5" stop-opacity="0"/>
<stop offset="1" stop-color="white"/>
</linearGradient>
<linearGradient id="paint23_linear_268_6322" x1="11.9917" y1="32.6596" x2="11.9917" y2="24.1429" gradientUnits="userSpaceOnUse">
<stop stop-color="#F0DDFC" stop-opacity="0"/>
<stop offset="0.2889" stop-color="#C8B7E0" stop-opacity="0.289"/>
<stop offset="0.5915" stop-color="#A595C8" stop-opacity="0.592"/>
<stop offset="0.8395" stop-color="#8F81B8" stop-opacity="0.84"/>
<stop offset="1" stop-color="#8779B3"/>
</linearGradient>
<linearGradient id="paint24_linear_268_6322" x1="12.1479" y1="33.2617" x2="12.1479" y2="30.7559" gradientUnits="userSpaceOnUse">
<stop stop-color="#E9EDF5" stop-opacity="0"/>
<stop offset="1" stop-color="white"/>
</linearGradient>
<linearGradient id="paint25_linear_268_6322" x1="33.433" y1="30.3379" x2="35.6921" y2="36.7049" gradientUnits="userSpaceOnUse">
<stop stop-color="#F9F7FC"/>
<stop offset="1" stop-color="#F0DDFC"/>
</linearGradient>
<linearGradient id="paint26_linear_268_6322" x1="34.8365" y1="32.6457" x2="31.7785" y2="29.1003" gradientUnits="userSpaceOnUse">
<stop stop-color="#E9EDF5" stop-opacity="0"/>
<stop offset="1" stop-color="white"/>
</linearGradient>
<linearGradient id="paint27_linear_268_6322" x1="36.4178" y1="32.6596" x2="36.4178" y2="24.1429" gradientUnits="userSpaceOnUse">
<stop stop-color="#F0DDFC" stop-opacity="0"/>
<stop offset="0.2889" stop-color="#C8B7E0" stop-opacity="0.289"/>
<stop offset="0.5915" stop-color="#A595C8" stop-opacity="0.592"/>
<stop offset="0.8395" stop-color="#8F81B8" stop-opacity="0.84"/>
<stop offset="1" stop-color="#8779B3"/>
</linearGradient>
<linearGradient id="paint28_linear_268_6322" x1="36.574" y1="33.2617" x2="36.574" y2="30.7559" gradientUnits="userSpaceOnUse">
<stop stop-color="#E9EDF5" stop-opacity="0"/>
<stop offset="1" stop-color="white"/>
</linearGradient>
<linearGradient id="paint29_linear_268_6322" x1="21.6667" y1="36.1737" x2="21.6667" y2="40.8047" gradientUnits="userSpaceOnUse">
<stop stop-color="#BEC3D2"/>
<stop offset="0.97" stop-color="#808797"/>
<stop offset="1" stop-color="#7E8595"/>
</linearGradient>
<linearGradient id="paint30_linear_268_6322" x1="21.6667" y1="34.0006" x2="21.6667" y2="31.6372" gradientUnits="userSpaceOnUse">
<stop stop-color="#7E8595"/>
<stop offset="1" stop-color="#555A66"/>
</linearGradient>
<linearGradient id="paint31_linear_268_6322" x1="21.6667" y1="32.982" x2="21.6667" y2="30.6187" gradientUnits="userSpaceOnUse">
<stop stop-color="#7E8595"/>
<stop offset="1" stop-color="#555A66"/>
</linearGradient>
<linearGradient id="paint32_linear_268_6322" x1="21.6667" y1="31.9635" x2="21.6667" y2="29.6001" gradientUnits="userSpaceOnUse">
<stop stop-color="#7E8595"/>
<stop offset="1" stop-color="#555A66"/>
</linearGradient>
<linearGradient id="paint33_linear_268_6322" x1="21.6667" y1="30.9449" x2="21.6667" y2="28.5816" gradientUnits="userSpaceOnUse">
<stop stop-color="#7E8595"/>
<stop offset="1" stop-color="#555A66"/>
</linearGradient>
<linearGradient id="paint34_linear_268_6322" x1="28.6645" y1="29.1399" x2="11.7165" y2="11.761" gradientUnits="userSpaceOnUse">
<stop stop-color="#FFDA45" stop-opacity="0"/>
<stop offset="1" stop-color="#B53759"/>
</linearGradient>
<linearGradient id="paint35_linear_268_6322" x1="37.5682" y1="21.3325" x2="33.5025" y2="17.2668" gradientUnits="userSpaceOnUse">
<stop stop-color="#FFDA45" stop-opacity="0"/>
<stop offset="1" stop-color="#B53759"/>
</linearGradient>
<linearGradient id="paint36_linear_268_6322" x1="28.3384" y1="3.50699" x2="44.6654" y2="19.834" gradientUnits="userSpaceOnUse">
<stop stop-color="#FF7044"/>
<stop offset="1" stop-color="#F92814"/>
</linearGradient>
<linearGradient id="paint37_linear_268_6322" x1="31.5223" y1="6.69562" x2="25.7848" y2="0.958157" gradientUnits="userSpaceOnUse">
<stop stop-color="#FF7044" stop-opacity="0"/>
<stop offset="1" stop-color="#FFA425"/>
</linearGradient>
<linearGradient id="paint38_linear_268_6322" x1="36.3786" y1="11.5474" x2="26.1199" y2="1.28859" gradientUnits="userSpaceOnUse">
<stop stop-color="#FF7044"/>
<stop offset="1" stop-color="#F92814"/>
</linearGradient>
<linearGradient id="paint39_linear_268_6322" x1="38.6283" y1="13.7969" x2="34.0815" y2="9.25011" gradientUnits="userSpaceOnUse">
<stop stop-color="#F92814" stop-opacity="0"/>
<stop offset="1" stop-color="#C1272D"/>
</linearGradient>
<linearGradient id="paint40_linear_268_6322" x1="32.257" y1="6.89011" x2="34.7194" y2="10.6451" gradientUnits="userSpaceOnUse">
<stop stop-color="#F9F7FC"/>
<stop offset="1" stop-color="#F0DDFC"/>
</linearGradient>
<clipPath id="clip0_268_6322">
<rect width="42.7368" height="42.7368" fill="white" transform="translate(0.298248 0.263184)"/>
</clipPath>
</defs>
</svg>
