<svg width="125" height="25" viewBox="0 0 125 25" fill="none" xmlns="http://www.w3.org/2000/svg">
<circle cx="2.76701" cy="12.4999" r="1.94781" stroke="#C7C7C7" stroke-width="1.29854"/>
<path d="M6.6626 12.5L45.6189 12.5" stroke="#C7C7C7" stroke-width="0.649272" stroke-linecap="round" stroke-dasharray="3.9 3.9"/>
<path opacity="0.4" d="M72.3591 10.8405C71.9291 10.265 71.4115 9.72922 70.9926 9.29564C70.9125 9.21279 70.8866 9.12416 70.8492 9.01582L69.7769 5.90843C69.5771 5.32957 69.4021 4.82221 69.2082 4.41969C68.9986 3.98453 68.7287 3.58574 68.2908 3.28087C67.8528 2.97599 67.3758 2.85473 66.8821 2.80029C66.4255 2.74994 65.8718 2.74997 65.2401 2.75H60.0585C59.4268 2.74997 58.8731 2.74994 58.4165 2.80029C57.9228 2.85473 57.4457 2.97599 57.0078 3.28087C56.5699 3.58574 56.2999 3.98453 56.0904 4.41969C55.8965 4.82221 55.7214 5.32959 55.5217 5.90845L55.5217 5.90846L54.4494 9.01582C54.4097 9.13077 54.3909 9.20778 54.3058 9.29585C53.8869 9.72942 53.3695 10.265 52.9395 10.8405C52.3991 11.5638 51.8993 12.4711 51.8993 13.4996V16.9702C51.8993 17.8475 52.4926 18.7064 53.434 18.831L56.5509 19.2435C56.5835 19.2478 56.6164 19.25 56.6493 19.25H68.6493C68.6822 19.25 68.7151 19.2478 68.7477 19.2435L71.8645 18.831C72.806 18.7064 73.3993 17.8475 73.3993 16.9702V13.4996C73.3993 12.4711 72.8995 11.5638 72.3591 10.8405Z" fill="#161616"/>
<path d="M56.7493 20.2519C56.9379 20.2519 57.0321 20.2519 57.0907 20.3104C57.1493 20.369 57.1493 20.4633 57.1493 20.6519V21.1338C57.1493 21.5126 56.9085 21.8589 56.5274 22.0283L56.4826 22.0483C56.2513 22.1515 56.0266 22.2519 55.7587 22.2519H54.0399C53.772 22.2519 53.5473 22.1515 53.316 22.0483L53.2712 22.0283C52.89 21.8589 52.6493 21.5126 52.6493 21.1338V20.2451C52.6493 19.9894 52.6493 19.8616 52.7198 19.8017C52.7902 19.7418 52.9326 19.7651 53.2173 19.8116C53.2456 19.8162 53.2741 19.8204 53.3028 19.8242L56.4197 20.2367C56.4958 20.2468 56.5725 20.2519 56.6493 20.2519H56.7493Z" fill="#161616"/>
<path d="M68.5493 20.2517C68.3607 20.2517 68.2664 20.2517 68.2079 20.3103C68.1493 20.3688 68.1493 20.4631 68.1493 20.6517V21.1336C68.1493 21.5124 68.39 21.8587 68.7712 22.0281L68.816 22.0481C69.0473 22.1513 69.2719 22.2517 69.5399 22.2517H71.2587C71.5266 22.2517 71.7513 22.1513 71.9826 22.0481L72.0274 22.0281C72.4085 21.8587 72.6493 21.5124 72.6493 21.1336V20.2449C72.6493 19.9893 72.6493 19.8614 72.5788 19.8015C72.5083 19.7416 72.366 19.7649 72.0813 19.8114C72.053 19.816 72.0245 19.8202 71.9957 19.824L68.8789 20.2365C68.8028 20.2466 68.7261 20.2517 68.6493 20.2517H68.5493Z" fill="#161616"/>
<path d="M57.429 8.75006C57.0453 8.75006 56.8535 8.75006 56.7638 8.62419C56.6741 8.49831 56.7367 8.31699 56.8618 7.95433L57.3471 6.54804C57.5677 5.90881 57.7088 5.50452 57.8504 5.21059C58.0302 4.83712 58.2259 4.70848 58.6366 4.66319C58.9701 4.62642 59.4118 4.625 60.1094 4.625H65.1892C65.8868 4.625 66.3285 4.62642 66.6619 4.66319C67.0727 4.70848 67.2684 4.83712 67.4482 5.21059C67.5898 5.50452 67.7309 5.90881 67.9515 6.54804L68.4368 7.95433C68.5619 8.31699 68.6245 8.49831 68.5348 8.62419C68.4451 8.75006 68.2532 8.75006 67.8696 8.75006H57.429Z" fill="#161616"/>
<path d="M53.9849 12.0794C53.6144 11.8942 53.1639 12.0443 52.9786 12.4148C52.7934 12.7853 52.9436 13.2358 53.314 13.421L54.814 14.171C55.1845 14.3563 55.635 14.2061 55.8203 13.8356C56.0055 13.4652 55.8554 13.0146 55.4849 12.8294L53.9849 12.0794Z" fill="#161616"/>
<path d="M71.9849 13.421C72.3554 13.2358 72.5055 12.7853 72.3203 12.4148C72.135 12.0443 71.6845 11.8942 71.314 12.0794L69.814 12.8294C69.4436 13.0146 69.2934 13.4652 69.4786 13.8356C69.6639 14.2061 70.1144 14.3563 70.4849 14.171L71.9849 13.421Z" fill="#161616"/>
<path d="M63.6185 15.5001H61.6807C60.697 15.5001 60.2052 15.5001 59.8242 15.7736C59.5286 15.9859 59.3524 16.3251 59.1175 16.9193C59.0143 17.1803 58.9627 17.3108 59.022 17.4054C59.0814 17.5001 59.2163 17.5001 59.4861 17.5001H65.8131C66.083 17.5001 66.2179 17.5001 66.2772 17.4054C66.3366 17.3108 66.285 17.1803 66.1818 16.9193C65.9469 16.3251 65.7707 15.9859 65.475 15.7736C65.0941 15.5001 64.6022 15.5001 63.6185 15.5001Z" fill="#161616"/>
<path d="M70.9926 9.2954C71.1251 9.43261 71.2676 9.58006 71.414 9.73576L72.0967 9.39441C72.5907 9.14742 72.7909 8.54674 72.5439 8.05277C72.2969 7.55879 71.6963 7.35856 71.2023 7.60555L70.4862 7.96361L70.8492 9.01558L70.8578 9.04063C70.891 9.13773 70.9188 9.21902 70.9926 9.2954Z" fill="#161616"/>
<path d="M53.2023 9.39441L53.8847 9.73561C54.031 9.58005 54.1733 9.43273 54.3058 9.2956C54.3812 9.21764 54.4045 9.14833 54.4364 9.05369L54.4494 9.01558L54.8125 7.96342L54.0967 7.60555C53.6027 7.35856 53.0021 7.55879 52.7551 8.05277C52.5081 8.54674 52.7083 9.14742 53.2023 9.39441Z" fill="#161616"/>
<circle cx="122.233" cy="12.5001" r="1.94781" transform="rotate(-180 122.233 12.5001)" stroke="#C7C7C7" stroke-width="1.29854"/>
<path d="M118.636 12.5H79.6796" stroke="#C7C7C7" stroke-width="0.649272" stroke-linecap="round" stroke-dasharray="3.9 3.9"/>
</svg>
