<svg width="116" height="38" viewBox="0 0 116 38" fill="none" xmlns="http://www.w3.org/2000/svg">
<path d="M22.96 31.172H22.72C22.464 32.868 21.6 34.276 20.128 35.396C18.656 36.516 16.656 37.076 14.128 37.076C12.208 37.076 10.416 36.708 8.752 35.972C7.088 35.236 5.632 34.148 4.384 32.708C3.136 31.268 2.16 29.476 1.456 27.332C0.752 25.188 0.4 22.708 0.4 19.892C0.4 17.076 0.768 14.58 1.504 12.404C2.24 10.228 3.264 8.404 4.576 6.932C5.92 5.46 7.52 4.34 9.376 3.572C11.232 2.804 13.296 2.42 15.568 2.42C18.576 2.42 21.168 3.076 23.344 4.388C25.52 5.668 27.232 7.604 28.48 10.196L22.528 13.604C22.016 12.292 21.216 11.188 20.128 10.292C19.04 9.364 17.52 8.9 15.568 8.9C13.296 8.9 11.488 9.556 10.144 10.868C8.8 12.18 8.128 14.244 8.128 17.06V22.436C8.128 25.22 8.8 27.284 10.144 28.628C11.488 29.94 13.296 30.596 15.568 30.596C16.464 30.596 17.312 30.5 18.112 30.308C18.912 30.084 19.616 29.764 20.224 29.348C20.832 28.9 21.296 28.372 21.616 27.764C21.968 27.156 22.144 26.436 22.144 25.604V23.924H15.904V17.828H29.104V36.5H22.96V31.172Z" fill="#004D40"/>
<path d="M42.868 36.5C40.436 36.5 38.644 35.908 37.492 34.724C36.372 33.54 35.812 31.828 35.812 29.588V0.98H42.916V30.98H46.084V36.5H42.868ZM53.8953 8.612C52.4553 8.612 51.3993 8.292 50.7273 7.652C50.0873 6.98 49.7673 6.132 49.7673 5.108V4.052C49.7673 3.028 50.0873 2.196 50.7273 1.556C51.3993 0.883999 52.4553 0.547999 53.8953 0.547999C55.3353 0.547999 56.3753 0.883999 57.0153 1.556C57.6873 2.196 58.0233 3.028 58.0233 4.052V5.108C58.0233 6.132 57.6873 6.98 57.0153 7.652C56.3753 8.292 55.3353 8.612 53.8953 8.612ZM50.3433 11.3H57.4473V36.5H50.3433V11.3ZM79.5336 32.276H79.2936C79.1016 32.948 78.7976 33.588 78.3816 34.196C77.9656 34.772 77.4536 35.284 76.8456 35.732C76.2696 36.148 75.5976 36.468 74.8296 36.692C74.0936 36.948 73.3256 37.076 72.5256 37.076C69.3256 37.076 66.9096 35.956 65.2776 33.716C63.6456 31.444 62.8296 28.164 62.8296 23.876C62.8296 19.588 63.6456 16.324 65.2776 14.084C66.9096 11.844 69.3256 10.724 72.5256 10.724C74.1576 10.724 75.5976 11.172 76.8456 12.068C78.1256 12.964 78.9416 14.116 79.2936 15.524H79.5336V0.98H86.6376V36.5H79.5336V32.276ZM74.8776 31.316C76.2216 31.316 77.3256 30.996 78.1896 30.356C79.0856 29.684 79.5336 28.772 79.5336 27.62V20.18C79.5336 19.028 79.0856 18.132 78.1896 17.492C77.3256 16.82 76.2216 16.484 74.8776 16.484C73.5336 16.484 72.4136 16.964 71.5176 17.924C70.6536 18.852 70.2216 20.116 70.2216 21.716V26.084C70.2216 27.684 70.6536 28.964 71.5176 29.924C72.4136 30.852 73.5336 31.316 74.8776 31.316ZM103.793 37.076C101.873 37.076 100.161 36.772 98.6568 36.164C97.1528 35.524 95.8728 34.644 94.8168 33.524C93.7928 32.372 93.0088 30.98 92.4648 29.348C91.9528 27.716 91.6968 25.892 91.6968 23.876C91.6968 21.892 91.9528 20.1 92.4648 18.5C92.9768 16.868 93.7288 15.476 94.7208 14.324C95.7448 13.172 96.9928 12.292 98.4648 11.684C99.9368 11.044 101.617 10.724 103.505 10.724C105.585 10.724 107.361 11.076 108.833 11.78C110.337 12.484 111.553 13.428 112.481 14.612C113.441 15.796 114.129 17.172 114.545 18.74C114.993 20.276 115.217 21.892 115.217 23.588V25.7H99.0408V26.084C99.0408 27.748 99.4888 29.076 100.385 30.068C101.281 31.028 102.689 31.508 104.609 31.508C106.081 31.508 107.281 31.22 108.209 30.644C109.137 30.036 110.001 29.316 110.801 28.484L114.353 32.9C113.233 34.212 111.761 35.236 109.937 35.972C108.145 36.708 106.097 37.076 103.793 37.076ZM103.649 15.956C102.209 15.956 101.073 16.436 100.241 17.396C99.4408 18.324 99.0408 19.572 99.0408 21.14V21.524H107.873V21.092C107.873 19.556 107.521 18.324 106.817 17.396C106.145 16.436 105.089 15.956 103.649 15.956Z" fill="white"/>
</svg>
