<svg width="16" height="16" viewBox="0 0 16 16" fill="none" xmlns="http://www.w3.org/2000/svg">
<g id="vuesax/bulk/briefcase">
<g id="briefcase">
<path id="Vector" d="M14.06 4.65351C13.4933 4.02684 12.5467 3.71351 11.1733 3.71351H11.0133V3.68684C11.0133 2.56684 11.0133 1.18018 8.50667 1.18018H7.49334C4.98667 1.18018 4.98667 2.57351 4.98667 3.68684V3.72018H4.82667C3.44667 3.72018 2.50667 4.03351 1.94 4.66018C1.28 5.39351 1.3 6.38018 1.36667 7.05351L1.37334 7.10018L1.44 7.80018C1.44667 7.80684 1.46 7.82018 1.47334 7.82684C1.69334 7.97351 1.92 8.12018 2.16 8.25351C2.25334 8.31351 2.35334 8.36684 2.45334 8.42018C3.59334 9.04684 4.84667 9.46684 6.12 9.67351C6.18 10.3002 6.45334 11.0335 7.91334 11.0335C9.37334 11.0335 9.66 10.3068 9.70667 9.66018C11.0667 9.44018 12.38 8.96684 13.5667 8.27351C13.6067 8.25351 13.6333 8.23351 13.6667 8.21351C13.9733 8.04018 14.26 7.85351 14.54 7.64684C14.5533 7.64018 14.5667 7.62684 14.5733 7.61351L14.6 7.37351L14.6333 7.06018C14.64 7.02018 14.64 6.98684 14.6467 6.94018C14.7 6.26684 14.6867 5.34684 14.06 4.65351ZM8.72667 9.22018C8.72667 9.92684 8.72667 10.0335 7.90667 10.0335C7.08667 10.0335 7.08667 9.90684 7.08667 9.22684V8.38684H8.72667V9.22018ZM5.94 3.71351V3.68684C5.94 2.55351 5.94 2.13351 7.49334 2.13351H8.50667C10.06 2.13351 10.06 2.56018 10.06 3.68684V3.72018H5.94V3.71351Z" fill="#272728"/>
<path id="Vector_2" opacity="0.4" d="M13.6667 8.2001C13.6333 8.2201 13.6 8.2401 13.5667 8.2601C12.38 8.95343 11.0667 9.4201 9.70667 9.64676C9.65334 10.2868 9.37334 11.0201 7.91334 11.0201C6.45334 11.0201 6.17334 10.2934 6.12 9.6601C4.84667 9.4601 3.59334 9.0401 2.45334 8.40676C2.35334 8.35343 2.25334 8.3001 2.16 8.2401C1.92 8.10676 1.69334 7.9601 1.47334 7.81343C1.46 7.80676 1.44667 7.79343 1.44 7.78676L1.84667 12.1268C1.98667 13.4534 2.53334 14.8201 5.46667 14.8201H10.5467C13.48 14.8201 14.0267 13.4534 14.1667 12.1201L14.5867 7.6001C14.58 7.61343 14.5667 7.62676 14.5533 7.63343C14.2667 7.8401 13.9733 8.03343 13.6667 8.2001Z" fill="#272728"/>
</g>
</g>
</svg>
